<?xml version="1.0" encoding="UTF-8"?>
<svg width="1400px" height="1280px" viewBox="0 0 1400 1280" version="1.1" xmlns="http://www.w3.org/2000/svg" xmlns:xlink="http://www.w3.org/1999/xlink">
    <!-- Generator: Sketch 48.1 (47250) - http://www.bohemiancoding.com/sketch -->
    <title>website</title>
    <desc>Created with Sketch.</desc>
    <defs></defs>
    <g id="Page-1" stroke="none" stroke-width="1" fill="none" fill-rule="evenodd">
        <g id="website">
            <rect id="Rectangle" fill="#4789F0" x="0" y="0" width="1400" height="1280"></rect>
            <g id="compass-v2" transform="translate(1290.000000, 933.000000) scale(-1, 1) translate(-1290.000000, -933.000000) translate(755.000000, 398.000000)" fill="#FFFFFF" fill-rule="nonzero">
                <path d="M570.650692,606.704344 C540.46733,620.759155 502.810631,614.267171 479.297503,590.70863 C455.472055,566.904688 449.024907,530.139087 463.257712,499.240811 L466.514749,492.191097 L383.32646,409 L0,1070 L661,686.705221 L577.700169,603.447197 L570.650692,606.704344 Z M61.3929126,1008.60502 L388.078164,445.297108 L439.967668,497.210672 C425.957948,534.93557 434.948262,577.970063 463.525413,606.503561 C491.656396,634.680111 535.269457,643.983057 572.72538,630.017483 L624.726426,681.975666 L61.3929126,1008.60502 Z" id="Shape"></path>
                <path d="M492.210597,466.530494 L499.282383,463.273347 C529.510361,449.285464 567.144752,455.755139 590.702497,479.29137 C614.527945,503.117621 620.952784,539.860913 606.71998,570.692261 L603.462943,577.741976 L686.695849,661 L1070,0 L409,383.317088 L492.210597,466.530494 Z M681.944144,624.702892 L630.010024,572.74471 C644.042052,535.086739 635.051738,492.052246 606.474587,463.496439 C578.298988,435.29758 534.619001,426.016943 497.207695,439.982517 L445.273574,388.068953 L1008.58478,61.3949846 L681.944144,624.702892 Z" id="Shape"></path>
            </g>
        </g>
    </g>
</svg>