<?xml version="1.0" encoding="UTF-8"?>
<svg width="181px" height="15px" viewBox="0 0 181 15" version="1.1" xmlns="http://www.w3.org/2000/svg" xmlns:xlink="http://www.w3.org/1999/xlink">
    <!-- Generator: Sketch 48.1 (47250) - http://www.bohemiancoding.com/sketch -->
    <title>amazon web services</title>
    <desc>Created with Sketch.</desc>
    <defs></defs>
    <g id="Desktop-HD-Copy-2" stroke="none" stroke-width="1" fill="none" fill-rule="evenodd" transform="translate(-218.000000, -645.000000)">
        <g id="Group-2" transform="translate(217.000000, 162.000000)" fill="#E2E8EB">
            <path d="M9.82,497 L9.82,495.182 C9.48399832,495.794003 8.99200324,496.279998 8.344,496.64 C7.69599676,497.000002 7.00000372,497.18 6.256,497.18 C5.04399394,497.18 4.0180042,496.760004 3.178,495.92 C2.3379958,495.079996 1.918,494.036006 1.918,492.788 C1.918,491.539994 2.3379958,490.499004 3.178,489.665 C4.0180042,488.830996 5.04399394,488.414 6.256,488.414 C7.01200378,488.414 7.71099679,488.590998 8.353,488.945 C8.99500321,489.299002 9.48399832,489.781997 9.82,490.394 L9.82,488.594 L10.648,488.594 L10.648,497 L9.82,497 Z M3.754,490.268 C3.08199664,490.940003 2.746,491.779995 2.746,492.788 C2.746,493.796005 3.08799658,494.641997 3.772,495.326 C4.45600342,496.010003 5.28399514,496.352 6.256,496.352 C7.24000492,496.352 8.07699655,496.025003 8.767,495.371 C9.45700345,494.716997 9.80799994,493.886005 9.82,492.878 C9.82,491.821995 9.47500345,490.952003 8.785,490.268 C8.09499655,489.583997 7.25200498,489.242 6.256,489.242 C5.27199508,489.242 4.43800342,489.583997 3.754,490.268 Z M21.088,497 L20.278,497 L20.278,492.068 C20.278,491.191996 20.0440024,490.499003 19.576,489.989 C19.1079977,489.478997 18.4960038,489.224 17.74,489.224 C16.9119959,489.224 16.2130029,489.472998 15.643,489.971 C15.0729972,490.469002 14.7820001,491.239995 14.77,492.284 L14.77,497 L13.942,497 L13.942,488.594 L14.77,488.594 L14.77,490.25 C14.9980012,489.637997 15.3969972,489.179002 15.967,488.873 C16.5370029,488.566998 17.127997,488.414 17.74,488.414 C18.4960038,488.414 19.1439973,488.602998 19.684,488.981 C20.2240027,489.359002 20.6079989,489.895997 20.836,490.592 C21.0040009,490.039997 21.288998,489.593002 21.691,489.251 C22.093002,488.908998 22.4859981,488.684001 22.87,488.576 C23.2540019,488.467999 23.6559979,488.414 24.076,488.414 C25.0840051,488.414 25.8969969,488.743997 26.515,489.404 C27.1330031,490.064003 27.4360001,490.951994 27.424,492.068 L27.424,497 L26.614,497 L26.614,492.068 C26.614,491.191996 26.3800024,490.499003 25.912,489.989 C25.4439977,489.478997 24.8320038,489.224 24.076,489.224 C23.2479959,489.224 22.5490029,489.472998 21.979,489.971 C21.4089972,490.469002 21.1120001,491.239995 21.088,492.284 L21.088,497 Z M37.918,497 L37.918,495.182 C37.5819983,495.794003 37.0900033,496.279998 36.442,496.64 C35.7939968,497.000002 35.0980037,497.18 34.354,497.18 C33.141994,497.18 32.1160042,496.760004 31.276,495.92 C30.4359958,495.079996 30.016,494.036006 30.016,492.788 C30.016,491.539994 30.4359958,490.499004 31.276,489.665 C32.1160042,488.830996 33.141994,488.414 34.354,488.414 C35.1100038,488.414 35.8089968,488.590998 36.451,488.945 C37.0930032,489.299002 37.5819983,489.781997 37.918,490.394 L37.918,488.594 L38.746,488.594 L38.746,497 L37.918,497 Z M31.852,490.268 C31.1799967,490.940003 30.844,491.779995 30.844,492.788 C30.844,493.796005 31.1859966,494.641997 31.87,495.326 C32.5540034,496.010003 33.3819952,496.352 34.354,496.352 C35.3380049,496.352 36.1749966,496.025003 36.865,495.371 C37.5550035,494.716997 37.906,493.886005 37.918,492.878 C37.918,491.821995 37.5730035,490.952003 36.883,490.268 C36.1929966,489.583997 35.350005,489.242 34.354,489.242 C33.3699951,489.242 32.5360034,489.583997 31.852,490.268 Z M48.322,496.19 L48.322,497 L41.284,497 L41.284,496.352 L47.116,489.404 L41.41,489.404 L41.41,488.594 L48.322,488.594 L48.322,489.26 L42.454,496.19 L48.322,496.19 Z M52.03,495.38 C52.7260035,496.040003 53.577995,496.37 54.586,496.37 C55.5940051,496.37 56.4429966,496.037003 57.133,495.371 C57.8230035,494.704997 58.168,493.838005 58.168,492.77 C58.168,491.713995 57.8230035,490.859003 57.133,490.205 C56.4429966,489.550997 55.5940051,489.224 54.586,489.224 C53.577995,489.224 52.7290035,489.550997 52.039,490.205 C51.3489966,490.859003 51.004,491.713995 51.004,492.77 C51.004,493.838005 51.3459966,494.707997 52.03,495.38 Z M57.7,495.956 C56.8599958,496.772004 55.8220062,497.18 54.586,497.18 C53.3499939,497.18 52.3090043,496.772004 51.463,495.956 C50.6169958,495.139996 50.194,494.078007 50.194,492.77 C50.194,491.473994 50.6169958,490.424004 51.463,489.62 C52.3090043,488.815996 53.3499939,488.414 54.586,488.414 C55.8220062,488.414 56.8629958,488.815996 57.709,489.62 C58.5550043,490.424004 58.978,491.473994 58.978,492.77 C58.978,494.078007 58.5520043,495.139996 57.7,495.956 Z M61.6780001,497 L61.6780001,488.594 L62.5060001,488.594 L62.5060001,490.25 C62.7340012,489.625997 63.1269973,489.164001 63.6850001,488.864 C64.2430028,488.563999 64.8399969,488.414 65.4760001,488.414 C66.4840051,488.414 67.296997,488.743997 67.9150001,489.404 C68.5330031,490.064003 68.8360001,490.951994 68.8240001,492.068 L68.8240001,497 L68.0140001,497 L68.0140001,492.068 C68.0140001,491.191996 67.7800024,490.499003 67.3120001,489.989 C66.8439977,489.478997 66.2320038,489.224 65.4760001,489.224 C64.6479959,489.224 63.9490029,489.472998 63.3790001,489.971 C62.8089972,490.469002 62.5180001,491.239995 62.5060001,492.284 L62.5060001,497 L61.6780001,497 Z M88.4620001,488.594 L89.3260001,488.594 L86.1760001,497 L85.4200001,497 L82.5220001,489.494 L79.7140001,497 L78.9580001,497 L75.7180001,488.594 L76.6000001,488.594 L79.3180001,495.758 L82.0000001,488.594 L83.0620001,488.594 L85.7800001,495.74 L88.4620001,488.594 Z M97.4080001,490.088 C96.8079971,489.511997 96.0520046,489.224 95.1400001,489.224 C94.2279955,489.224 93.4540033,489.511997 92.8180001,490.088 C92.1819969,490.664003 91.8220005,491.431995 91.7380001,492.392 L98.4340001,492.392 C98.3499997,491.419995 98.0080031,490.652003 97.4080001,490.088 Z M99.2620001,492.77 C99.2620001,492.938001 99.2560001,493.064 99.2440001,493.148 L91.7380001,493.148 C91.8100004,494.108005 92.1669969,494.884997 92.8090001,495.479 C93.4510033,496.073003 94.2279955,496.37 95.1400001,496.37 C95.7640032,496.37 96.3339975,496.229001 96.8500001,495.947 C97.3660027,495.664999 97.7739986,495.272003 98.0740001,494.768 L98.8480001,495.038 C98.4879983,495.710003 97.9810034,496.234998 97.3270001,496.613 C96.6729968,496.991002 95.9440041,497.18 95.1400001,497.18 C93.9399941,497.18 92.9350041,496.772004 92.1250001,495.956 C91.314996,495.139996 90.9100001,494.078007 90.9100001,492.77 C90.9100001,491.473994 91.314996,490.424004 92.1250001,489.62 C92.9350041,488.815996 93.9399941,488.414 95.1400001,488.414 C96.3520061,488.414 97.3419962,488.812996 98.1100001,489.611 C98.8780039,490.409004 99.2620001,491.461993 99.2620001,492.77 Z M108.712,495.326 C109.396004,494.641997 109.738,493.796005 109.738,492.788 C109.738,491.779995 109.399003,490.937003 108.721,490.259 C108.042997,489.580997 107.212005,489.242 106.228,489.242 C105.231995,489.242 104.389004,489.583997 103.699,490.268 C103.008997,490.952003 102.664,491.821995 102.664,492.878 C102.676,493.886005 103.026997,494.716997 103.717,495.371 C104.407004,496.025003 105.243995,496.352 106.228,496.352 C107.200005,496.352 108.027997,496.010003 108.712,495.326 Z M102.664,495.182 L102.664,497 L101.836,497 L101.836,483.806 L102.664,483.806 L102.664,490.394 C103.000002,489.781997 103.488997,489.299002 104.131,488.945 C104.773003,488.590998 105.471996,488.414 106.228,488.414 C107.440006,488.414 108.465996,488.830996 109.306,489.665 C110.146004,490.499004 110.566,491.539994 110.566,492.788 C110.566,494.036006 110.146004,495.079996 109.306,495.92 C108.465996,496.760004 107.440006,497.18 106.228,497.18 C105.483996,497.18 104.788003,497.000002 104.14,496.64 C103.491997,496.279998 103.000002,495.794003 102.664,495.182 Z M120.718,488.414 C121.414004,488.414 121.998998,488.596998 122.473,488.963 C122.947002,489.329002 123.226,489.847997 123.31,490.52 L122.5,490.52 C122.428,490.123998 122.230002,489.806001 121.906,489.566 C121.581998,489.325999 121.186002,489.206 120.718,489.206 C120.237998,489.206 119.821002,489.319999 119.467,489.548 C119.112998,489.776001 118.912,490.069998 118.864,490.43 C118.744,491.318004 119.229995,491.893999 120.322,492.158 L121.528,492.446 C122.908007,492.782002 123.598,493.555994 123.598,494.768 C123.598,495.488004 123.325003,496.069998 122.779,496.514 C122.232997,496.958002 121.522004,497.18 120.646,497.18 C119.913996,497.18 119.263003,496.973002 118.693,496.559 C118.122997,496.144998 117.790001,495.578004 117.694,494.858 L118.45,494.858 C118.798002,495.878005 119.547994,496.388 120.7,496.388 C121.336003,496.388 121.842998,496.241001 122.221,495.947 C122.599002,495.652999 122.788,495.260002 122.788,494.768 C122.788,493.975996 122.308005,493.466001 121.348,493.238 L120.124,492.95 C119.463997,492.793999 118.933002,492.527002 118.531,492.149 C118.128998,491.770998 117.97,491.162004 118.054,490.322 C118.138001,489.757997 118.431998,489.299002 118.936,488.945 C119.440003,488.590998 120.033997,488.414 120.718,488.414 Z M132.184,490.088 C131.583997,489.511997 130.828005,489.224 129.916,489.224 C129.003996,489.224 128.230003,489.511997 127.594,490.088 C126.957997,490.664003 126.598001,491.431995 126.514,492.392 L133.21,492.392 C133.126,491.419995 132.784003,490.652003 132.184,490.088 Z M134.038,492.77 C134.038,492.938001 134.032,493.064 134.02,493.148 L126.514,493.148 C126.586,494.108005 126.942997,494.884997 127.585,495.479 C128.227003,496.073003 129.003996,496.37 129.916,496.37 C130.540003,496.37 131.109998,496.229001 131.626,495.947 C132.142003,495.664999 132.549999,495.272003 132.85,494.768 L133.624,495.038 C133.263998,495.710003 132.757003,496.234998 132.103,496.613 C131.448997,496.991002 130.720004,497.18 129.916,497.18 C128.715994,497.18 127.711004,496.772004 126.901,495.956 C126.090996,495.139996 125.686,494.078007 125.686,492.77 C125.686,491.473994 126.090996,490.424004 126.901,489.62 C127.711004,488.815996 128.715994,488.414 129.916,488.414 C131.128006,488.414 132.117996,488.812996 132.886,489.611 C133.654004,490.409004 134.038,491.461993 134.038,492.77 Z M137.44,497 L136.612,497 L136.612,488.594 L137.44,488.594 L137.44,490.772 C137.632001,490.039996 137.961998,489.464002 138.43,489.044 C138.898002,488.623998 139.485997,488.414 140.194,488.414 C140.674003,488.414 141.087998,488.491999 141.436,488.648 L141.292,489.44 C140.967999,489.307999 140.602002,489.242 140.194,489.242 C139.677998,489.242 139.234002,489.379999 138.862,489.656 C138.489998,489.932001 138.205001,490.300998 138.007,490.763 C137.808999,491.225002 137.665001,491.701998 137.575,492.194 C137.485,492.686002 137.44,493.207997 137.44,493.76 L137.44,497 Z M146.512,496.082 L149.662,488.594 L150.544,488.594 L146.998,497 L146.044,497 L142.516,488.594 L143.398,488.594 L146.512,496.082 Z M153.622,497 L152.812,497 L152.812,488.594 L153.622,488.594 L153.622,497 Z M152.686,485.966 C152.554,485.833999 152.488,485.672001 152.488,485.48 C152.488,485.287999 152.556999,485.129001 152.695,485.003 C152.833001,484.876999 153.003999,484.814 153.208,484.814 C153.412001,484.814 153.58,484.876999 153.712,485.003 C153.844001,485.129001 153.91,485.287999 153.91,485.48 C153.91,485.672001 153.844001,485.830999 153.712,485.957 C153.58,486.083001 153.412001,486.146 153.208,486.146 C153.003999,486.146 152.830001,486.086001 152.686,485.966 Z M163.036,495.56 L163.576,496.172 C162.771996,496.844003 161.812006,497.18 160.696,497.18 C159.471994,497.18 158.437004,496.772004 157.591,495.956 C156.744996,495.139996 156.322,494.078007 156.322,492.77 C156.322,491.473994 156.744996,490.424004 157.591,489.62 C158.437004,488.815996 159.471994,488.414 160.696,488.414 C161.764006,488.414 162.717996,488.743997 163.558,489.404 L163.036,490.016 C162.351997,489.487997 161.572005,489.224 160.696,489.224 C159.699995,489.224 158.857004,489.550997 158.167,490.205 C157.476997,490.859003 157.132,491.713995 157.132,492.77 C157.132,493.838005 157.476997,494.704997 158.167,495.371 C158.857004,496.037003 159.699995,496.37 160.696,496.37 C161.584005,496.37 162.363997,496.100003 163.036,495.56 Z M171.802,490.088 C171.201997,489.511997 170.446005,489.224 169.534,489.224 C168.621996,489.224 167.848003,489.511997 167.212,490.088 C166.575997,490.664003 166.216001,491.431995 166.132,492.392 L172.828,492.392 C172.744,491.419995 172.402003,490.652003 171.802,490.088 Z M173.656,492.77 C173.656,492.938001 173.65,493.064 173.638,493.148 L166.132,493.148 C166.204001,494.108005 166.560997,494.884997 167.203,495.479 C167.845003,496.073003 168.621996,496.37 169.534,496.37 C170.158003,496.37 170.727998,496.229001 171.244,495.947 C171.760003,495.664999 172.167999,495.272003 172.468,494.768 L173.242,495.038 C172.881998,495.710003 172.375003,496.234998 171.721,496.613 C171.066997,496.991002 170.338004,497.18 169.534,497.18 C168.333994,497.18 167.329004,496.772004 166.519,495.956 C165.708996,495.139996 165.304,494.078007 165.304,492.77 C165.304,491.473994 165.708996,490.424004 166.519,489.62 C167.329004,488.815996 168.333994,488.414 169.534,488.414 C170.746006,488.414 171.735996,488.812996 172.504,489.611 C173.272004,490.409004 173.656,491.461993 173.656,492.77 Z M178.552,488.414 C179.248004,488.414 179.832998,488.596998 180.307,488.963 C180.781003,489.329002 181.06,489.847997 181.144,490.52 L180.334,490.52 C180.262,490.123998 180.064002,489.806001 179.74,489.566 C179.415999,489.325999 179.020003,489.206 178.552,489.206 C178.071998,489.206 177.655002,489.319999 177.301,489.548 C176.946998,489.776001 176.746,490.069998 176.698,490.43 C176.578,491.318004 177.063995,491.893999 178.156,492.158 L179.362,492.446 C180.742007,492.782002 181.432,493.555994 181.432,494.768 C181.432,495.488004 181.159003,496.069998 180.613,496.514 C180.066997,496.958002 179.356005,497.18 178.48,497.18 C177.747997,497.18 177.097003,496.973002 176.527,496.559 C175.956997,496.144998 175.624001,495.578004 175.528,494.858 L176.284,494.858 C176.632002,495.878005 177.381994,496.388 178.534,496.388 C179.170003,496.388 179.676998,496.241001 180.055,495.947 C180.433002,495.652999 180.622,495.260002 180.622,494.768 C180.622,493.975996 180.142005,493.466001 179.182,493.238 L177.958,492.95 C177.297997,492.793999 176.767002,492.527002 176.365,492.149 C175.962998,491.770998 175.804,491.162004 175.888,490.322 C175.972001,489.757997 176.265998,489.299002 176.77,488.945 C177.274003,488.590998 177.867997,488.414 178.552,488.414 Z" id="amazon-web-services"></path>
        </g>
    </g>
</svg>