<?xml version="1.0" encoding="UTF-8"?>
<svg width="57px" height="15px" viewBox="0 0 57 15" version="1.1" xmlns="http://www.w3.org/2000/svg" xmlns:xlink="http://www.w3.org/1999/xlink">
    <!-- Generator: Sketch 48.1 (47250) - http://www.bohemiancoding.com/sketch -->
    <title>docker</title>
    <desc>Created with Sketch.</desc>
    <defs></defs>
    <g id="Desktop-HD-Copy-2" stroke="none" stroke-width="1" fill="none" fill-rule="evenodd" transform="translate(-218.000000, -517.000000)">
        <g id="Group-2" transform="translate(217.000000, 162.000000)" fill="#E2E8EB">
            <path d="M9.82,369 L9.82,367.182 C9.48399832,367.794003 8.99200324,368.279998 8.344,368.64 C7.69599676,369.000002 7.00000372,369.18 6.256,369.18 C5.04399394,369.18 4.0180042,368.760004 3.178,367.92 C2.3379958,367.079996 1.918,366.036006 1.918,364.788 C1.918,363.539994 2.3379958,362.499004 3.178,361.665 C4.0180042,360.830996 5.04399394,360.414 6.256,360.414 C7.01200378,360.414 7.71099679,360.590998 8.353,360.945 C8.99500321,361.299002 9.48399832,361.781997 9.82,362.394 L9.82,355.806 L10.648,355.806 L10.648,369 L9.82,369 Z M3.754,362.268 C3.08199664,362.940003 2.746,363.779995 2.746,364.788 C2.746,365.796005 3.08799658,366.641997 3.772,367.326 C4.45600342,368.010003 5.28399514,368.352 6.256,368.352 C7.24000492,368.352 8.07699655,368.025003 8.767,367.371 C9.45700345,366.716997 9.80799994,365.886005 9.82,364.878 C9.82,363.821995 9.47500345,362.952003 8.785,362.268 C8.09499655,361.583997 7.25200498,361.242 6.256,361.242 C5.27199508,361.242 4.43800342,361.583997 3.754,362.268 Z M15.184,367.38 C15.8800035,368.040003 16.731995,368.37 17.74,368.37 C18.7480051,368.37 19.5969966,368.037003 20.287,367.371 C20.9770035,366.704997 21.322,365.838005 21.322,364.77 C21.322,363.713995 20.9770035,362.859003 20.287,362.205 C19.5969966,361.550997 18.7480051,361.224 17.74,361.224 C16.731995,361.224 15.8830035,361.550997 15.193,362.205 C14.5029966,362.859003 14.158,363.713995 14.158,364.77 C14.158,365.838005 14.4999966,366.707997 15.184,367.38 Z M20.854,367.956 C20.0139958,368.772004 18.9760062,369.18 17.74,369.18 C16.5039938,369.18 15.4630042,368.772004 14.617,367.956 C13.7709958,367.139996 13.348,366.078007 13.348,364.77 C13.348,363.473994 13.7709958,362.424004 14.617,361.62 C15.4630042,360.815996 16.5039938,360.414 17.74,360.414 C18.9760062,360.414 20.0169958,360.815996 20.863,361.62 C21.7090042,362.424004 22.132,363.473994 22.132,364.77 C22.132,366.078007 21.7060043,367.139996 20.854,367.956 Z M30.952,367.56 L31.492,368.172 C30.687996,368.844003 29.7280056,369.18 28.612,369.18 C27.3879939,369.18 26.3530043,368.772004 25.507,367.956 C24.6609958,367.139996 24.238,366.078007 24.238,364.77 C24.238,363.473994 24.6609958,362.424004 25.507,361.62 C26.3530043,360.815996 27.3879939,360.414 28.612,360.414 C29.6800054,360.414 30.6339958,360.743997 31.474,361.404 L30.952,362.016 C30.2679966,361.487997 29.4880044,361.224 28.612,361.224 C27.615995,361.224 26.7730035,361.550997 26.083,362.205 C25.3929966,362.859003 25.048,363.713995 25.048,364.77 C25.048,365.838005 25.3929966,366.704997 26.083,367.371 C26.7730035,368.037003 27.615995,368.37 28.612,368.37 C29.5000045,368.37 30.2799967,368.100003 30.952,367.56 Z M35.866,364.248 L40.636,369 L39.502,369 L34.894,364.428 L34.894,369 L34.084,369 L34.084,355.806 L34.894,355.806 L34.894,364.068 L38.314,360.594 L39.484,360.594 L35.866,364.248 Z M47.926,362.088 C47.325997,361.511997 46.5700046,361.224 45.658,361.224 C44.7459955,361.224 43.9720032,361.511997 43.336,362.088 C42.6999969,362.664003 42.3400005,363.431995 42.256,364.392 L48.952,364.392 C48.8679996,363.419995 48.526003,362.652003 47.926,362.088 Z M49.78,364.77 C49.78,364.938001 49.7740001,365.064 49.762,365.148 L42.256,365.148 C42.3280004,366.108005 42.6849968,366.884997 43.327,367.479 C43.9690033,368.073003 44.7459955,368.37 45.658,368.37 C46.2820032,368.37 46.8519975,368.229001 47.368,367.947 C47.8840026,367.664999 48.2919985,367.272003 48.592,366.768 L49.366,367.038 C49.0059982,367.710003 48.4990033,368.234998 47.845,368.613 C47.1909968,368.991002 46.4620041,369.18 45.658,369.18 C44.457994,369.18 43.4530041,368.772004 42.643,367.956 C41.832996,367.139996 41.428,366.078007 41.428,364.77 C41.428,363.473994 41.832996,362.424004 42.643,361.62 C43.4530041,360.815996 44.457994,360.414 45.658,360.414 C46.8700061,360.414 47.8599962,360.812996 48.628,361.611 C49.3960039,362.409004 49.78,363.461993 49.78,364.77 Z M53.1820001,369 L52.3540001,369 L52.3540001,360.594 L53.1820001,360.594 L53.1820001,362.772 C53.374001,362.039996 53.7039977,361.464002 54.1720001,361.044 C54.6400024,360.623998 55.2279965,360.414 55.9360001,360.414 C56.4160025,360.414 56.8299983,360.491999 57.1780001,360.648 L57.0340001,361.44 C56.7099984,361.307999 56.3440021,361.242 55.9360001,361.242 C55.4199975,361.242 54.9760019,361.379999 54.6040001,361.656 C54.2319982,361.932001 53.947001,362.300998 53.7490001,362.763 C53.5509991,363.225002 53.4070005,363.701998 53.3170001,364.194 C53.2269996,364.686002 53.1820001,365.207997 53.1820001,365.76 L53.1820001,369 Z" id="docker"></path>
        </g>
    </g>
</svg>