<?xml version="1.0" encoding="UTF-8"?>
<svg width="66px" height="15px" viewBox="0 0 66 15" version="1.1" xmlns="http://www.w3.org/2000/svg" xmlns:xlink="http://www.w3.org/1999/xlink">
    <!-- Generator: Sketch 48.1 (47250) - http://www.bohemiancoding.com/sketch -->
    <title>electron</title>
    <desc>Created with Sketch.</desc>
    <defs></defs>
    <g id="Desktop-HD-Copy-2" stroke="none" stroke-width="1" fill="none" fill-rule="evenodd" transform="translate(-218.000000, -341.000000)">
        <g id="Group-2" transform="translate(217.000000, 162.000000)" fill="#E2E8EB">
            <path d="M8.434,186.088 C7.833997,185.511997 7.07800456,185.224 6.166,185.224 C5.25399544,185.224 4.48000318,185.511997 3.844,186.088 C3.20799682,186.664003 2.84800042,187.431995 2.764,188.392 L9.46,188.392 C9.37599958,187.419995 9.034003,186.652003 8.434,186.088 Z M10.288,188.77 C10.288,188.938001 10.2820001,189.064 10.27,189.148 L2.764,189.148 C2.83600036,190.108005 3.19299679,190.884997 3.835,191.479 C4.47700321,192.073003 5.25399544,192.37 6.166,192.37 C6.79000312,192.37 7.35999742,192.229001 7.876,191.947 C8.39200258,191.664999 8.7999985,191.272003 9.1,190.768 L9.874,191.038 C9.5139982,191.710003 9.00700327,192.234998 8.353,192.613 C7.69899673,192.991002 6.97000402,193.18 6.166,193.18 C4.965994,193.18 3.96100405,192.772004 3.151,191.956 C2.34099595,191.139996 1.936,190.078007 1.936,188.77 C1.936,187.473994 2.34099595,186.424004 3.151,185.62 C3.96100405,184.815996 4.965994,184.414 6.166,184.414 C7.37800606,184.414 8.36799616,184.812996 9.136,185.611 C9.90400384,186.409004 10.288,187.461993 10.288,188.77 Z M13.672,193 L12.862,193 L12.862,179.806 L13.672,179.806 L13.672,193 Z M22.888,186.088 C22.287997,185.511997 21.5320046,185.224 20.62,185.224 C19.7079955,185.224 18.9340032,185.511997 18.298,186.088 C17.6619968,186.664003 17.3020004,187.431995 17.218,188.392 L23.914,188.392 C23.8299996,187.419995 23.488003,186.652003 22.888,186.088 Z M24.742,188.77 C24.742,188.938001 24.7360001,189.064 24.724,189.148 L17.218,189.148 C17.2900004,190.108005 17.6469968,190.884997 18.289,191.479 C18.9310032,192.073003 19.7079955,192.37 20.62,192.37 C21.2440031,192.37 21.8139974,192.229001 22.33,191.947 C22.8460026,191.664999 23.2539985,191.272003 23.554,190.768 L24.328,191.038 C23.9679982,191.710003 23.4610033,192.234998 22.807,192.613 C22.1529968,192.991002 21.424004,193.18 20.62,193.18 C19.419994,193.18 18.4150041,192.772004 17.605,191.956 C16.794996,191.139996 16.39,190.078007 16.39,188.77 C16.39,187.473994 16.794996,186.424004 17.605,185.62 C18.4150041,184.815996 19.419994,184.414 20.62,184.414 C21.8320061,184.414 22.8219962,184.812996 23.59,185.611 C24.3580039,186.409004 24.742,187.461993 24.742,188.77 Z M33.436,191.56 L33.976,192.172 C33.171996,192.844003 32.2120056,193.18 31.096,193.18 C29.8719939,193.18 28.8370043,192.772004 27.991,191.956 C27.1449958,191.139996 26.722,190.078007 26.722,188.77 C26.722,187.473994 27.1449958,186.424004 27.991,185.62 C28.8370043,184.815996 29.8719939,184.414 31.096,184.414 C32.1640054,184.414 33.1179958,184.743997 33.958,185.404 L33.436,186.016 C32.7519966,185.487997 31.9720044,185.224 31.096,185.224 C30.0999951,185.224 29.2570035,185.550997 28.567,186.205 C27.8769966,186.859003 27.532,187.713995 27.532,188.77 C27.532,189.838005 27.8769966,190.704997 28.567,191.371 C29.2570035,192.037003 30.0999951,192.37 31.096,192.37 C31.9840045,192.37 32.7639967,192.100003 33.436,191.56 Z M39.844,184.594 L39.844,185.332 L37.882,185.332 L37.882,193 L37.072,193 L37.072,185.332 L35.542,185.332 L35.542,184.594 L37.072,184.594 L37.072,181.21 L37.882,181.21 L37.882,184.594 L39.844,184.594 Z M42.9400001,193 L42.1120001,193 L42.1120001,184.594 L42.9400001,184.594 L42.9400001,186.772 C43.132001,186.039996 43.4619977,185.464002 43.9300001,185.044 C44.3980024,184.623998 44.9859965,184.414 45.6940001,184.414 C46.1740025,184.414 46.5879983,184.491999 46.9360001,184.648 L46.7920001,185.44 C46.4679984,185.307999 46.1020021,185.242 45.6940001,185.242 C45.1779975,185.242 44.7340019,185.379999 44.3620001,185.656 C43.9899982,185.932001 43.705001,186.300998 43.5070001,186.763 C43.3089991,187.225002 43.1650005,187.701998 43.0750001,188.194 C42.9849996,188.686002 42.9400001,189.207997 42.9400001,189.76 L42.9400001,193 Z M49.8700001,191.38 C50.5660035,192.040003 51.417995,192.37 52.4260001,192.37 C53.4340051,192.37 54.2829966,192.037003 54.9730001,191.371 C55.6630035,190.704997 56.0080001,189.838005 56.0080001,188.77 C56.0080001,187.713995 55.6630035,186.859003 54.9730001,186.205 C54.2829966,185.550997 53.4340051,185.224 52.4260001,185.224 C51.417995,185.224 50.5690035,185.550997 49.8790001,186.205 C49.1889966,186.859003 48.8440001,187.713995 48.8440001,188.77 C48.8440001,189.838005 49.1859966,190.707997 49.8700001,191.38 Z M55.5400001,191.956 C54.6999959,192.772004 53.6620062,193.18 52.4260001,193.18 C51.1899939,193.18 50.1490043,192.772004 49.3030001,191.956 C48.4569958,191.139996 48.0340001,190.078007 48.0340001,188.77 C48.0340001,187.473994 48.4569958,186.424004 49.3030001,185.62 C50.1490043,184.815996 51.1899939,184.414 52.4260001,184.414 C53.6620062,184.414 54.7029958,184.815996 55.5490001,185.62 C56.3950043,186.424004 56.8180001,187.473994 56.8180001,188.77 C56.8180001,190.078007 56.3920043,191.139996 55.5400001,191.956 Z M59.5180001,193 L59.5180001,184.594 L60.3460001,184.594 L60.3460001,186.25 C60.5740012,185.625997 60.9669973,185.164001 61.5250001,184.864 C62.0830029,184.563998 62.6799969,184.414 63.3160001,184.414 C64.3240051,184.414 65.136997,184.743997 65.7550001,185.404 C66.3730032,186.064003 66.6760001,186.951994 66.6640001,188.068 L66.6640001,193 L65.8540001,193 L65.8540001,188.068 C65.8540001,187.191996 65.6200024,186.499003 65.1520001,185.989 C64.6839977,185.478997 64.0720039,185.224 63.3160001,185.224 C62.4879959,185.224 61.7890029,185.472998 61.2190001,185.971 C60.6489972,186.469002 60.3580001,187.239995 60.3460001,188.284 L60.3460001,193 L59.5180001,193 Z" id="electron"></path>
        </g>
    </g>
</svg>