<?xml version="1.0" encoding="UTF-8"?>
<svg width="79px" height="18px" viewBox="0 0 79 18" version="1.1" xmlns="http://www.w3.org/2000/svg" xmlns:xlink="http://www.w3.org/1999/xlink">
    <!-- Generator: Sketch 48.1 (47250) - http://www.bohemiancoding.com/sketch -->
    <title>express.js</title>
    <desc>Created with Sketch.</desc>
    <defs></defs>
    <g id="Desktop-HD-Copy-2" stroke="none" stroke-width="1" fill="none" fill-rule="evenodd" transform="translate(-218.000000, -211.000000)">
        <g id="Group-2" transform="translate(217.000000, 162.000000)" fill="#E2E8EB">
            <path d="M8.434,55.088 C7.833997,54.5119971 7.07800456,54.224 6.166,54.224 C5.25399544,54.224 4.48000318,54.5119971 3.844,55.088 C3.20799682,55.6640029 2.84800042,56.4319952 2.764,57.392 L9.46,57.392 C9.37599958,56.4199951 9.034003,55.6520028 8.434,55.088 Z M10.288,57.77 C10.288,57.9380008 10.2820001,58.0639996 10.27,58.148 L2.764,58.148 C2.83600036,59.1080048 3.19299679,59.884997 3.835,60.479 C4.47700321,61.073003 5.25399544,61.37 6.166,61.37 C6.79000312,61.37 7.35999742,61.2290014 7.876,60.947 C8.39200258,60.6649986 8.7999985,60.2720025 9.1,59.768 L9.874,60.038 C9.5139982,60.7100034 9.00700327,61.2349981 8.353,61.613 C7.69899673,61.9910019 6.97000402,62.18 6.166,62.18 C4.965994,62.18 3.96100405,61.7720041 3.151,60.956 C2.34099595,60.1399959 1.936,59.0780065 1.936,57.77 C1.936,56.4739935 2.34099595,55.424004 3.151,54.62 C3.96100405,53.815996 4.965994,53.414 6.166,53.414 C7.37800606,53.414 8.36799616,53.812996 9.136,54.611 C9.90400384,55.409004 10.288,56.4619935 10.288,57.77 Z M17.524,53.594 L18.55,53.594 L15.832,57.356 L19.18,62 L18.172,62 L15.328,58.058 L12.466,62 L11.476,62 L14.824,57.356 L12.106,53.594 L13.132,53.594 L15.328,56.654 L17.524,53.594 Z M22.096,53.594 L22.096,55.412 C22.4320017,54.7999969 22.9239968,54.3140018 23.572,53.954 C24.2200033,53.5939982 24.9159963,53.414 25.66,53.414 C26.8720061,53.414 27.8979958,53.8339958 28.738,54.674 C29.5780042,55.5140042 29.998,56.5639937 29.998,57.824 C29.998,59.0720062 29.5780042,60.1099959 28.738,60.938 C27.8979958,61.7660041 26.8720061,62.18 25.66,62.18 C24.9039962,62.18 24.2050032,62.0060017 23.563,61.658 C22.9209968,61.3099983 22.4320017,60.8300031 22.096,60.218 L22.096,66.068 L21.268,66.068 L21.268,53.594 L22.096,53.594 Z M28.144,60.344 C28.8280034,59.6719966 29.17,58.832005 29.17,57.824 C29.17,56.815995 28.8280034,55.9670034 28.144,55.277 C27.4599966,54.5869965 26.6320049,54.242 25.66,54.242 C24.6759951,54.242 23.8390035,54.5689967 23.149,55.223 C22.4589966,55.8770033 22.1080001,56.7139949 22.096,57.734 C22.096,58.7780052 22.4439965,59.6419966 23.14,60.326 C23.8360035,61.0100034 24.6759951,61.352 25.66,61.352 C26.6440049,61.352 27.4719967,61.0160034 28.144,60.344 Z M33.526,62 L32.698,62 L32.698,53.594 L33.526,53.594 L33.526,55.772 C33.718001,55.0399963 34.0479977,54.4640021 34.516,54.044 C34.9840024,53.6239979 35.5719965,53.414 36.28,53.414 C36.7600024,53.414 37.1739983,53.4919992 37.522,53.648 L37.378,54.44 C37.0539984,54.3079993 36.6880021,54.242 36.28,54.242 C35.7639975,54.242 35.3200019,54.3799986 34.948,54.656 C34.5759982,54.9320014 34.291001,55.3009977 34.093,55.763 C33.894999,56.2250023 33.7510005,56.7019975 33.661,57.194 C33.5709996,57.6860025 33.526,58.2079972 33.526,58.76 L33.526,62 Z M45.136,55.088 C44.535997,54.5119971 43.7800046,54.224 42.868,54.224 C41.9559955,54.224 41.1820032,54.5119971 40.546,55.088 C39.9099969,55.6640029 39.5500005,56.4319952 39.466,57.392 L46.162,57.392 C46.0779996,56.4199951 45.736003,55.6520028 45.136,55.088 Z M46.99,57.77 C46.99,57.9380008 46.9840001,58.0639996 46.972,58.148 L39.466,58.148 C39.5380004,59.1080048 39.8949968,59.884997 40.537,60.479 C41.1790033,61.073003 41.9559955,61.37 42.868,61.37 C43.4920032,61.37 44.0619975,61.2290014 44.578,60.947 C45.0940026,60.6649986 45.5019985,60.2720025 45.802,59.768 L46.576,60.038 C46.2159982,60.7100034 45.7090033,61.2349981 45.055,61.613 C44.4009968,61.9910019 43.6720041,62.18 42.868,62.18 C41.667994,62.18 40.6630041,61.7720041 39.853,60.956 C39.042996,60.1399959 38.638,59.0780065 38.638,57.77 C38.638,56.4739935 39.042996,55.424004 39.853,54.62 C40.6630041,53.815996 41.667994,53.414 42.868,53.414 C44.0800061,53.414 45.0699962,53.812996 45.838,54.611 C46.6060039,55.409004 46.99,56.4619935 46.99,57.77 Z M51.8860001,53.414 C52.5820035,53.414 53.1669977,53.5969982 53.6410001,53.963 C54.1150024,54.3290018 54.3939996,54.8479966 54.4780001,55.52 L53.6680001,55.52 C53.5959997,55.123998 53.3980017,54.8060012 53.0740001,54.566 C52.7499984,54.3259988 52.3540024,54.206 51.8860001,54.206 C51.4059977,54.206 50.9890018,54.3199989 50.6350001,54.548 C50.2809983,54.7760011 50.0800003,55.0699982 50.0320001,55.43 C49.9119995,56.3180044 50.3979946,56.8939987 51.4900001,57.158 L52.6960001,57.446 C54.076007,57.7820017 54.7660001,58.5559939 54.7660001,59.768 C54.7660001,60.4880036 54.4930028,61.0699978 53.9470001,61.514 C53.4009973,61.9580022 52.6900044,62.18 51.8140001,62.18 C51.0819964,62.18 50.4310029,61.9730021 49.8610001,61.559 C49.2909972,61.1449979 48.9580005,60.5780036 48.8620001,59.858 L49.6180001,59.858 C49.9660018,60.8780051 50.7159943,61.388 51.8680001,61.388 C52.5040032,61.388 53.0109982,61.2410015 53.3890001,60.947 C53.7670019,60.6529985 53.9560001,60.2600025 53.9560001,59.768 C53.9560001,58.975996 53.4760049,58.4660011 52.5160001,58.238 L51.2920001,57.95 C50.6319968,57.7939992 50.1010021,57.5270019 49.6990001,57.149 C49.296998,56.7709981 49.1379996,56.1620042 49.2220001,55.322 C49.3060005,54.7579972 49.5999975,54.2990018 50.1040001,53.945 C50.6080026,53.5909982 51.2019966,53.414 51.8860001,53.414 Z M59.7520001,53.414 C60.4480035,53.414 61.0329977,53.5969982 61.5070001,53.963 C61.9810024,54.3290018 62.2599996,54.8479966 62.3440001,55.52 L61.5340001,55.52 C61.4619997,55.123998 61.2640017,54.8060012 60.9400001,54.566 C60.6159984,54.3259988 60.2200024,54.206 59.7520001,54.206 C59.2719977,54.206 58.8550018,54.3199989 58.5010001,54.548 C58.1469983,54.7760011 57.9460003,55.0699982 57.8980001,55.43 C57.7779995,56.3180044 58.2639946,56.8939987 59.3560001,57.158 L60.5620001,57.446 C61.942007,57.7820017 62.6320001,58.5559939 62.6320001,59.768 C62.6320001,60.4880036 62.3590028,61.0699978 61.8130001,61.514 C61.2669973,61.9580022 60.5560044,62.18 59.6800001,62.18 C58.9479964,62.18 58.2970029,61.9730021 57.7270001,61.559 C57.1569972,61.1449979 56.8240005,60.5780036 56.7280001,59.858 L57.4840001,59.858 C57.8320018,60.8780051 58.5819943,61.388 59.7340001,61.388 C60.3700032,61.388 60.8769982,61.2410015 61.2550001,60.947 C61.633002,60.6529985 61.8220001,60.2600025 61.8220001,59.768 C61.8220001,58.975996 61.3420049,58.4660011 60.3820001,58.238 L59.1580001,57.95 C58.4979968,57.7939992 57.9670021,57.5270019 57.5650001,57.149 C57.1629981,56.7709981 57.0039996,56.1620042 57.0880001,55.322 C57.1720005,54.7579972 57.4659975,54.2990018 57.9700001,53.945 C58.4740026,53.5909982 59.0679966,53.414 59.7520001,53.414 Z M65.1340001,61.496 C65.1340001,61.291999 65.2059994,61.1240007 65.3500001,60.992 C65.4940008,60.8599993 65.6679991,60.794 65.8720001,60.794 C66.0880012,60.794 66.2679994,60.8599993 66.4120001,60.992 C66.5560008,61.1240007 66.6280001,61.291999 66.6280001,61.496 C66.6280001,61.688001 66.5530008,61.8499993 66.4030001,61.982 C66.2529993,62.1140007 66.0760011,62.18 65.8720001,62.18 C65.6679991,62.18 65.4940008,62.1140007 65.3500001,61.982 C65.2059994,61.8499993 65.1340001,61.688001 65.1340001,61.496 Z M70.5700001,53.594 L70.5700001,62.522 C70.5700001,64.8860118 69.6160096,66.068 67.7080001,66.068 L66.9700001,66.068 L66.9700001,65.276 L67.7080001,65.276 C69.0760069,65.276 69.7600001,64.3580092 69.7600001,62.522 L69.7600001,53.594 L70.5700001,53.594 Z M69.6520001,50.966 C69.5199994,50.8339993 69.4540001,50.672001 69.4540001,50.48 C69.4540001,50.287999 69.5229994,50.1290006 69.6610001,50.003 C69.7990008,49.8769994 69.9699991,49.814 70.1740001,49.814 C70.3780011,49.814 70.5459994,49.8769994 70.6780001,50.003 C70.8100007,50.1290006 70.8760001,50.287999 70.8760001,50.48 C70.8760001,50.672001 70.8100007,50.8309994 70.6780001,50.957 C70.5459994,51.0830006 70.3780011,51.146 70.1740001,51.146 C69.9699991,51.146 69.7960008,51.0860006 69.6520001,50.966 Z M76.1860001,53.414 C76.8820036,53.414 77.4669977,53.5969982 77.9410001,53.963 C78.4150025,54.3290018 78.6939997,54.8479966 78.7780001,55.52 L77.9680001,55.52 C77.8959997,55.123998 77.6980017,54.8060012 77.3740001,54.566 C77.0499985,54.3259988 76.6540024,54.206 76.1860001,54.206 C75.7059977,54.206 75.2890019,54.3199989 74.9350001,54.548 C74.5809983,54.7760011 74.3800003,55.0699982 74.3320001,55.43 C74.2119995,56.3180044 74.6979946,56.8939987 75.7900001,57.158 L76.9960001,57.446 C78.376007,57.7820017 79.0660001,58.5559939 79.0660001,59.768 C79.0660001,60.4880036 78.7930028,61.0699978 78.2470001,61.514 C77.7009974,61.9580022 76.9900045,62.18 76.1140001,62.18 C75.3819964,62.18 74.7310029,61.9730021 74.1610001,61.559 C73.5909972,61.1449979 73.2580006,60.5780036 73.1620001,59.858 L73.9180001,59.858 C74.2660018,60.8780051 75.0159943,61.388 76.1680001,61.388 C76.8040033,61.388 77.3109982,61.2410015 77.6890001,60.947 C78.067002,60.6529985 78.2560001,60.2600025 78.2560001,59.768 C78.2560001,58.975996 77.7760049,58.4660011 76.8160001,58.238 L75.5920001,57.95 C74.9319968,57.7939992 74.4010021,57.5270019 73.9990001,57.149 C73.5969981,56.7709981 73.4379997,56.1620042 73.5220001,55.322 C73.6060005,54.7579972 73.8999976,54.2990018 74.4040001,53.945 C74.9080026,53.5909982 75.5019967,53.414 76.1860001,53.414 Z" id="express.js"></path>
        </g>
    </g>
</svg>