<?xml version="1.0" encoding="UTF-8"?>
<svg width="187px" height="19px" viewBox="0 0 187 19" version="1.1" xmlns="http://www.w3.org/2000/svg" xmlns:xlink="http://www.w3.org/1999/xlink">
    <!-- Generator: Sketch 48.1 (47250) - http://www.bohemiancoding.com/sketch -->
    <title>google cloud platfor</title>
    <desc>Created with Sketch.</desc>
    <defs></defs>
    <g id="Desktop-HD-Copy-2" stroke="none" stroke-width="1" fill="none" fill-rule="evenodd" transform="translate(-218.000000, -599.000000)">
        <g id="Group-2" transform="translate(217.000000, 162.000000)" fill="#E2E8EB">
            <path d="M3.772,444.268 C3.08799658,444.952003 2.746,445.797995 2.746,446.806 C2.746,447.814005 3.08499661,448.656997 3.763,449.335 C4.44100339,450.013003 5.27199508,450.352 6.256,450.352 C7.22800486,450.352 8.06499649,450.019003 8.767,449.353 C9.46900351,448.686997 9.82,447.838005 9.82,446.806 C9.82,445.773995 9.47500345,444.922003 8.785,444.25 C8.09499655,443.577997 7.25200498,443.242 6.256,443.242 C5.28399514,443.242 4.45600342,443.583997 3.772,444.268 Z M2.62,453.286 L3.304,452.836 C3.98800342,453.856005 4.929994,454.366 6.13,454.366 C7.30600588,454.366 8.21499679,454.018003 8.857,453.322 C9.49900321,452.625997 9.82,451.438008 9.82,449.758 L9.82,449.146 C9.49599838,449.758003 9.01000324,450.249998 8.362,450.622 C7.71399676,450.994002 7.01200378,451.18 6.256,451.18 C5.04399394,451.18 4.0180042,450.763004 3.178,449.929 C2.3379958,449.094996 1.918,448.054006 1.918,446.806 C1.918,445.557994 2.3379958,444.514004 3.178,443.674 C4.0180042,442.833996 5.04399394,442.414 6.256,442.414 C7.00000372,442.414 7.69599676,442.593998 8.344,442.954 C8.99200324,443.314002 9.48399832,443.799997 9.82,444.412 L9.82,442.594 L10.648,442.594 L10.648,449.74 C10.648,451.72001 10.2550039,453.123996 9.469,453.952 C8.68299607,454.780004 7.5700072,455.194 6.13,455.194 C4.6299925,455.194 3.4600042,454.558006 2.62,453.286 Z M15.184,449.38 C15.8800035,450.040003 16.731995,450.37 17.74,450.37 C18.7480051,450.37 19.5969966,450.037003 20.287,449.371 C20.9770035,448.704997 21.322,447.838005 21.322,446.77 C21.322,445.713995 20.9770035,444.859003 20.287,444.205 C19.5969966,443.550997 18.7480051,443.224 17.74,443.224 C16.731995,443.224 15.8830035,443.550997 15.193,444.205 C14.5029966,444.859003 14.158,445.713995 14.158,446.77 C14.158,447.838005 14.4999966,448.707997 15.184,449.38 Z M20.854,449.956 C20.0139958,450.772004 18.9760062,451.18 17.74,451.18 C16.5039938,451.18 15.4630042,450.772004 14.617,449.956 C13.7709958,449.139996 13.348,448.078007 13.348,446.77 C13.348,445.473994 13.7709958,444.424004 14.617,443.62 C15.4630042,442.815996 16.5039938,442.414 17.74,442.414 C18.9760062,442.414 20.0169958,442.815996 20.863,443.62 C21.7090042,444.424004 22.132,445.473994 22.132,446.77 C22.132,448.078007 21.7060043,449.139996 20.854,449.956 Z M26.074,449.38 C26.7700035,450.040003 27.621995,450.37 28.63,450.37 C29.6380051,450.37 30.4869966,450.037003 31.177,449.371 C31.8670035,448.704997 32.212,447.838005 32.212,446.77 C32.212,445.713995 31.8670035,444.859003 31.177,444.205 C30.4869966,443.550997 29.6380051,443.224 28.63,443.224 C27.621995,443.224 26.7730035,443.550997 26.083,444.205 C25.3929966,444.859003 25.048,445.713995 25.048,446.77 C25.048,447.838005 25.3899966,448.707997 26.074,449.38 Z M31.744,449.956 C30.9039958,450.772004 29.8660062,451.18 28.63,451.18 C27.3939938,451.18 26.3530043,450.772004 25.507,449.956 C24.6609958,449.139996 24.238,448.078007 24.238,446.77 C24.238,445.473994 24.6609958,444.424004 25.507,443.62 C26.3530043,442.815996 27.3939938,442.414 28.63,442.414 C29.8660062,442.414 30.9069958,442.815996 31.753,443.62 C32.5990043,444.424004 33.022,445.473994 33.022,446.77 C33.022,448.078007 32.5960043,449.139996 31.744,449.956 Z M36.982,444.268 C36.2979966,444.952003 35.956,445.797995 35.956,446.806 C35.956,447.814005 36.2949966,448.656997 36.973,449.335 C37.6510034,450.013003 38.4819951,450.352 39.466,450.352 C40.4380049,450.352 41.2749965,450.019003 41.977,449.353 C42.6790035,448.686997 43.03,447.838005 43.03,446.806 C43.03,445.773995 42.6850035,444.922003 41.995,444.25 C41.3049966,443.577997 40.462005,443.242 39.466,443.242 C38.4939952,443.242 37.6660035,443.583997 36.982,444.268 Z M35.83,453.286 L36.514,452.836 C37.1980035,453.856005 38.139994,454.366 39.34,454.366 C40.5160059,454.366 41.4249968,454.018003 42.067,453.322 C42.7090032,452.625997 43.03,451.438008 43.03,449.758 L43.03,449.146 C42.7059984,449.758003 42.2200033,450.249998 41.572,450.622 C40.9239968,450.994002 40.2220038,451.18 39.466,451.18 C38.253994,451.18 37.2280042,450.763004 36.388,449.929 C35.5479958,449.094996 35.128,448.054006 35.128,446.806 C35.128,445.557994 35.5479958,444.514004 36.388,443.674 C37.2280042,442.833996 38.253994,442.414 39.466,442.414 C40.2100038,442.414 40.9059968,442.593998 41.554,442.954 C42.2020033,443.314002 42.6939984,443.799997 43.03,444.412 L43.03,442.594 L43.858,442.594 L43.858,449.74 C43.858,451.72001 43.465004,453.123996 42.679,453.952 C41.8929961,454.780004 40.7800072,455.194 39.34,455.194 C37.8399925,455.194 36.6700042,454.558006 35.83,453.286 Z M47.962,451 L47.152,451 L47.152,437.806 L47.962,437.806 L47.962,451 Z M57.1780001,444.088 C56.5779971,443.511997 55.8220046,443.224 54.9100001,443.224 C53.9979955,443.224 53.2240032,443.511997 52.5880001,444.088 C51.9519969,444.664003 51.5920005,445.431995 51.5080001,446.392 L58.2040001,446.392 C58.1199996,445.419995 57.7780031,444.652003 57.1780001,444.088 Z M59.0320001,446.77 C59.0320001,446.938001 59.0260001,447.064 59.0140001,447.148 L51.5080001,447.148 C51.5800004,448.108005 51.9369968,448.884997 52.5790001,449.479 C53.2210033,450.073003 53.9979955,450.37 54.9100001,450.37 C55.5340032,450.37 56.1039975,450.229001 56.6200001,449.947 C57.1360026,449.664999 57.5439986,449.272003 57.8440001,448.768 L58.6180001,449.038 C58.2579983,449.710003 57.7510033,450.234998 57.0970001,450.613 C56.4429968,450.991002 55.7140041,451.18 54.9100001,451.18 C53.7099941,451.18 52.7050041,450.772004 51.8950001,449.956 C51.084996,449.139996 50.6800001,448.078007 50.6800001,446.77 C50.6800001,445.473994 51.084996,444.424004 51.8950001,443.62 C52.7050041,442.815996 53.7099941,442.414 54.9100001,442.414 C56.1220061,442.414 57.1119962,442.812996 57.8800001,443.611 C58.6480039,444.409004 59.0320001,445.461993 59.0320001,446.77 Z M72.8560001,449.56 L73.3960001,450.172 C72.5919961,450.844003 71.6320057,451.18 70.5160001,451.18 C69.291994,451.18 68.2570043,450.772004 67.4110001,449.956 C66.5649958,449.139996 66.1420001,448.078007 66.1420001,446.77 C66.1420001,445.473994 66.5649958,444.424004 67.4110001,443.62 C68.2570043,442.815996 69.291994,442.414 70.5160001,442.414 C71.5840054,442.414 72.5379959,442.743997 73.3780001,443.404 L72.8560001,444.016 C72.1719967,443.487997 71.3920045,443.224 70.5160001,443.224 C69.5199951,443.224 68.6770035,443.550997 67.9870001,444.205 C67.2969966,444.859003 66.9520001,445.713995 66.9520001,446.77 C66.9520001,447.838005 67.2969966,448.704997 67.9870001,449.371 C68.6770035,450.037003 69.5199951,450.37 70.5160001,450.37 C71.4040045,450.37 72.1839967,450.100003 72.8560001,449.56 Z M76.7980001,451 L75.9880001,451 L75.9880001,437.806 L76.7980001,437.806 L76.7980001,451 Z M81.3340001,449.38 C82.0300036,450.040003 82.8819951,450.37 83.8900001,450.37 C84.8980051,450.37 85.7469966,450.037003 86.4370001,449.371 C87.1270035,448.704997 87.4720001,447.838005 87.4720001,446.77 C87.4720001,445.713995 87.1270035,444.859003 86.4370001,444.205 C85.7469966,443.550997 84.8980051,443.224 83.8900001,443.224 C82.8819951,443.224 82.0330035,443.550997 81.3430001,444.205 C80.6529966,444.859003 80.3080001,445.713995 80.3080001,446.77 C80.3080001,447.838005 80.6499967,448.707997 81.3340001,449.38 Z M87.0040001,449.956 C86.1639959,450.772004 85.1260063,451.18 83.8900001,451.18 C82.6539939,451.18 81.6130043,450.772004 80.7670001,449.956 C79.9209959,449.139996 79.4980001,448.078007 79.4980001,446.77 C79.4980001,445.473994 79.9209959,444.424004 80.7670001,443.62 C81.6130043,442.815996 82.6539939,442.414 83.8900001,442.414 C85.1260063,442.414 86.1669959,442.815996 87.0130001,443.62 C87.8590043,444.424004 88.2820001,445.473994 88.2820001,446.77 C88.2820001,448.078007 87.8560044,449.139996 87.0040001,449.956 Z M98.0380001,442.594 L98.0380001,451 L97.2100001,451 L97.2100001,449.344 C96.981999,449.968003 96.5890029,450.429999 96.0310001,450.73 C95.4729973,451.030002 94.8760033,451.18 94.2400001,451.18 C93.2319951,451.18 92.4190032,450.853003 91.8010001,450.199 C91.182997,449.544997 90.8740001,448.654006 90.8740001,447.526 L90.8740001,442.594 L91.7020001,442.594 L91.7020001,447.526 C91.7020001,448.402004 91.9359978,449.094997 92.4040001,449.605 C92.8720024,450.115003 93.4839963,450.37 94.2400001,450.37 C95.0680042,450.37 95.7669973,450.121002 96.3370001,449.623 C96.907003,449.124998 97.198,448.354005 97.2100001,447.31 L97.2100001,442.594 L98.0380001,442.594 Z M108.64,451 L108.64,449.182 C108.303998,449.794003 107.812003,450.279998 107.164,450.64 C106.515997,451.000002 105.820004,451.18 105.076,451.18 C103.863994,451.18 102.838004,450.760004 101.998,449.92 C101.157996,449.079996 100.738,448.036006 100.738,446.788 C100.738,445.539994 101.157996,444.499004 101.998,443.665 C102.838004,442.830996 103.863994,442.414 105.076,442.414 C105.832004,442.414 106.530997,442.590998 107.173,442.945 C107.815003,443.299002 108.303998,443.781997 108.64,444.394 L108.64,437.806 L109.468,437.806 L109.468,451 L108.64,451 Z M102.574,444.268 C101.901997,444.940003 101.566,445.779995 101.566,446.788 C101.566,447.796005 101.907997,448.641997 102.592,449.326 C103.276004,450.010003 104.103995,450.352 105.076,450.352 C106.060005,450.352 106.896997,450.025003 107.587,449.371 C108.277004,448.716997 108.628,447.886005 108.64,446.878 C108.64,445.821995 108.295004,444.952003 107.605,444.268 C106.914997,443.583997 106.072005,443.242 105.076,443.242 C104.091995,443.242 103.258004,443.583997 102.574,444.268 Z M118.72,442.594 L118.72,444.412 C119.056002,443.799997 119.547997,443.314002 120.196,442.954 C120.844003,442.593998 121.539996,442.414 122.284,442.414 C123.496006,442.414 124.521996,442.833996 125.362,443.674 C126.202004,444.514004 126.622,445.563994 126.622,446.824 C126.622,448.072006 126.202004,449.109996 125.362,449.938 C124.521996,450.766004 123.496006,451.18 122.284,451.18 C121.527996,451.18 120.829003,451.006002 120.187,450.658 C119.544997,450.309998 119.056002,449.830003 118.72,449.218 L118.72,455.068 L117.892,455.068 L117.892,442.594 L118.72,442.594 Z M124.768,449.344 C125.452004,448.671997 125.794,447.832005 125.794,446.824 C125.794,445.815995 125.452004,444.967003 124.768,444.277 C124.083997,443.586997 123.256005,443.242 122.284,443.242 C121.299995,443.242 120.463004,443.568997 119.773,444.223 C119.082997,444.877003 118.732,445.713995 118.72,446.734 C118.72,447.778005 119.067997,448.641997 119.764,449.326 C120.460004,450.010003 121.299995,450.352 122.284,450.352 C123.268005,450.352 124.095997,450.016003 124.768,449.344 Z M130.132,451 L129.322,451 L129.322,437.806 L130.132,437.806 L130.132,451 Z M140.734,451 L140.734,449.182 C140.397998,449.794003 139.906003,450.279998 139.258,450.64 C138.609997,451.000002 137.914004,451.18 137.17,451.18 C135.957994,451.18 134.932004,450.760004 134.092,449.92 C133.251996,449.079996 132.832,448.036006 132.832,446.788 C132.832,445.539994 133.251996,444.499004 134.092,443.665 C134.932004,442.830996 135.957994,442.414 137.17,442.414 C137.926004,442.414 138.624997,442.590998 139.267,442.945 C139.909003,443.299002 140.397998,443.781997 140.734,444.394 L140.734,442.594 L141.562,442.594 L141.562,451 L140.734,451 Z M134.668,444.268 C133.995997,444.940003 133.66,445.779995 133.66,446.788 C133.66,447.796005 134.001997,448.641997 134.686,449.326 C135.370004,450.010003 136.197995,450.352 137.17,450.352 C138.154005,450.352 138.990997,450.025003 139.681,449.371 C140.371004,448.716997 140.722,447.886005 140.734,446.878 C140.734,445.821995 140.389004,444.952003 139.699,444.268 C139.008997,443.583997 138.166005,443.242 137.17,443.242 C136.185995,443.242 135.352004,443.583997 134.668,444.268 Z M148.132,442.594 L148.132,443.332 L146.17,443.332 L146.17,451 L145.36,451 L145.36,443.332 L143.83,443.332 L143.83,442.594 L145.36,442.594 L145.36,439.21 L146.17,439.21 L146.17,442.594 L148.132,442.594 Z M151.084,443.332 L149.392,443.332 L149.392,442.594 L151.084,442.594 L151.084,441.37 C151.084,438.993988 152.037991,437.806 153.946,437.806 L154.684,437.806 L154.684,438.598 L153.946,438.598 C152.577993,438.598 151.894,439.521991 151.894,441.37 L151.894,442.594 L154.144,442.594 L154.144,443.332 L151.894,443.332 L151.894,451 L151.084,451 L151.084,443.332 Z M157.33,449.38 C158.026004,450.040003 158.877995,450.37 159.886,450.37 C160.894005,450.37 161.742997,450.037003 162.433,449.371 C163.123004,448.704997 163.468,447.838005 163.468,446.77 C163.468,445.713995 163.123004,444.859003 162.433,444.205 C161.742997,443.550997 160.894005,443.224 159.886,443.224 C158.877995,443.224 158.029004,443.550997 157.339,444.205 C156.648997,444.859003 156.304,445.713995 156.304,446.77 C156.304,447.838005 156.645997,448.707997 157.33,449.38 Z M163,449.956 C162.159996,450.772004 161.122006,451.18 159.886,451.18 C158.649994,451.18 157.609004,450.772004 156.763,449.956 C155.916996,449.139996 155.494,448.078007 155.494,446.77 C155.494,445.473994 155.916996,444.424004 156.763,443.62 C157.609004,442.815996 158.649994,442.414 159.886,442.414 C161.122006,442.414 162.162996,442.815996 163.009,443.62 C163.855004,444.424004 164.278,445.473994 164.278,446.77 C164.278,448.078007 163.852004,449.139996 163,449.956 Z M167.806,451 L166.978,451 L166.978,442.594 L167.806,442.594 L167.806,444.772 C167.998001,444.039996 168.327998,443.464002 168.796,443.044 C169.264003,442.623998 169.851997,442.414 170.56,442.414 C171.040003,442.414 171.453998,442.491999 171.802,442.648 L171.658,443.44 C171.333999,443.307999 170.968002,443.242 170.56,443.242 C170.043998,443.242 169.600002,443.379999 169.228,443.656 C168.855998,443.932001 168.571001,444.300998 168.373,444.763 C168.174999,445.225002 168.031001,445.701998 167.941,446.194 C167.851,446.686002 167.806,447.207997 167.806,447.76 L167.806,451 Z M181.036,451 L180.226,451 L180.226,446.068 C180.226,445.191996 179.992003,444.499003 179.524,443.989 C179.055998,443.478997 178.444004,443.224 177.688,443.224 C176.859996,443.224 176.161003,443.472998 175.591,443.971 C175.020997,444.469002 174.73,445.239995 174.718,446.284 L174.718,451 L173.89,451 L173.89,442.594 L174.718,442.594 L174.718,444.25 C174.946001,443.637997 175.344997,443.179002 175.915,442.873 C176.485003,442.566998 177.075997,442.414 177.688,442.414 C178.444004,442.414 179.091998,442.602998 179.632,442.981 C180.172003,443.359002 180.555999,443.895997 180.784,444.592 C180.952001,444.039997 181.236998,443.593002 181.639,443.251 C182.041002,442.908998 182.433998,442.684001 182.818,442.576 C183.202002,442.467999 183.603998,442.414 184.024,442.414 C185.032005,442.414 185.844997,442.743997 186.463,443.404 C187.081003,444.064003 187.384,444.951994 187.372,446.068 L187.372,451 L186.562,451 L186.562,446.068 C186.562,445.191996 186.328003,444.499003 185.86,443.989 C185.391998,443.478997 184.780004,443.224 184.024,443.224 C183.195996,443.224 182.497003,443.472998 181.927,443.971 C181.356997,444.469002 181.06,445.239995 181.036,446.284 L181.036,451 Z" id="google-cloud-platfor"></path>
        </g>
    </g>
</svg>