<?xml version="1.0" encoding="UTF-8"?>
<svg width="65px" height="19px" viewBox="0 0 65 19" version="1.1" xmlns="http://www.w3.org/2000/svg" xmlns:xlink="http://www.w3.org/1999/xlink">
    <!-- Generator: Sketch 48.1 (47250) - http://www.bohemiancoding.com/sketch -->
    <title>graphql</title>
    <desc>Created with Sketch.</desc>
    <defs></defs>
    <g id="Desktop-HD-Copy-2" stroke="none" stroke-width="1" fill="none" fill-rule="evenodd" transform="translate(-217.000000, -772.000000)">
        <g id="Group-2" transform="translate(217.000000, 162.000000)" fill="#E2E8EB">
            <path d="M2.772,617.268 C2.08799658,617.952003 1.746,618.797995 1.746,619.806 C1.746,620.814005 2.08499661,621.656997 2.763,622.335 C3.44100339,623.013003 4.27199508,623.352 5.256,623.352 C6.22800486,623.352 7.06499649,623.019003 7.767,622.353 C8.46900351,621.686997 8.82,620.838005 8.82,619.806 C8.82,618.773995 8.47500345,617.922003 7.785,617.25 C7.09499655,616.577997 6.25200498,616.242 5.256,616.242 C4.28399514,616.242 3.45600342,616.583997 2.772,617.268 Z M1.62,626.286 L2.304,625.836 C2.98800342,626.856005 3.929994,627.366 5.13,627.366 C6.30600588,627.366 7.21499679,627.018003 7.857,626.322 C8.49900321,625.625997 8.82,624.438008 8.82,622.758 L8.82,622.146 C8.49599838,622.758003 8.01000324,623.249998 7.362,623.622 C6.71399676,623.994002 6.01200378,624.18 5.256,624.18 C4.04399394,624.18 3.0180042,623.763004 2.178,622.929 C1.3379958,622.094996 0.918,621.054006 0.918,619.806 C0.918,618.557994 1.3379958,617.514004 2.178,616.674 C3.0180042,615.833996 4.04399394,615.414 5.256,615.414 C6.00000372,615.414 6.69599676,615.593998 7.344,615.954 C7.99200324,616.314002 8.48399832,616.799997 8.82,617.412 L8.82,615.594 L9.648,615.594 L9.648,622.74 C9.648,624.72001 9.25500393,626.123996 8.469,626.952 C7.68299607,627.780004 6.5700072,628.194 5.13,628.194 C3.6299925,628.194 2.4600042,627.558006 1.62,626.286 Z M13.77,624 L12.942,624 L12.942,615.594 L13.77,615.594 L13.77,617.772 C13.962001,617.039996 14.2919977,616.464002 14.76,616.044 C15.2280024,615.623998 15.8159965,615.414 16.524,615.414 C17.0040024,615.414 17.4179983,615.491999 17.766,615.648 L17.622,616.44 C17.2979984,616.307999 16.9320021,616.242 16.524,616.242 C16.0079974,616.242 15.5640019,616.379999 15.192,616.656 C14.8199982,616.932001 14.535001,617.300998 14.337,617.763 C14.138999,618.225002 13.9950005,618.701998 13.905,619.194 C13.8149996,619.686002 13.77,620.207997 13.77,620.76 L13.77,624 Z M26.766,624 L26.766,622.182 C26.4299983,622.794003 25.9380033,623.279998 25.29,623.64 C24.6419968,624.000002 23.9460037,624.18 23.202,624.18 C21.989994,624.18 20.9640042,623.760004 20.124,622.92 C19.2839958,622.079996 18.864,621.036006 18.864,619.788 C18.864,618.539994 19.2839958,617.499004 20.124,616.665 C20.9640042,615.830996 21.989994,615.414 23.202,615.414 C23.9580038,615.414 24.6569968,615.590998 25.299,615.945 C25.9410032,616.299002 26.4299983,616.781997 26.766,617.394 L26.766,615.594 L27.594,615.594 L27.594,624 L26.766,624 Z M20.7,617.268 C20.0279967,617.940003 19.692,618.779995 19.692,619.788 C19.692,620.796005 20.0339966,621.641997 20.718,622.326 C21.4020034,623.010003 22.2299952,623.352 23.202,623.352 C24.1860049,623.352 25.0229966,623.025003 25.713,622.371 C26.4030035,621.716997 26.754,620.886005 26.766,619.878 C26.766,618.821995 26.4210035,617.952003 25.731,617.268 C25.0409966,616.583997 24.198005,616.242 23.202,616.242 C22.2179951,616.242 21.3840034,616.583997 20.7,617.268 Z M31.716,615.594 L31.716,617.412 C32.0520017,616.799997 32.5439968,616.314002 33.192,615.954 C33.8400033,615.593998 34.5359963,615.414 35.28,615.414 C36.4920061,615.414 37.5179958,615.833996 38.358,616.674 C39.1980042,617.514004 39.618,618.563994 39.618,619.824 C39.618,621.072006 39.1980042,622.109996 38.358,622.938 C37.5179958,623.766004 36.4920061,624.18 35.28,624.18 C34.5239963,624.18 33.8250032,624.006002 33.183,623.658 C32.5409968,623.309998 32.0520017,622.830003 31.716,622.218 L31.716,628.068 L30.888,628.068 L30.888,615.594 L31.716,615.594 Z M37.764,622.344 C38.4480035,621.671997 38.79,620.832005 38.79,619.824 C38.79,618.815995 38.4480035,617.967003 37.764,617.277 C37.0799966,616.586997 36.2520049,616.242 35.28,616.242 C34.2959951,616.242 33.4590035,616.568997 32.769,617.223 C32.0789966,617.877003 31.7280001,618.713995 31.716,619.734 C31.716,620.778005 32.0639966,621.641997 32.76,622.326 C33.4560035,623.010003 34.2959951,623.352 35.28,623.352 C36.264005,623.352 37.0919967,623.016003 37.764,622.344 Z M42.318,624 L42.318,610.806 L43.146,610.806 L43.146,617.25 C43.3740012,616.625997 43.7669973,616.164002 44.325,615.864 C44.8830028,615.563999 45.4799969,615.414 46.116,615.414 C47.1240051,615.414 47.936997,615.743997 48.555,616.404 C49.1730031,617.064003 49.4760001,617.951994 49.464,619.068 L49.464,624 L48.654,624 L48.654,619.068 C48.654,618.191996 48.4200024,617.499003 47.952,616.989 C47.4839977,616.478997 46.8720038,616.224 46.116,616.224 C45.2879959,616.224 44.5890029,616.472998 44.019,616.971 C43.4489972,617.469002 43.1580001,618.239995 43.146,619.284 L43.146,624 L42.318,624 Z M53.9100001,617.286 C53.2259966,617.970003 52.8840001,618.815995 52.8840001,619.824 C52.8840001,620.832005 53.2229967,621.671997 53.9010001,622.344 C54.5790034,623.016003 55.4099951,623.352 56.3940001,623.352 C57.378005,623.352 58.2179966,623.010003 58.9140001,622.326 C59.6100035,621.641997 59.9580001,620.778005 59.9580001,619.734 C59.946,618.713995 59.5950035,617.877003 58.9050001,617.223 C58.2149966,616.568997 57.378005,616.242 56.3940001,616.242 C55.4219952,616.242 54.5940035,616.589997 53.9100001,617.286 Z M59.9580001,617.412 L59.9580001,615.594 L60.7860001,615.594 L60.7860001,628.068 L59.9580001,628.068 L59.9580001,622.218 C59.6219984,622.830003 59.1330033,623.309998 58.4910001,623.658 C57.8489968,624.006002 57.1500038,624.18 56.3940001,624.18 C55.181994,624.18 54.1560043,623.766004 53.3160001,622.938 C52.4759959,622.109996 52.0560001,621.072006 52.0560001,619.824 C52.0560001,618.563994 52.4759959,617.514004 53.3160001,616.674 C54.1560043,615.833996 55.181994,615.414 56.3940001,615.414 C57.1380038,615.414 57.8339968,615.593998 58.4820001,615.954 C59.1300033,616.314002 59.6219984,616.799997 59.9580001,617.412 Z M64.8900001,624 L64.0800001,624 L64.0800001,610.806 L64.8900001,610.806 L64.8900001,624 Z" id="graphql"></path>
        </g>
    </g>
</svg>