<?xml version="1.0" encoding="UTF-8"?>
<svg width="34px" height="15px" viewBox="0 0 34 15" version="1.1" xmlns="http://www.w3.org/2000/svg" xmlns:xlink="http://www.w3.org/1999/xlink">
    <!-- Generator: Sketch 48.1 (47250) - http://www.bohemiancoding.com/sketch -->
    <title>kdm</title>
    <desc>Created with Sketch.</desc>
    <defs></defs>
    <g id="Desktop-HD-Copy-2" stroke="none" stroke-width="1" fill="none" fill-rule="evenodd" transform="translate(-219.000000, -561.000000)">
        <g id="Group-2" transform="translate(217.000000, 162.000000)" fill="#E2E8EB">
            <path d="M4.294,408.248 L9.064,413 L7.93,413 L3.322,408.428 L3.322,413 L2.512,413 L2.512,399.806 L3.322,399.806 L3.322,408.068 L6.742,404.594 L7.912,404.594 L4.294,408.248 Z M17.74,413 L17.74,411.182 C17.4039983,411.794003 16.9120033,412.279998 16.264,412.64 C15.6159968,413.000002 14.9200037,413.18 14.176,413.18 C12.963994,413.18 11.9380042,412.760004 11.098,411.92 C10.2579958,411.079996 9.83800001,410.036006 9.83800001,408.788 C9.83800001,407.539994 10.2579958,406.499004 11.098,405.665 C11.9380042,404.830996 12.963994,404.414 14.176,404.414 C14.9320038,404.414 15.6309968,404.590998 16.273,404.945 C16.9150032,405.299002 17.4039983,405.781997 17.74,406.394 L17.74,399.806 L18.568,399.806 L18.568,413 L17.74,413 Z M11.674,406.268 C11.0019967,406.940003 10.666,407.779995 10.666,408.788 C10.666,409.796005 11.0079966,410.641997 11.692,411.326 C12.3760034,412.010003 13.2039952,412.352 14.176,412.352 C15.1600049,412.352 15.9969966,412.025003 16.687,411.371 C17.3770035,410.716997 17.728,409.886005 17.74,408.878 C17.74,407.821995 17.3950035,406.952003 16.705,406.268 C16.0149966,405.583997 15.172005,405.242 14.176,405.242 C13.1919951,405.242 12.3580034,405.583997 11.674,406.268 Z M29.008,413 L28.198,413 L28.198,408.068 C28.198,407.191996 27.9640024,406.499003 27.496,405.989 C27.0279977,405.478997 26.4160038,405.224 25.66,405.224 C24.8319959,405.224 24.1330029,405.472998 23.563,405.971 C22.9929972,406.469002 22.7020001,407.239995 22.69,408.284 L22.69,413 L21.862,413 L21.862,404.594 L22.69,404.594 L22.69,406.25 C22.9180012,405.637997 23.3169972,405.179002 23.887,404.873 C24.4570029,404.566998 25.047997,404.414 25.66,404.414 C26.4160038,404.414 27.0639973,404.602998 27.604,404.981 C28.1440027,405.359002 28.5279989,405.895997 28.756,406.592 C28.9240009,406.039997 29.208998,405.593002 29.611,405.251 C30.013002,404.908998 30.4059981,404.684001 30.79,404.576 C31.1740019,404.467999 31.5759979,404.414 31.996,404.414 C33.0040051,404.414 33.8169969,404.743997 34.435,405.404 C35.0530031,406.064003 35.3560001,406.951994 35.344,408.068 L35.344,413 L34.534,413 L34.534,408.068 C34.534,407.191996 34.3000024,406.499003 33.832,405.989 C33.3639977,405.478997 32.7520038,405.224 31.996,405.224 C31.1679959,405.224 30.4690029,405.472998 29.899,405.971 C29.3289972,406.469002 29.0320001,407.239995 29.008,408.284 L29.008,413 Z" id="kdm"></path>
        </g>
    </g>
</svg>