<?xml version="1.0" encoding="UTF-8"?>
<svg width="46px" height="15px" viewBox="0 0 46 15" version="1.1" xmlns="http://www.w3.org/2000/svg" xmlns:xlink="http://www.w3.org/1999/xlink">
    <!-- Generator: Sketch 48.1 (47250) - http://www.bohemiancoding.com/sketch -->
    <title>mobx</title>
    <desc>Created with Sketch.</desc>
    <defs></defs>
    <g id="Desktop-HD-Copy-2" stroke="none" stroke-width="1" fill="none" fill-rule="evenodd" transform="translate(-219.000000, -473.000000)">
        <g id="Group-2" transform="translate(217.000000, 162.000000)" fill="#E2E8EB">
            <path d="M9.658,325 L8.848,325 L8.848,320.068 C8.848,319.191996 8.61400234,318.499003 8.146,317.989 C7.67799766,317.478997 7.06600378,317.224 6.31,317.224 C5.48199586,317.224 4.78300285,317.472998 4.213,317.971 C3.64299715,318.469002 3.35200006,319.239995 3.34,320.284 L3.34,325 L2.512,325 L2.512,316.594 L3.34,316.594 L3.34,318.25 C3.56800114,317.637997 3.96699715,317.179002 4.537,316.873 C5.10700285,316.566998 5.69799694,316.414 6.31,316.414 C7.06600378,316.414 7.7139973,316.602998 8.254,316.981 C8.7940027,317.359002 9.17799886,317.895997 9.406,318.592 C9.57400084,318.039997 9.85899799,317.593002 10.261,317.251 C10.663002,316.908998 11.0559981,316.684001 11.44,316.576 C11.8240019,316.467999 12.2259979,316.414 12.646,316.414 C13.654005,316.414 14.4669969,316.743997 15.085,317.404 C15.7030031,318.064003 16.0060001,318.951994 15.994,320.068 L15.994,325 L15.184,325 L15.184,320.068 C15.184,319.191996 14.9500023,318.499003 14.482,317.989 C14.0139977,317.478997 13.4020038,317.224 12.646,317.224 C11.8179959,317.224 11.1190029,317.472998 10.549,317.971 C9.97899715,318.469002 9.68200012,319.239995 9.658,320.284 L9.658,325 Z M20.422,323.38 C21.1180035,324.040003 21.969995,324.37 22.978,324.37 C23.9860051,324.37 24.8349966,324.037003 25.525,323.371 C26.2150035,322.704997 26.56,321.838005 26.56,320.77 C26.56,319.713995 26.2150035,318.859003 25.525,318.205 C24.8349966,317.550997 23.9860051,317.224 22.978,317.224 C21.969995,317.224 21.1210035,317.550997 20.431,318.205 C19.7409966,318.859003 19.396,319.713995 19.396,320.77 C19.396,321.838005 19.7379966,322.707997 20.422,323.38 Z M26.092,323.956 C25.2519958,324.772004 24.2140062,325.18 22.978,325.18 C21.7419938,325.18 20.7010042,324.772004 19.855,323.956 C19.0089958,323.139996 18.586,322.078007 18.586,320.77 C18.586,319.473994 19.0089958,318.424004 19.855,317.62 C20.7010042,316.815996 21.7419938,316.414 22.978,316.414 C24.2140062,316.414 25.2549958,316.815996 26.101,317.62 C26.9470042,318.424004 27.37,319.473994 27.37,320.77 C27.37,322.078007 26.9440043,323.139996 26.092,323.956 Z M36.946,323.326 C37.6300034,322.641997 37.972,321.796005 37.972,320.788 C37.972,319.779995 37.6330034,318.937003 36.955,318.259 C36.2769966,317.580997 35.4460049,317.242 34.462,317.242 C33.465995,317.242 32.6230035,317.583997 31.933,318.268 C31.2429966,318.952003 30.898,319.821995 30.898,320.878 C30.9100001,321.886005 31.2609966,322.716997 31.951,323.371 C32.6410035,324.025003 33.4779951,324.352 34.462,324.352 C35.4340049,324.352 36.2619966,324.010003 36.946,323.326 Z M30.898,323.182 L30.898,325 L30.07,325 L30.07,311.806 L30.898,311.806 L30.898,318.394 C31.2340017,317.781997 31.7229968,317.299002 32.365,316.945 C33.0070032,316.590998 33.7059962,316.414 34.462,316.414 C35.6740061,316.414 36.6999958,316.830996 37.54,317.665 C38.3800042,318.499004 38.8,319.539994 38.8,320.788 C38.8,322.036006 38.3800042,323.079996 37.54,323.92 C36.6999958,324.760004 35.6740061,325.18 34.462,325.18 C33.7179963,325.18 33.0220033,325.000002 32.374,324.64 C31.7259968,324.279998 31.2340017,323.794003 30.898,323.182 Z M46.09,316.594 L47.116,316.594 L44.398,320.356 L47.746,325 L46.738,325 L43.894,321.058 L41.032,325 L40.042,325 L43.39,320.356 L40.672,316.594 L41.698,316.594 L43.894,319.654 L46.09,316.594 Z" id="mobx"></path>
        </g>
    </g>
</svg>