<?xml version="1.0" encoding="UTF-8"?>
<svg width="49px" height="18px" viewBox="0 0 49 18" version="1.1" xmlns="http://www.w3.org/2000/svg" xmlns:xlink="http://www.w3.org/1999/xlink">
    <!-- Generator: Sketch 48.1 (47250) - http://www.bohemiancoding.com/sketch -->
    <title>next.js</title>
    <desc>Created with Sketch.</desc>
    <defs></defs>
    <g id="Desktop-HD-Copy-2" stroke="none" stroke-width="1" fill="none" fill-rule="evenodd" transform="translate(-219.000000, -255.000000)">
        <g id="Group-2" transform="translate(217.000000, 162.000000)" fill="#E2E8EB">
            <path d="M2.512,106 L2.512,97.594 L3.34,97.594 L3.34,99.25 C3.56800114,98.6259969 3.96099721,98.1640015 4.519,97.864 C5.07700279,97.5639985 5.67399682,97.414 6.31,97.414 C7.31800504,97.414 8.13099691,97.7439967 8.749,98.404 C9.36700309,99.0640033 9.67000006,99.9519944 9.658,101.068 L9.658,106 L8.848,106 L8.848,101.068 C8.848,100.191996 8.61400234,99.4990026 8.146,98.989 C7.67799766,98.4789975 7.06600378,98.224 6.31,98.224 C5.48199586,98.224 4.78300285,98.4729975 4.213,98.971 C3.64299715,99.4690025 3.35200006,100.239995 3.34,101.284 L3.34,106 L2.512,106 Z M18.766,99.088 C18.165997,98.5119971 17.4100046,98.224 16.498,98.224 C15.5859955,98.224 14.8120032,98.5119971 14.176,99.088 C13.5399968,99.6640029 13.1800004,100.431995 13.096,101.392 L19.792,101.392 C19.7079996,100.419995 19.366003,99.6520028 18.766,99.088 Z M20.62,101.77 C20.62,101.938001 20.6140001,102.064 20.602,102.148 L13.096,102.148 C13.1680004,103.108005 13.5249968,103.884997 14.167,104.479 C14.8090032,105.073003 15.5859955,105.37 16.498,105.37 C17.1220031,105.37 17.6919974,105.229001 18.208,104.947 C18.7240026,104.664999 19.1319985,104.272003 19.432,103.768 L20.206,104.038 C19.8459982,104.710003 19.3390033,105.234998 18.685,105.613 C18.0309967,105.991002 17.302004,106.18 16.498,106.18 C15.297994,106.18 14.2930041,105.772004 13.483,104.956 C12.672996,104.139996 12.268,103.078007 12.268,101.77 C12.268,100.473994 12.672996,99.424004 13.483,98.62 C14.2930041,97.815996 15.297994,97.414 16.498,97.414 C17.7100061,97.414 18.6999962,97.812996 19.468,98.611 C20.2360039,99.409004 20.62,100.461993 20.62,101.77 Z M27.856,97.594 L28.882,97.594 L26.164,101.356 L29.512,106 L28.504,106 L25.66,102.058 L22.798,106 L21.808,106 L25.156,101.356 L22.438,97.594 L23.464,97.594 L25.66,100.654 L27.856,97.594 Z M34.876,97.594 L34.876,98.332 L32.914,98.332 L32.914,106 L32.104,106 L32.104,98.332 L30.574,98.332 L30.574,97.594 L32.104,97.594 L32.104,94.21 L32.914,94.21 L32.914,97.594 L34.876,97.594 Z M36.658,105.496 C36.658,105.291999 36.7299993,105.124001 36.874,104.992 C37.0180008,104.859999 37.191999,104.794 37.396,104.794 C37.6120011,104.794 37.7919993,104.859999 37.936,104.992 C38.0800008,105.124001 38.152,105.291999 38.152,105.496 C38.152,105.688001 38.0770008,105.849999 37.927,105.982 C37.7769993,106.114001 37.6000011,106.18 37.396,106.18 C37.191999,106.18 37.0180008,106.114001 36.874,105.982 C36.7299993,105.849999 36.658,105.688001 36.658,105.496 Z M42.0940001,97.594 L42.0940001,106.522 C42.0940001,108.886012 41.1400096,110.068 39.2320001,110.068 L38.4940001,110.068 L38.4940001,109.276 L39.2320001,109.276 C40.6000069,109.276 41.2840001,108.358009 41.2840001,106.522 L41.2840001,97.594 L42.0940001,97.594 Z M41.1760001,94.966 C41.0439994,94.8339993 40.9780001,94.672001 40.9780001,94.48 C40.9780001,94.287999 41.0469994,94.1290006 41.1850001,94.003 C41.3230007,93.8769994 41.493999,93.814 41.6980001,93.814 C41.9020011,93.814 42.0699994,93.8769994 42.2020001,94.003 C42.3340007,94.1290006 42.4000001,94.287999 42.4000001,94.48 C42.4000001,94.672001 42.3340007,94.8309994 42.2020001,94.957 C42.0699994,95.0830006 41.9020011,95.146 41.6980001,95.146 C41.493999,95.146 41.3200008,95.0860006 41.1760001,94.966 Z M47.7100001,97.414 C48.4060035,97.414 48.9909977,97.5969982 49.4650001,97.963 C49.9390024,98.3290018 50.2179996,98.8479966 50.3020001,99.52 L49.4920001,99.52 C49.4199997,99.123998 49.2220017,98.8060012 48.8980001,98.566 C48.5739984,98.3259988 48.1780024,98.206 47.7100001,98.206 C47.2299977,98.206 46.8130018,98.3199989 46.4590001,98.548 C46.1049983,98.7760011 45.9040003,99.0699982 45.8560001,99.43 C45.7359995,100.318004 46.2219946,100.893999 47.3140001,101.158 L48.5200001,101.446 C49.900007,101.782002 50.5900001,102.555994 50.5900001,103.768 C50.5900001,104.488004 50.3170028,105.069998 49.7710001,105.514 C49.2249973,105.958002 48.5140044,106.18 47.6380001,106.18 C46.9059964,106.18 46.2550029,105.973002 45.6850001,105.559 C45.1149972,105.144998 44.7820005,104.578004 44.6860001,103.858 L45.4420001,103.858 C45.7900018,104.878005 46.5399943,105.388 47.6920001,105.388 C48.3280032,105.388 48.8349982,105.241001 49.2130001,104.947 C49.591002,104.652999 49.7800001,104.260002 49.7800001,103.768 C49.7800001,102.975996 49.3000049,102.466001 48.3400001,102.238 L47.1160001,101.95 C46.4559968,101.793999 45.9250021,101.527002 45.5230001,101.149 C45.1209981,100.770998 44.9619996,100.162004 45.0460001,99.322 C45.1300005,98.7579972 45.4239975,98.2990018 45.9280001,97.945 C46.4320026,97.5909982 47.0259966,97.414 47.7100001,97.414 Z" id="next.js"></path>
        </g>
    </g>
</svg>