<?xml version="1.0" encoding="UTF-8"?>
<svg width="97px" height="14px" viewBox="0 0 97 14" version="1.1" xmlns="http://www.w3.org/2000/svg" xmlns:xlink="http://www.w3.org/1999/xlink">
    <!-- Generator: Sketch 48.1 (47250) - http://www.bohemiancoding.com/sketch -->
    <title>react native</title>
    <desc>Created with Sketch.</desc>
    <defs></defs>
    <g id="Desktop-HD-Copy-2" stroke="none" stroke-width="1" fill="none" fill-rule="evenodd" transform="translate(-219.000000, -299.000000)">
        <g id="Group-2" transform="translate(217.000000, 162.000000)" fill="#E2E8EB">
            <path d="M3.34,150 L2.512,150 L2.512,141.594 L3.34,141.594 L3.34,143.772 C3.53200096,143.039996 3.86199766,142.464002 4.33,142.044 C4.79800234,141.623998 5.38599646,141.414 6.094,141.414 C6.5740024,141.414 6.98799826,141.491999 7.336,141.648 L7.192,142.44 C6.86799838,142.307999 6.50200204,142.242 6.094,142.242 C5.57799742,142.242 5.13400186,142.379999 4.762,142.656 C4.38999814,142.932001 4.10500099,143.300998 3.907,143.763 C3.70899901,144.225002 3.56500045,144.701998 3.475,145.194 C3.38499955,145.686002 3.34,146.207997 3.34,146.76 L3.34,150 Z M14.95,143.088 C14.349997,142.511997 13.5940046,142.224 12.682,142.224 C11.7699955,142.224 10.9960032,142.511997 10.36,143.088 C9.72399683,143.664003 9.36400043,144.431995 9.28000001,145.392 L15.976,145.392 C15.8919996,144.419995 15.550003,143.652003 14.95,143.088 Z M16.804,145.77 C16.804,145.938001 16.7980001,146.064 16.786,146.148 L9.28000001,146.148 C9.35200037,147.108005 9.7089968,147.884997 10.351,148.479 C10.9930032,149.073003 11.7699955,149.37 12.682,149.37 C13.3060031,149.37 13.8759974,149.229001 14.392,148.947 C14.9080026,148.664999 15.3159985,148.272003 15.616,147.768 L16.39,148.038 C16.0299982,148.710003 15.5230033,149.234998 14.869,149.613 C14.2149967,149.991002 13.486004,150.18 12.682,150.18 C11.481994,150.18 10.4770041,149.772004 9.66700001,148.956 C8.85699596,148.139996 8.45200001,147.078007 8.45200001,145.77 C8.45200001,144.473994 8.85699596,143.424004 9.66700001,142.62 C10.4770041,141.815996 11.481994,141.414 12.682,141.414 C13.8940061,141.414 14.8839962,141.812996 15.652,142.611 C16.4200039,143.409004 16.804,144.461993 16.804,145.77 Z M26.686,150 L26.686,148.182 C26.3499983,148.794003 25.8580033,149.279998 25.21,149.64 C24.5619968,150.000002 23.8660037,150.18 23.122,150.18 C21.909994,150.18 20.8840042,149.760004 20.044,148.92 C19.2039958,148.079996 18.784,147.036006 18.784,145.788 C18.784,144.539994 19.2039958,143.499004 20.044,142.665 C20.8840042,141.830996 21.909994,141.414 23.122,141.414 C23.8780038,141.414 24.5769968,141.590998 25.219,141.945 C25.8610032,142.299002 26.3499983,142.781997 26.686,143.394 L26.686,141.594 L27.514,141.594 L27.514,150 L26.686,150 Z M20.62,143.268 C19.9479967,143.940003 19.612,144.779995 19.612,145.788 C19.612,146.796005 19.9539966,147.641997 20.638,148.326 C21.3220034,149.010003 22.1499952,149.352 23.122,149.352 C24.1060049,149.352 24.9429966,149.025003 25.633,148.371 C26.3230035,147.716997 26.674,146.886005 26.686,145.878 C26.686,144.821995 26.3410035,143.952003 25.651,143.268 C24.9609966,142.583997 24.118005,142.242 23.122,142.242 C22.1379951,142.242 21.3040034,142.583997 20.62,143.268 Z M36.928,148.56 L37.468,149.172 C36.663996,149.844003 35.7040056,150.18 34.588,150.18 C33.3639939,150.18 32.3290043,149.772004 31.483,148.956 C30.6369958,148.139996 30.214,147.078007 30.214,145.77 C30.214,144.473994 30.6369958,143.424004 31.483,142.62 C32.3290043,141.815996 33.3639939,141.414 34.588,141.414 C35.6560054,141.414 36.6099958,141.743997 37.45,142.404 L36.928,143.016 C36.2439966,142.487997 35.4640044,142.224 34.588,142.224 C33.5919951,142.224 32.7490035,142.550997 32.059,143.205 C31.3689966,143.859003 31.024,144.713995 31.024,145.77 C31.024,146.838005 31.3689966,147.704997 32.059,148.371 C32.7490035,149.037003 33.5919951,149.37 34.588,149.37 C35.4760045,149.37 36.2559967,149.100003 36.928,148.56 Z M43.336,141.594 L43.336,142.332 L41.374,142.332 L41.374,150 L40.564,150 L40.564,142.332 L39.034,142.332 L39.034,141.594 L40.564,141.594 L40.564,138.21 L41.374,138.21 L41.374,141.594 L43.336,141.594 Z M50.3560001,150 L50.3560001,141.594 L51.1840001,141.594 L51.1840001,143.25 C51.4120012,142.625997 51.8049973,142.164001 52.3630001,141.864 C52.9210029,141.563998 53.5179969,141.414 54.1540001,141.414 C55.1620051,141.414 55.974997,141.743997 56.5930001,142.404 C57.2110032,143.064003 57.5140001,143.951994 57.5020001,145.068 L57.5020001,150 L56.6920001,150 L56.6920001,145.068 C56.6920001,144.191996 56.4580024,143.499003 55.9900001,142.989 C55.5219977,142.478997 54.9100038,142.224 54.1540001,142.224 C53.3259959,142.224 52.6270029,142.472998 52.0570001,142.971 C51.4869972,143.469002 51.1960001,144.239995 51.1840001,145.284 L51.1840001,150 L50.3560001,150 Z M67.9960001,150 L67.9960001,148.182 C67.6599984,148.794003 67.1680033,149.279998 66.5200001,149.64 C65.8719968,150.000002 65.1760038,150.18 64.4320001,150.18 C63.219994,150.18 62.1940043,149.760004 61.3540001,148.92 C60.5139959,148.079996 60.0940001,147.036006 60.0940001,145.788 C60.0940001,144.539994 60.5139959,143.499004 61.3540001,142.665 C62.1940043,141.830996 63.219994,141.414 64.4320001,141.414 C65.1880039,141.414 65.8869969,141.590998 66.5290001,141.945 C67.1710033,142.299002 67.6599984,142.781997 67.9960001,143.394 L67.9960001,141.594 L68.8240001,141.594 L68.8240001,150 L67.9960001,150 Z M61.9300001,143.268 C61.2579967,143.940003 60.9220001,144.779995 60.9220001,145.788 C60.9220001,146.796005 61.2639967,147.641997 61.9480001,148.326 C62.6320035,149.010003 63.4599952,149.352 64.4320001,149.352 C65.416005,149.352 66.2529966,149.025003 66.9430001,148.371 C67.6330035,147.716997 67.984,146.886005 67.9960001,145.878 C67.9960001,144.821995 67.6510035,143.952003 66.9610001,143.268 C66.2709966,142.583997 65.4280051,142.242 64.4320001,142.242 C63.4479952,142.242 62.6140035,142.583997 61.9300001,143.268 Z M75.3940001,141.594 L75.3940001,142.332 L73.4320001,142.332 L73.4320001,150 L72.6220001,150 L72.6220001,142.332 L71.0920001,142.332 L71.0920001,141.594 L72.6220001,141.594 L72.6220001,138.21 L73.4320001,138.21 L73.4320001,141.594 L75.3940001,141.594 Z M78.4720001,150 L77.6620001,150 L77.6620001,141.594 L78.4720001,141.594 L78.4720001,150 Z M77.5360001,138.966 C77.4039994,138.833999 77.3380001,138.672001 77.3380001,138.48 C77.3380001,138.287999 77.4069994,138.129001 77.5450001,138.003 C77.6830008,137.876999 77.8539991,137.814 78.0580001,137.814 C78.2620011,137.814 78.4299994,137.876999 78.5620001,138.003 C78.6940008,138.129001 78.7600001,138.287999 78.7600001,138.48 C78.7600001,138.672001 78.6940008,138.830999 78.5620001,138.957 C78.4299994,139.083001 78.2620011,139.146 78.0580001,139.146 C77.8539991,139.146 77.6800008,139.086001 77.5360001,138.966 Z M84.7540001,149.082 L87.9040001,141.594 L88.7860001,141.594 L85.2400001,150 L84.2860001,150 L80.7580001,141.594 L81.6400001,141.594 L84.7540001,149.082 Z M96.7420001,143.088 C96.1419971,142.511997 95.3860047,142.224 94.4740001,142.224 C93.5619956,142.224 92.7880033,142.511997 92.1520001,143.088 C91.5159969,143.664003 91.1560005,144.431995 91.0720001,145.392 L97.7680001,145.392 C97.6839997,144.419995 97.3420031,143.652003 96.7420001,143.088 Z M98.5960001,145.77 C98.5960001,145.938001 98.5900002,146.064 98.5780001,146.148 L91.0720001,146.148 C91.1440005,147.108005 91.5009969,147.884997 92.1430001,148.479 C92.7850033,149.073003 93.5619956,149.37 94.4740001,149.37 C95.0980032,149.37 95.6679975,149.229001 96.1840001,148.947 C96.7000027,148.664999 97.1079986,148.272003 97.4080001,147.768 L98.1820001,148.038 C97.8219983,148.710003 97.3150034,149.234998 96.6610001,149.613 C96.0069968,149.991002 95.2780041,150.18 94.4740001,150.18 C93.2739941,150.18 92.2690042,149.772004 91.4590001,148.956 C90.6489961,148.139996 90.2440001,147.078007 90.2440001,145.77 C90.2440001,144.473994 90.6489961,143.424004 91.4590001,142.62 C92.2690042,141.815996 93.2739941,141.414 94.4740001,141.414 C95.6860062,141.414 96.6759963,141.812996 97.4440001,142.611 C98.212004,143.409004 98.5960001,144.461993 98.5960001,145.77 Z" id="react-native"></path>
        </g>
    </g>
</svg>