<?xml version="1.0" encoding="UTF-8"?>
<svg width="42px" height="13px" viewBox="0 0 42 13" version="1.1" xmlns="http://www.w3.org/2000/svg" xmlns:xlink="http://www.w3.org/1999/xlink">
    <!-- Generator: Sketch 48.1 (47250) - http://www.bohemiancoding.com/sketch -->
    <title>react</title>
    <desc>Created with Sketch.</desc>
    <defs></defs>
    <g id="Desktop-HD-Copy-2" stroke="none" stroke-width="1" fill="none" fill-rule="evenodd" transform="translate(-219.000000, -168.000000)">
        <g id="Group-2" transform="translate(217.000000, 162.000000)" fill="#E2E8EB">
            <path d="M3.34,18 L2.512,18 L2.512,9.594 L3.34,9.594 L3.34,11.772 C3.53200096,11.0399963 3.86199766,10.4640021 4.33,10.044 C4.79800234,9.6239979 5.38599646,9.414 6.094,9.414 C6.5740024,9.414 6.98799826,9.49199922 7.336,9.648 L7.192,10.44 C6.86799838,10.3079993 6.50200204,10.242 6.094,10.242 C5.57799742,10.242 5.13400186,10.3799986 4.762,10.656 C4.38999814,10.9320014 4.10500099,11.3009977 3.907,11.763 C3.70899901,12.2250023 3.56500045,12.7019975 3.475,13.194 C3.38499955,13.6860025 3.34,14.2079972 3.34,14.76 L3.34,18 Z M14.95,11.088 C14.349997,10.5119971 13.5940046,10.224 12.682,10.224 C11.7699955,10.224 10.9960032,10.5119971 10.36,11.088 C9.72399683,11.6640029 9.36400043,12.4319952 9.28000001,13.392 L15.976,13.392 C15.8919996,12.4199951 15.550003,11.6520028 14.95,11.088 Z M16.804,13.77 C16.804,13.9380008 16.7980001,14.0639996 16.786,14.148 L9.28000001,14.148 C9.35200037,15.1080048 9.7089968,15.884997 10.351,16.479 C10.9930032,17.073003 11.7699955,17.37 12.682,17.37 C13.3060031,17.37 13.8759974,17.2290014 14.392,16.947 C14.9080026,16.6649986 15.3159985,16.2720025 15.616,15.768 L16.39,16.038 C16.0299982,16.7100034 15.5230033,17.2349981 14.869,17.613 C14.2149967,17.9910019 13.486004,18.18 12.682,18.18 C11.481994,18.18 10.4770041,17.7720041 9.66700001,16.956 C8.85699596,16.1399959 8.45200001,15.0780065 8.45200001,13.77 C8.45200001,12.4739935 8.85699596,11.424004 9.66700001,10.62 C10.4770041,9.81599598 11.481994,9.414 12.682,9.414 C13.8940061,9.414 14.8839962,9.81299601 15.652,10.611 C16.4200039,11.409004 16.804,12.4619935 16.804,13.77 Z M26.686,18 L26.686,16.182 C26.3499983,16.7940031 25.8580033,17.2799982 25.21,17.64 C24.5619968,18.0000018 23.8660037,18.18 23.122,18.18 C21.909994,18.18 20.8840042,17.7600042 20.044,16.92 C19.2039958,16.0799958 18.784,15.0360062 18.784,13.788 C18.784,12.5399938 19.2039958,11.4990042 20.044,10.665 C20.8840042,9.83099583 21.909994,9.414 23.122,9.414 C23.8780038,9.414 24.5769968,9.59099823 25.219,9.945 C25.8610032,10.2990018 26.3499983,10.7819969 26.686,11.394 L26.686,9.594 L27.514,9.594 L27.514,18 L26.686,18 Z M20.62,11.268 C19.9479967,11.9400034 19.612,12.779995 19.612,13.788 C19.612,14.796005 19.9539966,15.6419966 20.638,16.326 C21.3220034,17.0100034 22.1499952,17.352 23.122,17.352 C24.1060049,17.352 24.9429966,17.0250033 25.633,16.371 C26.3230035,15.7169967 26.674,14.886005 26.686,13.878 C26.686,12.8219947 26.3410035,11.9520034 25.651,11.268 C24.9609966,10.5839966 24.118005,10.242 23.122,10.242 C22.1379951,10.242 21.3040034,10.5839966 20.62,11.268 Z M36.928,16.56 L37.468,17.172 C36.663996,17.8440034 35.7040056,18.18 34.588,18.18 C33.3639939,18.18 32.3290043,17.7720041 31.483,16.956 C30.6369958,16.1399959 30.214,15.0780065 30.214,13.77 C30.214,12.4739935 30.6369958,11.424004 31.483,10.62 C32.3290043,9.81599598 33.3639939,9.414 34.588,9.414 C35.6560054,9.414 36.6099958,9.7439967 37.45,10.404 L36.928,11.016 C36.2439966,10.4879974 35.4640044,10.224 34.588,10.224 C33.5919951,10.224 32.7490035,10.5509967 32.059,11.205 C31.3689966,11.8590033 31.024,12.7139947 31.024,13.77 C31.024,14.8380053 31.3689966,15.7049967 32.059,16.371 C32.7490035,17.0370033 33.5919951,17.37 34.588,17.37 C35.4760045,17.37 36.2559967,17.1000027 36.928,16.56 Z M43.336,9.594 L43.336,10.332 L41.374,10.332 L41.374,18 L40.564,18 L40.564,10.332 L39.034,10.332 L39.034,9.594 L40.564,9.594 L40.564,6.21 L41.374,6.21 L41.374,9.594 L43.336,9.594 Z" id="react"></path>
        </g>
    </g>
</svg>