<?xml version="1.0" encoding="UTF-8"?>
<svg width="46px" height="15px" viewBox="0 0 46 15" version="1.1" xmlns="http://www.w3.org/2000/svg" xmlns:xlink="http://www.w3.org/1999/xlink">
    <!-- Generator: Sketch 48.1 (47250) - http://www.bohemiancoding.com/sketch -->
    <title>redux</title>
    <desc>Created with Sketch.</desc>
    <defs></defs>
    <g id="Desktop-HD-Copy-2" stroke="none" stroke-width="1" fill="none" fill-rule="evenodd" transform="translate(-219.000000, -429.000000)">
        <g id="Group-2" transform="translate(217.000000, 162.000000)" fill="#E2E8EB">
            <path d="M3.34,281 L2.512,281 L2.512,272.594 L3.34,272.594 L3.34,274.772 C3.53200096,274.039996 3.86199766,273.464002 4.33,273.044 C4.79800234,272.623998 5.38599646,272.414 6.094,272.414 C6.5740024,272.414 6.98799826,272.491999 7.336,272.648 L7.192,273.44 C6.86799838,273.307999 6.50200204,273.242 6.094,273.242 C5.57799742,273.242 5.13400186,273.379999 4.762,273.656 C4.38999814,273.932001 4.10500099,274.300998 3.907,274.763 C3.70899901,275.225002 3.56500045,275.701998 3.475,276.194 C3.38499955,276.686002 3.34,277.207997 3.34,277.76 L3.34,281 Z M14.95,274.088 C14.349997,273.511997 13.5940046,273.224 12.682,273.224 C11.7699955,273.224 10.9960032,273.511997 10.36,274.088 C9.72399683,274.664003 9.36400043,275.431995 9.28000001,276.392 L15.976,276.392 C15.8919996,275.419995 15.550003,274.652003 14.95,274.088 Z M16.804,276.77 C16.804,276.938001 16.7980001,277.064 16.786,277.148 L9.28000001,277.148 C9.35200037,278.108005 9.7089968,278.884997 10.351,279.479 C10.9930032,280.073003 11.7699955,280.37 12.682,280.37 C13.3060031,280.37 13.8759974,280.229001 14.392,279.947 C14.9080026,279.664999 15.3159985,279.272003 15.616,278.768 L16.39,279.038 C16.0299982,279.710003 15.5230033,280.234998 14.869,280.613 C14.2149967,280.991002 13.486004,281.18 12.682,281.18 C11.481994,281.18 10.4770041,280.772004 9.66700001,279.956 C8.85699596,279.139996 8.45200001,278.078007 8.45200001,276.77 C8.45200001,275.473994 8.85699596,274.424004 9.66700001,273.62 C10.4770041,272.815996 11.481994,272.414 12.682,272.414 C13.8940061,272.414 14.8839962,272.812996 15.652,273.611 C16.4200039,274.409004 16.804,275.461993 16.804,276.77 Z M26.686,281 L26.686,279.182 C26.3499983,279.794003 25.8580033,280.279998 25.21,280.64 C24.5619968,281.000002 23.8660037,281.18 23.122,281.18 C21.909994,281.18 20.8840042,280.760004 20.044,279.92 C19.2039958,279.079996 18.784,278.036006 18.784,276.788 C18.784,275.539994 19.2039958,274.499004 20.044,273.665 C20.8840042,272.830996 21.909994,272.414 23.122,272.414 C23.8780038,272.414 24.5769968,272.590998 25.219,272.945 C25.8610032,273.299002 26.3499983,273.781997 26.686,274.394 L26.686,267.806 L27.514,267.806 L27.514,281 L26.686,281 Z M20.62,274.268 C19.9479967,274.940003 19.612,275.779995 19.612,276.788 C19.612,277.796005 19.9539966,278.641997 20.638,279.326 C21.3220034,280.010003 22.1499952,280.352 23.122,280.352 C24.1060049,280.352 24.9429966,280.025003 25.633,279.371 C26.3230035,278.716997 26.674,277.886005 26.686,276.878 C26.686,275.821995 26.3410035,274.952003 25.651,274.268 C24.9609966,273.583997 24.118005,273.242 23.122,273.242 C22.1379951,273.242 21.3040034,273.583997 20.62,274.268 Z M37.864,272.594 L37.864,281 L37.036,281 L37.036,279.344 C36.8079989,279.968003 36.4150028,280.429999 35.857,280.73 C35.2989972,281.030002 34.7020032,281.18 34.066,281.18 C33.057995,281.18 32.2450031,280.853003 31.627,280.199 C31.0089969,279.544997 30.7,278.654006 30.7,277.526 L30.7,272.594 L31.528,272.594 L31.528,277.526 C31.528,278.402004 31.7619977,279.094997 32.23,279.605 C32.6980024,280.115003 33.3099963,280.37 34.066,280.37 C34.8940042,280.37 35.5929972,280.121002 36.163,279.623 C36.7330029,279.124998 37.024,278.354005 37.036,277.31 L37.036,272.594 L37.864,272.594 Z M46,272.594 L47.026,272.594 L44.308,276.356 L47.656,281 L46.648,281 L43.804,277.058 L40.942,281 L39.952,281 L43.3,276.356 L40.582,272.594 L41.608,272.594 L43.804,275.654 L46,272.594 Z" id="redux"></path>
        </g>
    </g>
</svg>