<?xml version="1.0" encoding="UTF-8"?>
<svg width="102px" height="19px" viewBox="0 0 102 19" version="1.1" xmlns="http://www.w3.org/2000/svg" xmlns:xlink="http://www.w3.org/1999/xlink">
    <!-- Generator: Sketch 48.1 (47250) - http://www.bohemiancoding.com/sketch -->
    <title>sandstone.js</title>
    <desc>Created with Sketch.</desc>
    <defs></defs>
    <g id="Desktop-HD-Copy-2" stroke="none" stroke-width="1" fill="none" fill-rule="evenodd" transform="translate(-218.000000, -386.000000)">
        <g id="Group-2" transform="translate(217.000000, 162.000000)" fill="#E2E8EB">
            <path d="M4.834,229.414 C5.53000348,229.414 6.11499763,229.596998 6.589,229.963 C7.06300237,230.329002 7.34199958,230.847997 7.426,231.52 L6.616,231.52 C6.54399964,231.123998 6.34600162,230.806001 6.022,230.566 C5.69799838,230.325999 5.30200234,230.206 4.834,230.206 C4.3539976,230.206 3.93700177,230.319999 3.583,230.548 C3.22899823,230.776001 3.02800024,231.069998 2.98,231.43 C2.8599994,232.318004 3.34599454,232.893999 4.438,233.158 L5.644,233.446 C7.0240069,233.782002 7.714,234.555994 7.714,235.768 C7.714,236.488004 7.44100273,237.069998 6.895,237.514 C6.34899727,237.958002 5.63800438,238.18 4.762,238.18 C4.02999634,238.18 3.37900285,237.973002 2.809,237.559 C2.23899715,237.144998 1.90600048,236.578004 1.81,235.858 L2.566,235.858 C2.91400174,236.878005 3.66399424,237.388 4.816,237.388 C5.45200318,237.388 5.95899811,237.241001 6.337,236.947 C6.71500189,236.652999 6.904,236.260002 6.904,235.768 C6.904,234.975996 6.4240048,234.466001 5.464,234.238 L4.24,233.95 C3.5799967,233.793999 3.04900201,233.527002 2.647,233.149 C2.24499799,232.770998 2.08599958,232.162004 2.17,231.322 C2.25400042,230.757997 2.54799748,230.299002 3.052,229.945 C3.55600252,229.590998 4.14999658,229.414 4.834,229.414 Z M17.686,238 L17.686,236.182 C17.3499983,236.794003 16.8580033,237.279998 16.21,237.64 C15.5619968,238.000002 14.8660037,238.18 14.122,238.18 C12.909994,238.18 11.8840042,237.760004 11.044,236.92 C10.2039958,236.079996 9.78400001,235.036006 9.78400001,233.788 C9.78400001,232.539994 10.2039958,231.499004 11.044,230.665 C11.8840042,229.830996 12.909994,229.414 14.122,229.414 C14.8780038,229.414 15.5769968,229.590998 16.219,229.945 C16.8610032,230.299002 17.3499983,230.781997 17.686,231.394 L17.686,229.594 L18.514,229.594 L18.514,238 L17.686,238 Z M11.62,231.268 C10.9479967,231.940003 10.612,232.779995 10.612,233.788 C10.612,234.796005 10.9539966,235.641997 11.638,236.326 C12.3220034,237.010003 13.1499952,237.352 14.122,237.352 C15.1060049,237.352 15.9429966,237.025003 16.633,236.371 C17.3230035,235.716997 17.674,234.886005 17.686,233.878 C17.686,232.821995 17.3410035,231.952003 16.651,231.268 C15.9609966,230.583997 15.118005,230.242 14.122,230.242 C13.1379951,230.242 12.3040034,230.583997 11.62,231.268 Z M21.808,238 L21.808,229.594 L22.636,229.594 L22.636,231.25 C22.8640012,230.625997 23.2569972,230.164001 23.815,229.864 C24.3730028,229.563998 24.9699968,229.414 25.606,229.414 C26.6140051,229.414 27.4269969,229.743997 28.045,230.404 C28.6630031,231.064003 28.9660001,231.951994 28.954,233.068 L28.954,238 L28.144,238 L28.144,233.068 C28.144,232.191996 27.9100024,231.499003 27.442,230.989 C26.9739977,230.478997 26.3620038,230.224 25.606,230.224 C24.7779959,230.224 24.0790029,230.472998 23.509,230.971 C22.9389972,231.469002 22.6480001,232.239995 22.636,233.284 L22.636,238 L21.808,238 Z M39.448,238 L39.448,236.182 C39.1119984,236.794003 38.6200033,237.279998 37.972,237.64 C37.3239968,238.000002 36.6280038,238.18 35.884,238.18 C34.671994,238.18 33.6460042,237.760004 32.806,236.92 C31.9659958,236.079996 31.546,235.036006 31.546,233.788 C31.546,232.539994 31.9659958,231.499004 32.806,230.665 C33.6460042,229.830996 34.671994,229.414 35.884,229.414 C36.6400038,229.414 37.3389968,229.590998 37.981,229.945 C38.6230032,230.299002 39.1119984,230.781997 39.448,231.394 L39.448,224.806 L40.276,224.806 L40.276,238 L39.448,238 Z M33.382,231.268 C32.7099967,231.940003 32.374,232.779995 32.374,233.788 C32.374,234.796005 32.7159966,235.641997 33.4,236.326 C34.0840035,237.010003 34.9119952,237.352 35.884,237.352 C36.868005,237.352 37.7049966,237.025003 38.395,236.371 C39.0850035,235.716997 39.436,234.886005 39.448,233.878 C39.448,232.821995 39.1030035,231.952003 38.413,231.268 C37.7229966,230.583997 36.880005,230.242 35.884,230.242 C34.8999951,230.242 34.0660035,230.583997 33.382,231.268 Z M45.892,229.414 C46.5880035,229.414 47.1729977,229.596998 47.647,229.963 C48.1210024,230.329002 48.3999996,230.847997 48.484,231.52 L47.674,231.52 C47.6019997,231.123998 47.4040017,230.806001 47.08,230.566 C46.7559984,230.325999 46.3600024,230.206 45.892,230.206 C45.4119976,230.206 44.9950018,230.319999 44.641,230.548 C44.2869983,230.776001 44.0860003,231.069998 44.038,231.43 C43.9179994,232.318004 44.4039946,232.893999 45.496,233.158 L46.702,233.446 C48.0820069,233.782002 48.772,234.555994 48.772,235.768 C48.772,236.488004 48.4990028,237.069998 47.953,237.514 C47.4069973,237.958002 46.6960044,238.18 45.82,238.18 C45.0879964,238.18 44.4370029,237.973002 43.867,237.559 C43.2969972,237.144998 42.9640005,236.578004 42.868,235.858 L43.624,235.858 C43.9720018,236.878005 44.7219943,237.388 45.874,237.388 C46.5100032,237.388 47.0169982,237.241001 47.395,236.947 C47.7730019,236.652999 47.962,236.260002 47.962,235.768 C47.962,234.975996 47.4820048,234.466001 46.522,234.238 L45.298,233.95 C44.6379967,233.793999 44.1070021,233.527002 43.705,233.149 C43.302998,232.770998 43.1439996,232.162004 43.228,231.322 C43.3120005,230.757997 43.6059975,230.299002 44.11,229.945 C44.6140026,229.590998 45.2079966,229.414 45.892,229.414 Z M54.7120001,229.594 L54.7120001,230.332 L52.7500001,230.332 L52.7500001,238 L51.9400001,238 L51.9400001,230.332 L50.4100001,230.332 L50.4100001,229.594 L51.9400001,229.594 L51.9400001,226.21 L52.7500001,226.21 L52.7500001,229.594 L54.7120001,229.594 Z M58.0060001,236.38 C58.7020035,237.040003 59.553995,237.37 60.5620001,237.37 C61.5700051,237.37 62.4189966,237.037003 63.1090001,236.371 C63.7990035,235.704997 64.1440001,234.838005 64.1440001,233.77 C64.1440001,232.713995 63.7990035,231.859003 63.1090001,231.205 C62.4189966,230.550997 61.5700051,230.224 60.5620001,230.224 C59.553995,230.224 58.7050035,230.550997 58.0150001,231.205 C57.3249966,231.859003 56.9800001,232.713995 56.9800001,233.77 C56.9800001,234.838005 57.3219966,235.707997 58.0060001,236.38 Z M63.6760001,236.956 C62.8359959,237.772004 61.7980062,238.18 60.5620001,238.18 C59.3259939,238.18 58.2850043,237.772004 57.4390001,236.956 C56.5929958,236.139996 56.1700001,235.078007 56.1700001,233.77 C56.1700001,232.473994 56.5929958,231.424004 57.4390001,230.62 C58.2850043,229.815996 59.3259939,229.414 60.5620001,229.414 C61.7980062,229.414 62.8389958,229.815996 63.6850001,230.62 C64.5310043,231.424004 64.9540001,232.473994 64.9540001,233.77 C64.9540001,235.078007 64.5280043,236.139996 63.6760001,236.956 Z M67.6540001,238 L67.6540001,229.594 L68.4820001,229.594 L68.4820001,231.25 C68.7100012,230.625997 69.1029973,230.164001 69.6610001,229.864 C70.2190029,229.563998 70.8159969,229.414 71.4520001,229.414 C72.4600051,229.414 73.272997,229.743997 73.8910001,230.404 C74.5090032,231.064003 74.8120001,231.951994 74.8000001,233.068 L74.8000001,238 L73.9900001,238 L73.9900001,233.068 C73.9900001,232.191996 73.7560024,231.499003 73.2880001,230.989 C72.8199977,230.478997 72.2080039,230.224 71.4520001,230.224 C70.6239959,230.224 69.9250029,230.472998 69.3550001,230.971 C68.7849972,231.469002 68.4940001,232.239995 68.4820001,233.284 L68.4820001,238 L67.6540001,238 Z M83.9080001,231.088 C83.3079971,230.511997 82.5520046,230.224 81.6400001,230.224 C80.7279955,230.224 79.9540033,230.511997 79.3180001,231.088 C78.6819969,231.664003 78.3220005,232.431995 78.2380001,233.392 L84.9340001,233.392 C84.8499997,232.419995 84.5080031,231.652003 83.9080001,231.088 Z M85.7620001,233.77 C85.7620001,233.938001 85.7560001,234.064 85.7440001,234.148 L78.2380001,234.148 C78.3100004,235.108005 78.6669969,235.884997 79.3090001,236.479 C79.9510033,237.073003 80.7279955,237.37 81.6400001,237.37 C82.2640032,237.37 82.8339975,237.229001 83.3500001,236.947 C83.8660027,236.664999 84.2739986,236.272003 84.5740001,235.768 L85.3480001,236.038 C84.9879983,236.710003 84.4810034,237.234998 83.8270001,237.613 C83.1729968,237.991002 82.4440041,238.18 81.6400001,238.18 C80.4399941,238.18 79.4350041,237.772004 78.6250001,236.956 C77.814996,236.139996 77.4100001,235.078007 77.4100001,233.77 C77.4100001,232.473994 77.814996,231.424004 78.6250001,230.62 C79.4350041,229.815996 80.4399941,229.414 81.6400001,229.414 C82.8520061,229.414 83.8419962,229.812996 84.6100001,230.611 C85.3780039,231.409004 85.7620001,232.461993 85.7620001,233.77 Z M88.1740001,237.496 C88.1740001,237.291999 88.2459994,237.124001 88.3900001,236.992 C88.5340008,236.859999 88.7079991,236.794 88.9120001,236.794 C89.1280012,236.794 89.3079994,236.859999 89.4520001,236.992 C89.5960008,237.124001 89.6680001,237.291999 89.6680001,237.496 C89.6680001,237.688001 89.5930008,237.849999 89.4430001,237.982 C89.2929993,238.114001 89.1160011,238.18 88.9120001,238.18 C88.7079991,238.18 88.5340008,238.114001 88.3900001,237.982 C88.2459994,237.849999 88.1740001,237.688001 88.1740001,237.496 Z M93.6100001,229.594 L93.6100001,238.522 C93.6100001,240.886012 92.6560096,242.068 90.7480001,242.068 L90.0100001,242.068 L90.0100001,241.276 L90.7480001,241.276 C92.1160069,241.276 92.8000001,240.358009 92.8000001,238.522 L92.8000001,229.594 L93.6100001,229.594 Z M92.6920001,226.966 C92.5599994,226.833999 92.4940001,226.672001 92.4940001,226.48 C92.4940001,226.287999 92.5629994,226.129001 92.7010001,226.003 C92.8390008,225.876999 93.0099991,225.814 93.2140001,225.814 C93.4180011,225.814 93.5859994,225.876999 93.7180001,226.003 C93.8500008,226.129001 93.9160001,226.287999 93.9160001,226.48 C93.9160001,226.672001 93.8500008,226.830999 93.7180001,226.957 C93.5859994,227.083001 93.4180011,227.146 93.2140001,227.146 C93.0099991,227.146 92.8360008,227.086001 92.6920001,226.966 Z M99.2260001,229.414 C99.9220036,229.414 100.506998,229.596998 100.981,229.963 C101.455002,230.329002 101.734,230.847997 101.818,231.52 L101.008,231.52 C100.936,231.123998 100.738002,230.806001 100.414,230.566 C100.089998,230.325999 99.6940025,230.206 99.2260001,230.206 C98.7459977,230.206 98.3290019,230.319999 97.9750001,230.548 C97.6209983,230.776001 97.4200004,231.069998 97.3720001,231.43 C97.2519995,232.318004 97.7379947,232.893999 98.8300001,233.158 L100.036,233.446 C101.416007,233.782002 102.106,234.555994 102.106,235.768 C102.106,236.488004 101.833003,237.069998 101.287,237.514 C100.740997,237.958002 100.030004,238.18 99.1540001,238.18 C98.4219965,238.18 97.771003,237.973002 97.2010001,237.559 C96.6309973,237.144998 96.2980006,236.578004 96.2020001,235.858 L96.9580001,235.858 C97.3060019,236.878005 98.0559944,237.388 99.2080001,237.388 C99.8440033,237.388 100.350998,237.241001 100.729,236.947 C101.107002,236.652999 101.296,236.260002 101.296,235.768 C101.296,234.975996 100.816005,234.466001 99.8560001,234.238 L98.6320001,233.95 C97.9719968,233.793999 97.4410021,233.527002 97.0390001,233.149 C96.6369981,232.770998 96.4779997,232.162004 96.5620001,231.322 C96.6460005,230.757997 96.9399976,230.299002 97.4440001,229.945 C97.9480026,229.590998 98.5419967,229.414 99.2260001,229.414 Z" id="sandstone.js"></path>
        </g>
    </g>
</svg>