<?xml version="1.0" encoding="UTF-8"?>
<svg width="57px" height="19px" viewBox="0 0 57 19" version="1.1" xmlns="http://www.w3.org/2000/svg" xmlns:xlink="http://www.w3.org/1999/xlink">
    <!-- Generator: Sketch 48.1 (47250) - http://www.bohemiancoding.com/sketch -->
    <title>solidity</title>
    <desc>Created with Sketch.</desc>
    <defs></defs>
    <g id="Desktop-HD-Copy-2" stroke="none" stroke-width="1" fill="none" fill-rule="evenodd" transform="translate(-217.000000, -731.000000)">
        <g id="Group-2" transform="translate(217.000000, 162.000000)" fill="#E2E8EB">
            <path d="M3.834,574.414 C4.53000348,574.414 5.11499763,574.596998 5.589,574.963 C6.06300237,575.329002 6.34199958,575.847997 6.426,576.52 L5.616,576.52 C5.54399964,576.123998 5.34600162,575.806001 5.022,575.566 C4.69799838,575.325999 4.30200234,575.206 3.834,575.206 C3.3539976,575.206 2.93700177,575.319999 2.583,575.548 C2.22899823,575.776001 2.02800024,576.069998 1.98,576.43 C1.8599994,577.318004 2.34599454,577.893999 3.438,578.158 L4.644,578.446 C6.0240069,578.782002 6.714,579.555994 6.714,580.768 C6.714,581.488004 6.44100273,582.069998 5.895,582.514 C5.34899727,582.958002 4.63800438,583.18 3.762,583.18 C3.02999634,583.18 2.37900285,582.973002 1.809,582.559 C1.23899715,582.144998 0.90600048,581.578004 0.81,580.858 L1.566,580.858 C1.91400174,581.878005 2.66399424,582.388 3.816,582.388 C4.45200318,582.388 4.95899811,582.241001 5.337,581.947 C5.71500189,581.652999 5.904,581.260002 5.904,580.768 C5.904,579.975996 5.4240048,579.466001 4.464,579.238 L3.24,578.95 C2.5799967,578.793999 2.04900201,578.527002 1.647,578.149 C1.24499799,577.770998 1.08599958,577.162004 1.17,576.322 C1.25400042,575.757997 1.54799748,575.299002 2.052,574.945 C2.55600252,574.590998 3.14999658,574.414 3.834,574.414 Z M10.62,581.38 C11.3160035,582.040003 12.167995,582.37 13.176,582.37 C14.1840051,582.37 15.0329966,582.037003 15.723,581.371 C16.4130035,580.704997 16.758,579.838005 16.758,578.77 C16.758,577.713995 16.4130035,576.859003 15.723,576.205 C15.0329966,575.550997 14.1840051,575.224 13.176,575.224 C12.167995,575.224 11.3190035,575.550997 10.629,576.205 C9.93899656,576.859003 9.59400001,577.713995 9.59400001,578.77 C9.59400001,579.838005 9.93599659,580.707997 10.62,581.38 Z M16.29,581.956 C15.4499958,582.772004 14.4120062,583.18 13.176,583.18 C11.9399938,583.18 10.8990042,582.772004 10.053,581.956 C9.20699578,581.139996 8.78400001,580.078007 8.78400001,578.77 C8.78400001,577.473994 9.20699578,576.424004 10.053,575.62 C10.8990042,574.815996 11.9399938,574.414 13.176,574.414 C14.4120062,574.414 15.4529958,574.815996 16.299,575.62 C17.1450042,576.424004 17.568,577.473994 17.568,578.77 C17.568,580.078007 17.1420043,581.139996 16.29,581.956 Z M21.078,583 L20.268,583 L20.268,569.806 L21.078,569.806 L21.078,583 Z M25.182,583 L24.372,583 L24.372,574.594 L25.182,574.594 L25.182,583 Z M24.246,571.966 C24.1139994,571.833999 24.048,571.672001 24.048,571.48 C24.048,571.287999 24.1169993,571.129001 24.255,571.003 C24.3930007,570.876999 24.563999,570.814 24.768,570.814 C24.9720011,570.814 25.1399994,570.876999 25.272,571.003 C25.4040007,571.129001 25.47,571.287999 25.47,571.48 C25.47,571.672001 25.4040007,571.830999 25.272,571.957 C25.1399994,572.083001 24.9720011,572.146 24.768,572.146 C24.563999,572.146 24.3900008,572.086001 24.246,571.966 Z M35.784,583 L35.784,581.182 C35.4479984,581.794003 34.9560033,582.279998 34.308,582.64 C33.6599968,583.000002 32.9640038,583.18 32.22,583.18 C31.007994,583.18 29.9820042,582.760004 29.142,581.92 C28.3019958,581.079996 27.882,580.036006 27.882,578.788 C27.882,577.539994 28.3019958,576.499004 29.142,575.665 C29.9820042,574.830996 31.007994,574.414 32.22,574.414 C32.9760038,574.414 33.6749968,574.590998 34.317,574.945 C34.9590033,575.299002 35.4479984,575.781997 35.784,576.394 L35.784,569.806 L36.612,569.806 L36.612,583 L35.784,583 Z M29.718,576.268 C29.0459967,576.940003 28.71,577.779995 28.71,578.788 C28.71,579.796005 29.0519966,580.641997 29.736,581.326 C30.4200035,582.010003 31.2479952,582.352 32.22,582.352 C33.204005,582.352 34.0409966,582.025003 34.731,581.371 C35.4210035,580.716997 35.772,579.886005 35.784,578.878 C35.784,577.821995 35.4390035,576.952003 34.749,576.268 C34.0589966,575.583997 33.216005,575.242 32.22,575.242 C31.2359951,575.242 30.4020035,575.583997 29.718,576.268 Z M40.7160001,583 L39.9060001,583 L39.9060001,574.594 L40.7160001,574.594 L40.7160001,583 Z M39.7800001,571.966 C39.6479994,571.833999 39.5820001,571.672001 39.5820001,571.48 C39.5820001,571.287999 39.6509994,571.129001 39.7890001,571.003 C39.9270007,570.876999 40.097999,570.814 40.3020001,570.814 C40.5060011,570.814 40.6739994,570.876999 40.8060001,571.003 C40.9380007,571.129001 41.0040001,571.287999 41.0040001,571.48 C41.0040001,571.672001 40.9380007,571.830999 40.8060001,571.957 C40.6739994,572.083001 40.5060011,572.146 40.3020001,572.146 C40.097999,572.146 39.9240008,572.086001 39.7800001,571.966 Z M47.2860001,574.594 L47.2860001,575.332 L45.3240001,575.332 L45.3240001,583 L44.5140001,583 L44.5140001,575.332 L42.9840001,575.332 L42.9840001,574.594 L44.5140001,574.594 L44.5140001,571.21 L45.3240001,571.21 L45.3240001,574.594 L47.2860001,574.594 Z M56.5740001,574.594 L51.2280001,587.068 L50.4180001,587.068 L52.0920001,583.036 L48.5460001,574.594 L49.4100001,574.594 L52.5420001,582.01 L55.6920001,574.594 L56.5740001,574.594 Z" id="solidity"></path>
        </g>
    </g>
</svg>