<?xml version="1.0" encoding="UTF-8"?>
<svg width="87px" height="19px" viewBox="0 0 87 19" version="1.1" xmlns="http://www.w3.org/2000/svg" xmlns:xlink="http://www.w3.org/1999/xlink">
    <!-- Generator: Sketch 48.1 (47250) - http://www.bohemiancoding.com/sketch -->
    <title>sass/stylus</title>
    <desc>Created with Sketch.</desc>
    <defs></defs>
    <g id="Desktop-HD-Copy-2" stroke="none" stroke-width="1" fill="none" fill-rule="evenodd" transform="translate(-219.000000, -688.000000)">
        <g id="Group-2" transform="translate(217.000000, 162.000000)" fill="#E2E8EB">
            <path d="M5.834,531.414 C6.53000348,531.414 7.11499763,531.596998 7.589,531.963 C8.06300237,532.329002 8.34199958,532.847997 8.426,533.52 L7.616,533.52 C7.54399964,533.123998 7.34600162,532.806001 7.022,532.566 C6.69799838,532.325999 6.30200234,532.206 5.834,532.206 C5.3539976,532.206 4.93700177,532.319999 4.583,532.548 C4.22899823,532.776001 4.02800024,533.069998 3.98,533.43 C3.8599994,534.318004 4.34599454,534.893999 5.438,535.158 L6.644,535.446 C8.0240069,535.782002 8.714,536.555994 8.714,537.768 C8.714,538.488004 8.44100273,539.069998 7.895,539.514 C7.34899727,539.958002 6.63800438,540.18 5.762,540.18 C5.02999634,540.18 4.37900285,539.973002 3.809,539.559 C3.23899715,539.144998 2.90600048,538.578004 2.81,537.858 L3.566,537.858 C3.91400174,538.878005 4.66399424,539.388 5.816,539.388 C6.45200318,539.388 6.95899811,539.241001 7.337,538.947 C7.71500189,538.652999 7.904,538.260002 7.904,537.768 C7.904,536.975996 7.4240048,536.466001 6.464,536.238 L5.24,535.95 C4.5799967,535.793999 4.04900201,535.527002 3.647,535.149 C3.24499799,534.770998 3.08599958,534.162004 3.17,533.322 C3.25400042,532.757997 3.54799748,532.299002 4.052,531.945 C4.55600252,531.590998 5.14999658,531.414 5.834,531.414 Z M18.686,540 L18.686,538.182 C18.3499983,538.794003 17.8580033,539.279998 17.21,539.64 C16.5619968,540.000002 15.8660037,540.18 15.122,540.18 C13.909994,540.18 12.8840042,539.760004 12.044,538.92 C11.2039958,538.079996 10.784,537.036006 10.784,535.788 C10.784,534.539994 11.2039958,533.499004 12.044,532.665 C12.8840042,531.830996 13.909994,531.414 15.122,531.414 C15.8780038,531.414 16.5769968,531.590998 17.219,531.945 C17.8610032,532.299002 18.3499983,532.781997 18.686,533.394 L18.686,531.594 L19.514,531.594 L19.514,540 L18.686,540 Z M12.62,533.268 C11.9479967,533.940003 11.612,534.779995 11.612,535.788 C11.612,536.796005 11.9539966,537.641997 12.638,538.326 C13.3220034,539.010003 14.1499952,539.352 15.122,539.352 C16.1060049,539.352 16.9429966,539.025003 17.633,538.371 C18.3230035,537.716997 18.674,536.886005 18.686,535.878 C18.686,534.821995 18.3410035,533.952003 17.651,533.268 C16.9609966,532.583997 16.118005,532.242 15.122,532.242 C14.1379951,532.242 13.3040034,532.583997 12.62,533.268 Z M25.13,531.414 C25.8260035,531.414 26.4109977,531.596998 26.885,531.963 C27.3590024,532.329002 27.6379996,532.847997 27.722,533.52 L26.912,533.52 C26.8399997,533.123998 26.6420016,532.806001 26.318,532.566 C25.9939984,532.325999 25.5980024,532.206 25.13,532.206 C24.6499976,532.206 24.2330018,532.319999 23.879,532.548 C23.5249983,532.776001 23.3240003,533.069998 23.276,533.43 C23.1559994,534.318004 23.6419946,534.893999 24.734,535.158 L25.94,535.446 C27.3200069,535.782002 28.01,536.555994 28.01,537.768 C28.01,538.488004 27.7370028,539.069998 27.191,539.514 C26.6449973,539.958002 25.9340044,540.18 25.058,540.18 C24.3259964,540.18 23.6750029,539.973002 23.105,539.559 C22.5349972,539.144998 22.2020005,538.578004 22.106,537.858 L22.862,537.858 C23.2100018,538.878005 23.9599943,539.388 25.112,539.388 C25.7480032,539.388 26.2549981,539.241001 26.633,538.947 C27.0110019,538.652999 27.2,538.260002 27.2,537.768 C27.2,536.975996 26.7200048,536.466001 25.76,536.238 L24.536,535.95 C23.8759967,535.793999 23.345002,535.527002 22.943,535.149 C22.540998,534.770998 22.3819996,534.162004 22.466,533.322 C22.5500004,532.757997 22.8439975,532.299002 23.348,531.945 C23.8520025,531.590998 24.4459966,531.414 25.13,531.414 Z M32.996,531.414 C33.6920035,531.414 34.2769977,531.596998 34.751,531.963 C35.2250024,532.329002 35.5039996,532.847997 35.588,533.52 L34.778,533.52 C34.7059997,533.123998 34.5080017,532.806001 34.184,532.566 C33.8599984,532.325999 33.4640024,532.206 32.996,532.206 C32.5159976,532.206 32.0990018,532.319999 31.745,532.548 C31.3909983,532.776001 31.1900003,533.069998 31.142,533.43 C31.0219994,534.318004 31.5079946,534.893999 32.6,535.158 L33.806,535.446 C35.1860069,535.782002 35.876,536.555994 35.876,537.768 C35.876,538.488004 35.6030028,539.069998 35.057,539.514 C34.5109973,539.958002 33.8000044,540.18 32.924,540.18 C32.1919964,540.18 31.5410029,539.973002 30.971,539.559 C30.4009972,539.144998 30.0680005,538.578004 29.972,537.858 L30.728,537.858 C31.0760018,538.878005 31.8259943,539.388 32.978,539.388 C33.6140032,539.388 34.1209981,539.241001 34.499,538.947 C34.8770019,538.652999 35.066,538.260002 35.066,537.768 C35.066,536.975996 34.5860048,536.466001 33.626,536.238 L32.402,535.95 C31.7419967,535.793999 31.211002,535.527002 30.809,535.149 C30.406998,534.770998 30.2479996,534.162004 30.332,533.322 C30.4160005,532.757997 30.7099975,532.299002 31.214,531.945 C31.7180026,531.590998 32.3119966,531.414 32.996,531.414 Z M37.676,540 L43.706,527.598 L44.606,527.598 L38.576,540 L37.676,540 Z M48.7820001,531.414 C49.4780035,531.414 50.0629977,531.596998 50.5370001,531.963 C51.0110024,532.329002 51.2899996,532.847997 51.3740001,533.52 L50.5640001,533.52 C50.4919997,533.123998 50.2940017,532.806001 49.9700001,532.566 C49.6459984,532.325999 49.2500024,532.206 48.7820001,532.206 C48.3019977,532.206 47.8850018,532.319999 47.5310001,532.548 C47.1769983,532.776001 46.9760003,533.069998 46.9280001,533.43 C46.8079995,534.318004 47.2939946,534.893999 48.3860001,535.158 L49.5920001,535.446 C50.972007,535.782002 51.6620001,536.555994 51.6620001,537.768 C51.6620001,538.488004 51.3890028,539.069998 50.8430001,539.514 C50.2969973,539.958002 49.5860044,540.18 48.7100001,540.18 C47.9779964,540.18 47.3270029,539.973002 46.7570001,539.559 C46.1869972,539.144998 45.8540005,538.578004 45.7580001,537.858 L46.5140001,537.858 C46.8620018,538.878005 47.6119943,539.388 48.7640001,539.388 C49.4000032,539.388 49.9069982,539.241001 50.2850001,538.947 C50.6630019,538.652999 50.8520001,538.260002 50.8520001,537.768 C50.8520001,536.975996 50.3720049,536.466001 49.4120001,536.238 L48.1880001,535.95 C47.5279968,535.793999 46.9970021,535.527002 46.5950001,535.149 C46.192998,534.770998 46.0339996,534.162004 46.1180001,533.322 C46.2020005,532.757997 46.4959975,532.299002 47.0000001,531.945 C47.5040026,531.590998 48.0979966,531.414 48.7820001,531.414 Z M57.6020001,531.594 L57.6020001,532.332 L55.6400001,532.332 L55.6400001,540 L54.8300001,540 L54.8300001,532.332 L53.3000001,532.332 L53.3000001,531.594 L54.8300001,531.594 L54.8300001,528.21 L55.6400001,528.21 L55.6400001,531.594 L57.6020001,531.594 Z M66.8900001,531.594 L61.5440001,544.068 L60.7340001,544.068 L62.4080001,540.036 L58.8620001,531.594 L59.7260001,531.594 L62.8580001,539.01 L66.0080001,531.594 L66.8900001,531.594 Z M69.9500001,540 L69.1400001,540 L69.1400001,526.806 L69.9500001,526.806 L69.9500001,540 Z M80.3000001,531.594 L80.3000001,540 L79.4720001,540 L79.4720001,538.344 C79.243999,538.968003 78.8510029,539.429999 78.2930001,539.73 C77.7349973,540.030002 77.1380033,540.18 76.5020001,540.18 C75.4939951,540.18 74.6810032,539.853003 74.0630001,539.199 C73.444997,538.544997 73.1360001,537.654006 73.1360001,536.526 L73.1360001,531.594 L73.9640001,531.594 L73.9640001,536.526 C73.9640001,537.402004 74.1979978,538.094997 74.6660001,538.605 C75.1340024,539.115003 75.7459963,539.37 76.5020001,539.37 C77.3300042,539.37 78.0289972,539.121002 78.5990001,538.623 C79.1690029,538.124998 79.46,537.354005 79.4720001,536.31 L79.4720001,531.594 L80.3000001,531.594 Z M85.9160001,531.414 C86.6120036,531.414 87.1969977,531.596998 87.6710001,531.963 C88.1450025,532.329002 88.4239997,532.847997 88.5080001,533.52 L87.6980001,533.52 C87.6259997,533.123998 87.4280017,532.806001 87.1040001,532.566 C86.7799985,532.325999 86.3840024,532.206 85.9160001,532.206 C85.4359977,532.206 85.0190019,532.319999 84.6650001,532.548 C84.3109983,532.776001 84.1100003,533.069998 84.0620001,533.43 C83.9419995,534.318004 84.4279946,534.893999 85.5200001,535.158 L86.7260001,535.446 C88.106007,535.782002 88.7960001,536.555994 88.7960001,537.768 C88.7960001,538.488004 88.5230028,539.069998 87.9770001,539.514 C87.4309974,539.958002 86.7200045,540.18 85.8440001,540.18 C85.1119964,540.18 84.461003,539.973002 83.8910001,539.559 C83.3209973,539.144998 82.9880006,538.578004 82.8920001,537.858 L83.6480001,537.858 C83.9960018,538.878005 84.7459943,539.388 85.8980001,539.388 C86.5340033,539.388 87.0409982,539.241001 87.4190001,538.947 C87.797002,538.652999 87.9860001,538.260002 87.9860001,537.768 C87.9860001,536.975996 87.5060049,536.466001 86.5460001,536.238 L85.3220001,535.95 C84.6619968,535.793999 84.1310021,535.527002 83.7290001,535.149 C83.3269981,534.770998 83.1679997,534.162004 83.2520001,533.322 C83.3360005,532.757997 83.6299976,532.299002 84.1340001,531.945 C84.6380026,531.590998 85.2319967,531.414 85.9160001,531.414 Z" id="sass/stylus"></path>
        </g>
    </g>
</svg>