<?xml version="1.0" encoding="UTF-8"?>
<svg width="278px" height="52px" viewBox="0 0 278 52" version="1.1" xmlns="http://www.w3.org/2000/svg" xmlns:xlink="http://www.w3.org/1999/xlink">
    <title>404</title>
    <defs></defs>
    <g id="Page-1" stroke="none" stroke-width="1" fill="none" fill-rule="evenodd">
        <g id="404" transform="translate(0.000000, 1.000000)">
            <path d="M84,29.368 L89.6,16.056 L91.168,16.056 L84.864,31 L83.168,31 L76.896,16.056 L78.464,16.056 L84,29.368 Z M96.812,28.12 C98.0493395,29.2933392 99.5639911,29.88 101.356,29.88 C103.148009,29.88 104.657327,29.2880059 105.884,28.104 C107.110673,26.9199941 107.724,25.3786762 107.724,23.48 C107.724,21.6026573 107.110673,20.0826725 105.884,18.92 C104.657327,17.7573275 103.148009,17.176 101.356,17.176 C99.5639911,17.176 98.0546728,17.7573275 96.828,18.92 C95.6013272,20.0826725 94.988,21.6026573 94.988,23.48 C94.988,25.3786762 95.5959939,26.9253274 96.812,28.12 Z M106.892,29.144 C105.398659,30.5946739 103.553344,31.32 101.356,31.32 C99.1586557,31.32 97.3080075,30.5946739 95.804,29.144 C94.2999925,27.6933261 93.548,25.805345 93.548,23.48 C93.548,21.1759885 94.2999925,19.3093405 95.804,17.88 C97.3080075,16.4506595 99.1586557,15.736 101.356,15.736 C103.553344,15.736 105.403992,16.4506595 106.908,17.88 C108.412008,19.3093405 109.164,21.1759885 109.164,23.48 C109.164,25.805345 108.406674,27.6933261 106.892,29.144 Z M115.224,31 L113.784,31 L113.784,16.056 L115.224,16.056 L115.224,31 Z M113.56,11.384 C113.325332,11.1493322 113.208,10.861335 113.208,10.52 C113.208,10.178665 113.330665,9.89600112 113.576,9.672 C113.821335,9.44799888 114.125332,9.336 114.488,9.336 C114.850669,9.336 115.149332,9.44799888 115.384,9.672 C115.618668,9.89600112 115.736,10.178665 115.736,10.52 C115.736,10.861335 115.618668,11.1439989 115.384,11.368 C115.149332,11.5920011 114.850669,11.704 114.488,11.704 C114.125332,11.704 113.816001,11.5973344 113.56,11.384 Z M133.892,31 L133.892,27.768 C133.294664,28.8560054 132.420006,29.7199968 131.268,30.36 C130.115994,31.0000032 128.878673,31.32 127.556,31.32 C125.401323,31.32 123.577341,30.5733408 122.084,29.08 C120.590659,27.5866592 119.844,25.7306778 119.844,23.512 C119.844,21.2933222 120.590659,19.4426741 122.084,17.96 C123.577341,16.4773259 125.401323,15.736 127.556,15.736 C128.900007,15.736 130.142661,16.0506635 131.284,16.68 C132.425339,17.3093365 133.294664,18.1679946 133.892,19.256 L133.892,7.544 L135.364,7.544 L135.364,31 L133.892,31 Z M123.108,19.032 C121.913327,20.2266726 121.316,21.719991 121.316,23.512 C121.316,25.304009 121.923994,26.8079939 123.14,28.024 C124.356006,29.2400061 125.827991,29.848 127.556,29.848 C129.305342,29.848 130.793327,29.2666725 132.02,28.104 C133.246673,26.9413275 133.870667,25.464009 133.892,23.672 C133.892,21.7946573 133.278673,20.2480061 132.052,19.032 C130.825327,17.8159939 129.326676,17.208 127.556,17.208 C125.806658,17.208 124.324006,17.8159939 123.108,19.032 Z M152.188,28.12 C153.42534,29.2933392 154.939991,29.88 156.732,29.88 C158.524009,29.88 160.033327,29.2880059 161.26,28.104 C162.486673,26.9199941 163.1,25.3786762 163.1,23.48 C163.1,21.6026573 162.486673,20.0826725 161.26,18.92 C160.033327,17.7573275 158.524009,17.176 156.732,17.176 C154.939991,17.176 153.430673,17.7573275 152.204,18.92 C150.977327,20.0826725 150.364,21.6026573 150.364,23.48 C150.364,25.3786762 150.971994,26.9253274 152.188,28.12 Z M162.268,29.144 C160.774659,30.5946739 158.929344,31.32 156.732,31.32 C154.534656,31.32 152.684008,30.5946739 151.18,29.144 C149.675993,27.6933261 148.924,25.805345 148.924,23.48 C148.924,21.1759885 149.675993,19.3093405 151.18,17.88 C152.684008,16.4506595 154.534656,15.736 156.732,15.736 C158.929344,15.736 160.779993,16.4506595 162.284,17.88 C163.788008,19.3093405 164.54,21.1759885 164.54,23.48 C164.54,25.805345 163.782674,27.6933261 162.268,29.144 Z M170.088,17.368 L167.08,17.368 L167.08,16.056 L170.088,16.056 L170.088,13.88 C170.088,9.65597888 171.783983,7.544 175.176,7.544 L176.488,7.544 L176.488,8.952 L175.176,8.952 C172.743988,8.952 171.528,10.5946502 171.528,13.88 L171.528,16.056 L175.528,16.056 L175.528,17.368 L171.528,17.368 L171.528,31 L170.088,31 L170.088,17.368 Z M191.584,15.736 C192.82134,15.736 193.861329,16.0613301 194.704,16.712 C195.546671,17.3626699 196.042666,18.2853274 196.192,19.48 L194.752,19.48 C194.623999,18.7759965 194.272003,18.2106688 193.696,17.784 C193.119997,17.3573312 192.416004,17.144 191.584,17.144 C190.730662,17.144 189.989337,17.3466646 189.36,17.752 C188.730664,18.1573354 188.373334,18.6799968 188.288,19.32 C188.074666,20.8986746 188.938657,21.9226643 190.88,22.392 L193.024,22.904 C195.477346,23.5013363 196.704,24.8773226 196.704,27.032 C196.704,28.3120064 196.218672,29.3466627 195.248,30.136 C194.277329,30.9253373 193.013341,31.32 191.456,31.32 C190.15466,31.32 188.997338,30.9520037 187.984,30.216 C186.970662,29.4799963 186.378668,28.4720064 186.208,27.192 L187.552,27.192 C188.17067,29.0053424 189.50399,29.912 191.552,29.912 C192.682672,29.912 193.583997,29.6506693 194.256,29.128 C194.928003,28.6053307 195.264,27.906671 195.264,27.032 C195.264,25.623993 194.410675,24.7173354 192.704,24.312 L190.528,23.8 C189.354661,23.5226653 188.41067,23.0480034 187.696,22.376 C186.98133,21.7039966 186.698666,20.6213408 186.848,19.128 C186.997334,18.1253283 187.519996,17.3093365 188.416,16.68 C189.312005,16.0506635 190.367994,15.736 191.584,15.736 Z M202.732,16.056 L202.732,19.288 C203.329336,18.1999946 204.203994,17.3360032 205.356,16.696 C206.508006,16.0559968 207.745327,15.736 209.068,15.736 C211.222678,15.736 213.046659,16.4826592 214.54,17.976 C216.033341,19.4693408 216.78,21.3359888 216.78,23.576 C216.78,25.7946778 216.033341,27.6399926 214.54,29.112 C213.046659,30.5840074 211.222678,31.32 209.068,31.32 C207.723993,31.32 206.481339,31.0106698 205.34,30.392 C204.198661,29.7733302 203.329336,28.9200054 202.732,27.832 L202.732,38.232 L201.26,38.232 L201.26,16.056 L202.732,16.056 Z M213.484,28.056 C214.700006,26.8613274 215.308,25.368009 215.308,23.576 C215.308,21.783991 214.700006,20.2746728 213.484,19.048 C212.267994,17.8213272 210.796009,17.208 209.068,17.208 C207.318658,17.208 205.830673,17.7893275 204.604,18.952 C203.377327,20.1146725 202.753334,21.6026576 202.732,23.416 C202.732,25.2720093 203.350661,26.8079939 204.588,28.024 C205.82534,29.2400061 207.318658,29.848 209.068,29.848 C210.817342,29.848 212.289327,29.2506726 213.484,28.056 Z M234.392,31 L234.392,27.768 C233.794664,28.8560054 232.920006,29.7199968 231.768,30.36 C230.615994,31.0000032 229.378673,31.32 228.056,31.32 C225.901323,31.32 224.077341,30.5733408 222.584,29.08 C221.090659,27.5866592 220.344,25.7306778 220.344,23.512 C220.344,21.2933222 221.090659,19.4426741 222.584,17.96 C224.077341,16.4773259 225.901323,15.736 228.056,15.736 C229.400007,15.736 230.642661,16.0506635 231.784,16.68 C232.925339,17.3093365 233.794664,18.1679946 234.392,19.256 L234.392,16.056 L235.864,16.056 L235.864,31 L234.392,31 Z M223.608,19.032 C222.413327,20.2266726 221.816,21.719991 221.816,23.512 C221.816,25.304009 222.423994,26.8079939 223.64,28.024 C224.856006,29.2400061 226.327991,29.848 228.056,29.848 C229.805342,29.848 231.293327,29.2666725 232.52,28.104 C233.746673,26.9413275 234.370667,25.464009 234.392,23.672 C234.392,21.7946573 233.778673,20.2480061 232.552,19.032 C231.325327,17.8159939 229.826676,17.208 228.056,17.208 C226.306658,17.208 224.824006,17.8159939 223.608,19.032 Z M252.42,28.44 L253.38,29.528 C251.95066,30.7226726 250.24401,31.32 248.26,31.32 C246.083989,31.32 244.244008,30.5946739 242.74,29.144 C241.235993,27.6933261 240.484,25.805345 240.484,23.48 C240.484,21.1759885 241.235993,19.3093405 242.74,17.88 C244.244008,16.4506595 246.083989,15.736 248.26,15.736 C250.158676,15.736 251.854659,16.3226608 253.348,17.496 L252.42,18.584 C251.203994,17.6453286 249.817341,17.176 248.26,17.176 C246.489325,17.176 244.990673,17.7573275 243.764,18.92 C242.537327,20.0826725 241.924,21.6026573 241.924,23.48 C241.924,25.3786762 242.537327,26.9199941 243.764,28.104 C244.990673,29.2880059 246.489325,29.88 248.26,29.88 C249.838675,29.88 251.225327,29.4000048 252.42,28.44 Z M267.824,18.712 C266.757328,17.6879949 265.413342,17.176 263.792,17.176 C262.170659,17.176 260.794672,17.6879949 259.664,18.712 C258.533328,19.7360051 257.893334,21.1013248 257.744,22.808 L269.648,22.808 C269.498666,21.0799914 268.890672,19.7146717 267.824,18.712 Z M271.12,23.48 C271.12,23.7786682 271.109334,24.0026659 271.088,24.152 L257.744,24.152 C257.872001,25.8586752 258.506661,27.2399947 259.648,28.296 C260.789339,29.3520053 262.170659,29.88 263.792,29.88 C264.901339,29.88 265.914662,29.6293358 266.832,29.128 C267.749338,28.6266642 268.474664,27.9280045 269.008,27.032 L270.384,27.512 C269.743997,28.7066726 268.842673,29.6399966 267.68,30.312 C266.517328,30.9840034 265.221341,31.32 263.792,31.32 C261.658656,31.32 259.872007,30.5946739 258.432,29.144 C256.991993,27.6933261 256.272,25.805345 256.272,23.48 C256.272,21.1759885 256.991993,19.3093405 258.432,17.88 C259.872007,16.4506595 261.658656,15.736 263.792,15.736 C265.946678,15.736 267.70666,16.4453262 269.072,17.864 C270.43734,19.2826738 271.12,21.154655 271.12,23.48 Z M275.228,30.104 C275.228,29.7413315 275.355999,29.4426678 275.612,29.208 C275.868001,28.9733322 276.177332,28.856 276.54,28.856 C276.924002,28.856 277.243999,28.9733322 277.5,29.208 C277.756001,29.4426678 277.884,29.7413315 277.884,30.104 C277.884,30.445335 277.750668,30.7333322 277.484,30.968 C277.217332,31.2026678 276.902669,31.32 276.54,31.32 C276.177332,31.32 275.868001,31.2026678 275.612,30.968 C275.355999,30.7333322 275.228,30.445335 275.228,30.104 Z" id="void-of-space." fill="#FFFFFF" fill-rule="nonzero"></path>
            <path d="M66,0 L66,50" id="Line" stroke="#9FADC3" opacity="0.700000048" stroke-linecap="square"></path>
            <path d="M5.888,25.64 L11.36,25.64 L11.36,17.48 L5.888,25.64 Z M17.536,28.616 L14.624,28.616 L14.624,33 L11.36,33 L11.36,28.616 L0.672,28.616 L11.808,12.104 L14.624,12.104 L14.624,25.64 L17.536,25.64 L17.536,28.616 Z M20.928,22.6 C20.928,21.341327 20.9973326,20.2000051 21.136,19.176 C21.2746674,18.1519949 21.5253315,17.1706714 21.888,16.232 C22.2506685,15.2933286 22.7146638,14.5093365 23.28,13.88 C23.8453362,13.2506635 24.5759955,12.7493352 25.472,12.376 C26.3680045,12.0026648 27.4026608,11.816 28.576,11.816 C29.7493392,11.816 30.7839955,12.0026648 31.68,12.376 C32.5760045,12.7493352 33.3066638,13.2506635 33.872,13.88 C34.4373362,14.5093365 34.8959982,15.2933286 35.248,16.232 C35.6000018,17.1706714 35.8453326,18.1519949 35.984,19.176 C36.1226674,20.2000051 36.192,21.341327 36.192,22.6 C36.192,23.858673 36.1226674,24.9946616 35.984,26.008 C35.8453326,27.0213384 35.6000018,27.9919954 35.248,28.92 C34.8959982,29.8480046 34.4373362,30.6266635 33.872,31.256 C33.3066638,31.8853365 32.5760045,32.3866648 31.68,32.76 C30.7839955,33.1333352 29.7493392,33.32 28.576,33.32 C27.1039926,33.32 25.8560051,33.0480027 24.832,32.504 C23.8079949,31.9599973 23.0186694,31.1760051 22.464,30.152 C21.9093306,29.1279949 21.5146678,28.0080061 21.28,26.792 C21.0453322,25.5759939 20.928,24.1786746 20.928,22.6 Z M28.576,15.08 C25.6533187,15.08 24.192,17.5866416 24.192,22.6 C24.192,27.6133584 25.6533187,30.12 28.576,30.12 C31.4773478,30.12 32.928,27.6133584 32.928,22.6 C32.928,17.5866416 31.4773478,15.08 28.576,15.08 Z M44.128,25.64 L49.6,25.64 L49.6,17.48 L44.128,25.64 Z M55.776,28.616 L52.864,28.616 L52.864,33 L49.6,33 L49.6,28.616 L38.912,28.616 L50.048,12.104 L52.864,12.104 L52.864,25.64 L55.776,25.64 L55.776,28.616 Z" fill="#FFFFFF" fill-rule="nonzero"></path>
        </g>
    </g>
</svg>