<?xml version="1.0" encoding="UTF-8"?>
<svg width="55px" height="18px" viewBox="0 0 55 18" version="1.1" xmlns="http://www.w3.org/2000/svg" xmlns:xlink="http://www.w3.org/1999/xlink">
    <!-- Generator: Sketch 48.1 (47250) - http://www.bohemiancoding.com/sketch -->
    <title>about</title>
    <desc>Created with Sketch.</desc>
    <defs></defs>
    <g id="Desktop-HD" stroke="none" stroke-width="1" fill="none" fill-rule="evenodd" transform="translate(-611.000000, -799.000000)">
        <path d="M621.16797,816.011486 L621.16797,813.723693 C620.745142,814.493845 620.126009,815.105427 619.310554,815.558458 C618.4951,816.011488 617.619254,816.238 616.682991,816.238 C615.157788,816.238 613.86667,815.709472 612.809599,814.652401 C611.752528,813.59533 611.224,812.281561 611.224,810.711055 C611.224,809.140549 611.752528,807.830556 612.809599,806.781035 C613.86667,805.731514 615.157788,805.206762 616.682991,805.206762 C617.634355,805.206762 618.513976,805.429498 619.32188,805.874978 C620.129785,806.320458 620.745142,806.928265 621.16797,807.698417 L621.16797,805.433276 L622.209935,805.433276 L622.209935,816.011486 L621.16797,816.011486 Z M613.534444,807.539857 C612.688787,808.385514 612.265965,809.44257 612.265965,810.711055 C612.265965,811.979541 612.696338,813.044146 613.557096,813.904904 C614.417854,814.765662 615.459808,815.196035 616.682991,815.196035 C617.921274,815.196035 618.974554,814.784538 619.842863,813.961533 C620.711171,813.138527 621.152869,812.092798 621.16797,810.824312 C621.16797,809.495423 620.733823,808.400615 619.865514,807.539857 C618.997206,806.679099 617.936375,806.248727 616.682991,806.248727 C615.444707,806.248727 614.395202,806.679099 613.534444,807.539857 Z M633.535642,813.904904 C634.3964,813.044146 634.826773,811.979541 634.826773,810.711055 C634.826773,809.44257 634.400175,808.381739 633.546968,807.528532 C632.69376,806.675324 631.64803,806.248727 630.409747,806.248727 C629.156362,806.248727 628.095532,806.679099 627.227223,807.539857 C626.358915,808.400615 625.924767,809.495423 625.924767,810.824312 C625.939868,812.092798 626.381566,813.138527 627.249875,813.961533 C628.118183,814.784538 629.171464,815.196035 630.409747,815.196035 C631.632929,815.196035 632.674884,814.765662 633.535642,813.904904 Z M625.924767,813.723693 L625.924767,816.011486 L624.882802,816.011486 L624.882802,799.408 L625.924767,799.408 L625.924767,807.698417 C626.347596,806.928265 626.962953,806.320458 627.770857,805.874978 C628.578762,805.429498 629.458383,805.206762 630.409747,805.206762 C631.93495,805.206762 633.226067,805.731514 634.283139,806.781035 C635.34021,807.830556 635.868738,809.140549 635.868738,810.711055 C635.868738,812.281561 635.34021,813.59533 634.283139,814.652401 C633.226067,815.709472 631.93495,816.238 630.409747,816.238 C629.473484,816.238 628.597638,816.011488 627.782183,815.558458 C626.966728,815.105427 626.347596,814.493845 625.924767,813.723693 Z M639.357055,813.972859 C640.232914,814.803415 641.30507,815.218686 642.573556,815.218686 C643.842041,815.218686 644.910422,814.799639 645.778731,813.961533 C646.647039,813.123426 647.081187,812.032394 647.081187,810.688404 C647.081187,809.359514 646.647039,808.283583 645.778731,807.460577 C644.910422,806.637572 643.842041,806.226075 642.573556,806.226075 C641.30507,806.226075 640.236689,806.637572 639.368381,807.460577 C638.500072,808.283583 638.065925,809.359514 638.065925,810.688404 C638.065925,812.032394 638.496297,813.127202 639.357055,813.972859 Z M646.49225,814.697704 C645.435179,815.724573 644.128961,816.238 642.573556,816.238 C641.018151,816.238 639.708157,815.724573 638.643536,814.697704 C637.578914,813.670835 637.046611,812.334415 637.046611,810.688404 C637.046611,809.057494 637.578914,807.736175 638.643536,806.724406 C639.708157,805.712638 641.018151,805.206762 642.573556,805.206762 C644.128961,805.206762 645.438954,805.712638 646.503576,806.724406 C647.568198,807.736175 648.100501,809.057494 648.100501,810.688404 C648.100501,812.334415 647.564423,813.670835 646.49225,814.697704 Z M658.905225,805.433276 L658.905225,816.011486 L657.86326,816.011486 L657.86326,813.927556 C657.57634,814.712809 657.08179,815.294189 656.379592,815.671715 C655.677395,816.04924 654.926131,816.238 654.125777,816.238 C652.857291,816.238 651.834213,815.826503 651.05651,815.003498 C650.278808,814.180492 649.889962,813.059259 649.889962,811.639763 L649.889962,805.433276 L650.931927,805.433276 L650.931927,811.639763 C650.931927,812.742137 651.226393,813.614208 651.815332,814.256001 C652.404272,814.897795 653.174412,815.218686 654.125777,815.218686 C655.167747,815.218686 656.047368,814.905345 656.764666,814.278653 C657.481965,813.65196 657.848159,812.681735 657.86326,811.367946 L657.86326,805.433276 L658.905225,805.433276 Z M665.700649,805.433276 L665.700649,806.361984 L663.231645,806.361984 L663.231645,816.011486 L662.212331,816.011486 L662.212331,806.361984 L660.286961,806.361984 L660.286961,805.433276 L662.212331,805.433276 L662.212331,801.17481 L663.231645,801.17481 L663.231645,805.433276 L665.700649,805.433276 Z" id="about" fill="#FFFFFF"></path>
    </g>
</svg>