<?xml version="1.0" encoding="UTF-8"?>
<svg width="58px" height="58px" viewBox="0 0 67 67" version="1.1" xmlns="http://www.w3.org/2000/svg" xmlns:xlink="http://www.w3.org/1999/xlink">
    <title>compass-v2</title>
    <defs></defs>
    <g id="Desktop-HD" stroke="none" stroke-width="1" fill="none" fill-rule="evenodd" transform="translate(-687.000000, -314.000000)">
        <g id="compass-v2" transform="translate(687.000000, 314.000000)" fill="#F9FDFF" fill-rule="nonzero">
            <path d="M35.3958826,38.2630531 C33.5236922,39.1348341 31.1879514,38.7321543 29.7294971,37.2708833 C28.2516706,35.7943906 27.8517719,33.5139222 28.7345933,31.5973877 L28.9366183,31.1601134 L23.776679,26 L0,67 L41,43.225286 L35.8331421,38.0610213 L35.3958826,38.2630531 Z M3.8080324,63.1918391 L24.0714141,28.2514091 L27.2899764,31.4714638 C26.4209922,33.8114347 26.9786365,36.4807452 28.7511981,38.2505991 C30.496085,39.9983125 33.2012825,40.5753485 35.5245697,39.7091026 L38.7500506,42.9319248 L3.8080324,63.1918391 Z" id="Shape"></path>
            <path d="M31.161323,28.9375949 L31.5999663,28.7355631 C33.4749241,27.8679334 35.8092811,28.2692295 37.2705029,29.7291167 C38.7483294,31.2069931 39.1468444,33.4860778 38.2640229,35.398461 L38.061998,35.8357353 L43.2247047,41 L67,0 L26,23.7760977 L31.161323,28.9375949 Z M42.9299696,38.7485909 L39.7086399,35.5257687 C40.5790078,33.189949 40.0213635,30.5206386 38.2488019,28.7494009 C36.5011475,27.0003038 33.7917989,26.4246515 31.4712791,27.2908974 L28.2499494,24.0708428 L63.1905839,3.80816092 L42.9299696,38.7485909 Z" id="Shape"></path>
        </g>
    </g>
</svg>