<?xml version="1.0" encoding="UTF-8"?>
<svg width="67px" height="16px" viewBox="0 0 67 16" version="1.1" xmlns="http://www.w3.org/2000/svg" xmlns:xlink="http://www.w3.org/1999/xlink">
    <!-- Generator: Sketch 48.1 (47250) - http://www.bohemiancoding.com/sketch -->
    <title>contact</title>
    <desc>Created with Sketch.</desc>
    <defs></defs>
    <g id="Desktop-HD" stroke="none" stroke-width="1" fill="none" fill-rule="evenodd" transform="translate(-759.000000, -801.000000)">
        <path d="M767.615098,814.215338 L768.289985,814.980211 C767.285148,815.820074 766.08536,816.24 764.690586,816.24 C763.160834,816.24 761.867314,815.73009 760.809985,814.710256 C759.752656,813.690421 759.224,812.363156 759.224,810.728421 C759.224,809.108684 759.752656,807.796416 760.809985,806.791579 C761.867314,805.786742 763.160834,805.284331 764.690586,805.284331 C766.02537,805.284331 767.217659,805.696758 768.267489,806.521624 L767.615098,807.286496 C766.760236,806.626603 765.785409,806.296662 764.690586,806.296662 C763.445788,806.296662 762.392225,806.705339 761.529865,807.522707 C760.667504,808.340074 760.236331,809.408635 760.236331,810.728421 C760.236331,812.063205 760.667504,813.146763 761.529865,813.979128 C762.392225,814.811493 763.445788,815.227669 764.690586,815.227669 C765.800407,815.227669 766.775234,814.890229 767.615098,814.215338 Z M771.259489,813.990376 C772.129348,814.815242 773.194159,815.227669 774.453955,815.227669 C775.713751,815.227669 776.774813,814.811493 777.637173,813.979128 C778.499533,813.146763 778.930707,812.063205 778.930707,810.728421 C778.930707,809.408635 778.499533,808.340074 777.637173,807.522707 C776.774813,806.705339 775.713751,806.296662 774.453955,806.296662 C773.194159,806.296662 772.133097,806.705339 771.270737,807.522707 C770.408377,808.340074 769.977203,809.408635 769.977203,810.728421 C769.977203,812.063205 770.404627,813.150512 771.259489,813.990376 Z M778.345805,814.710256 C777.295975,815.73009 775.998705,816.24 774.453955,816.24 C772.909205,816.24 771.608186,815.73009 770.550857,814.710256 C769.493529,813.690421 768.964872,812.363156 768.964872,810.728421 C768.964872,809.108684 769.493529,807.796416 770.550857,806.791579 C771.608186,805.786742 772.909205,805.284331 774.453955,805.284331 C775.998705,805.284331 777.299724,805.786742 778.357053,806.791579 C779.414381,807.796416 779.943038,809.108684 779.943038,810.728421 C779.943038,812.363156 779.410632,813.690421 778.345805,814.710256 Z M781.855218,816.015038 L781.855218,805.509293 L782.890045,805.509293 L782.890045,807.578947 C783.174999,806.799074 783.666162,806.221676 784.363549,805.846737 C785.060936,805.471798 785.807054,805.284331 786.601925,805.284331 C787.861721,805.284331 788.877791,805.696758 789.650166,806.521624 C790.42254,807.34649 790.801223,808.456294 790.786226,809.851068 L790.786226,816.015038 L789.773895,816.015038 L789.773895,809.851068 C789.773895,808.756245 789.481447,807.890149 788.896542,807.252752 C788.311636,806.615355 787.546772,806.296662 786.601925,806.296662 C785.567093,806.296662 784.693497,806.607857 783.981113,807.230256 C783.268728,807.852655 782.905043,808.816234 782.890045,810.121023 L782.890045,816.015038 L781.855218,816.015038 Z M797.287639,805.509293 L797.287639,806.431639 L794.835549,806.431639 L794.835549,816.015038 L793.823218,816.015038 L793.823218,806.431639 L791.911038,806.431639 L791.911038,805.509293 L793.823218,805.509293 L793.823218,801.28 L794.835549,801.28 L794.835549,805.509293 L797.287639,805.509293 Z M807.523429,816.015038 L807.523429,813.742917 C807.103497,814.507793 806.488606,815.115186 805.678737,815.565113 C804.868869,816.01504 803.999023,816.24 803.069173,816.24 C801.554419,816.24 800.272146,815.715093 799.222316,814.665263 C798.172486,813.615433 797.647579,812.310664 797.647579,810.750917 C797.647579,809.19117 798.172486,807.890151 799.222316,806.84782 C800.272146,805.805489 801.554419,805.284331 803.069173,805.284331 C804.01402,805.284331 804.887615,805.505542 805.689985,805.94797 C806.492355,806.390398 807.103497,806.994041 807.523429,807.758917 L807.523429,805.509293 L808.558256,805.509293 L808.558256,816.015038 L807.523429,816.015038 Z M799.942196,807.601444 C799.102332,808.441307 798.682406,809.491122 798.682406,810.750917 C798.682406,812.010713 799.109831,813.068026 799.964692,813.922887 C800.819554,814.777749 801.85437,815.205173 803.069173,815.205173 C804.298974,815.205173 805.345039,814.796495 806.207399,813.979128 C807.069759,813.16176 807.508431,812.123194 807.523429,810.863399 C807.523429,809.543612 807.092255,808.456305 806.229895,807.601444 C805.367535,806.746582 804.313972,806.319158 803.069173,806.319158 C801.839373,806.319158 800.797057,806.746582 799.942196,807.601444 Z M818.861534,814.215338 L819.536422,814.980211 C818.531584,815.820074 817.331797,816.24 815.937023,816.24 C814.407271,816.24 813.11375,815.73009 812.056422,814.710256 C810.999093,813.690421 810.470437,812.363156 810.470437,810.728421 C810.470437,809.108684 810.999093,807.796416 812.056422,806.791579 C813.11375,805.786742 814.407271,805.284331 815.937023,805.284331 C817.271807,805.284331 818.464095,805.696758 819.513925,806.521624 L818.861534,807.286496 C818.006673,806.626603 817.031846,806.296662 815.937023,806.296662 C814.692225,806.296662 813.638661,806.705339 812.776301,807.522707 C811.913941,808.340074 811.482767,809.408635 811.482767,810.728421 C811.482767,812.063205 811.913941,813.146763 812.776301,813.979128 C813.638661,814.811493 814.692225,815.227669 815.937023,815.227669 C817.046843,815.227669 818.02167,814.890229 818.861534,814.215338 Z M825.40794,805.509293 L825.40794,806.431639 L822.95585,806.431639 L822.95585,816.015038 L821.943519,816.015038 L821.943519,806.431639 L820.031339,806.431639 L820.031339,805.509293 L821.943519,805.509293 L821.943519,801.28 L822.95585,801.28 L822.95585,805.509293 L825.40794,805.509293 Z" id="contact" fill="#FFFFFF"></path>
    </g>
</svg>