<?xml version="1.0" encoding="UTF-8"?>
<svg width="241px" height="19px" viewBox="0 0 241 19" version="1.1" xmlns="http://www.w3.org/2000/svg" xmlns:xlink="http://www.w3.org/1999/xlink">
    <!-- Generator: Sketch 48.1 (47250) - http://www.bohemiancoding.com/sketch -->
    <desc>Created with Sketch.</desc>
    <defs></defs>
    <g id="Page-1" stroke="none" stroke-width="1" fill="none" fill-rule="evenodd">
        <g id="Desktop-HD-Copy-2" transform="translate(-218.000000, -82.000000)" fill="#E2E8EB">
            <path d="M220.928,89.776 L218.672,89.776 L218.672,88.792 L220.928,88.792 L220.928,87.16 C220.928,83.9919842 222.199987,82.408 224.744,82.408 L225.728,82.408 L225.728,83.464 L224.744,83.464 C222.919991,83.464 222.008,84.6959877 222.008,87.16 L222.008,88.792 L225.008,88.792 L225.008,89.776 L222.008,89.776 L222.008,100 L220.928,100 L220.928,89.776 Z M229.016,100 L227.912,100 L227.912,88.792 L229.016,88.792 L229.016,91.696 C229.272001,90.7199951 229.711997,89.9520028 230.336,89.392 C230.960003,88.8319972 231.743995,88.552 232.688,88.552 C233.328003,88.552 233.879998,88.655999 234.344,88.864 L234.152,89.92 C233.719998,89.7439991 233.232003,89.656 232.688,89.656 C231.999997,89.656 231.408003,89.8399982 230.912,90.208 C230.415998,90.5760018 230.036001,91.0679969 229.772,91.684 C229.507999,92.3000031 229.316001,92.9359967 229.196,93.592 C229.075999,94.2480033 229.016,94.9439963 229.016,95.68 L229.016,100 Z M246.344,100 L246.344,97.576 C245.895998,98.3920041 245.240004,99.0399976 244.376,99.52 C243.511996,100.000002 242.584005,100.24 241.592,100.24 C239.975992,100.24 238.608006,99.6800056 237.488,98.56 C236.367994,97.4399944 235.808,96.0480083 235.808,94.384 C235.808,92.7199917 236.367994,91.3320056 237.488,90.22 C238.608006,89.1079944 239.975992,88.552 241.592,88.552 C242.600005,88.552 243.531996,88.7879976 244.388,89.26 C245.244004,89.7320024 245.895998,90.3759959 246.344,91.192 L246.344,88.792 L247.448,88.792 L247.448,100 L246.344,100 Z M238.256,91.024 C237.359996,91.9200045 236.912,93.0399933 236.912,94.384 C236.912,95.7280067 237.367996,96.8559954 238.28,97.768 C239.192005,98.6800046 240.295994,99.136 241.592,99.136 C242.904007,99.136 244.019995,98.7000044 244.94,97.828 C245.860005,96.9559956 246.328,95.8480067 246.344,94.504 C246.344,93.095993 245.884005,91.9360046 244.964,91.024 C244.043995,90.1119954 242.920007,89.656 241.592,89.656 C240.279994,89.656 239.168005,90.1119954 238.256,91.024 Z M261.368,100 L260.288,100 L260.288,93.424 C260.288,92.2559942 259.976003,91.3320034 259.352,90.652 C258.727997,89.9719966 257.912005,89.632 256.904,89.632 C255.799995,89.632 254.868004,89.9639967 254.108,90.628 C253.347996,91.2920033 252.96,92.319993 252.944,93.712 L252.944,100 L251.84,100 L251.84,88.792 L252.944,88.792 L252.944,91 C253.248002,90.1839959 253.779996,89.572002 254.54,89.164 C255.300004,88.755998 256.087996,88.552 256.904,88.552 C257.912005,88.552 258.775997,88.8039975 259.496,89.308 C260.216004,89.8120025 260.727999,90.5279954 261.032,91.456 C261.256001,90.7199963 261.635997,90.1240023 262.172,89.668 C262.708003,89.2119977 263.231998,88.9120007 263.744,88.768 C264.256003,88.6239993 264.791997,88.552 265.352,88.552 C266.696007,88.552 267.779996,88.9919956 268.604,89.872 C269.428004,90.7520044 269.832,91.9359926 269.816,93.424 L269.816,100 L268.736,100 L268.736,93.424 C268.736,92.2559942 268.424003,91.3320034 267.8,90.652 C267.175997,89.9719966 266.360005,89.632 265.352,89.632 C264.247995,89.632 263.316004,89.9639967 262.556,90.628 C261.795996,91.2920033 261.4,92.319993 261.368,93.712 L261.368,100 Z M281.96,90.784 C281.159996,90.0159962 280.152006,89.632 278.936,89.632 C277.719994,89.632 276.688004,90.0159962 275.84,90.784 C274.991996,91.5520038 274.512001,92.5759936 274.4,93.856 L283.328,93.856 C283.216,92.5599935 282.760004,91.5360038 281.96,90.784 Z M284.432,94.36 C284.432,94.5840011 284.424,94.7519994 284.408,94.864 L274.4,94.864 C274.496001,96.1440064 274.971996,97.179996 275.828,97.972 C276.684004,98.764004 277.719994,99.16 278.936,99.16 C279.768004,99.16 280.527997,98.9720019 281.216,98.596 C281.904004,98.2199981 282.447998,97.6960034 282.848,97.024 L283.88,97.384 C283.399998,98.2800045 282.724005,98.9799975 281.852,99.484 C280.979996,99.9880025 280.008006,100.24 278.936,100.24 C277.335992,100.24 275.996006,99.6960054 274.916,98.608 C273.835995,97.5199946 273.296,96.1040087 273.296,94.36 C273.296,92.6319914 273.835995,91.2320054 274.916,90.16 C275.996006,89.0879946 277.335992,88.552 278.936,88.552 C280.552008,88.552 281.871995,89.0839947 282.896,90.148 C283.920005,91.2120053 284.432,92.6159913 284.432,94.36 Z M303.32,88.792 L304.472,88.792 L300.272,100 L299.264,100 L295.4,89.992 L291.656,100 L290.648,100 L286.328,88.792 L287.504,88.792 L291.128,98.344 L294.704,88.792 L296.12,88.792 L299.744,98.32 L303.32,88.792 Z M309.008,97.84 C309.936005,98.7200044 311.071994,99.16 312.416,99.16 C313.760007,99.16 314.891996,98.7160044 315.812,97.828 C316.732005,96.9399956 317.192,95.7840071 317.192,94.36 C317.192,92.951993 316.732005,91.8120044 315.812,90.94 C314.891996,90.0679956 313.760007,89.632 312.416,89.632 C311.071994,89.632 309.940005,90.0679956 309.02,90.94 C308.099996,91.8120044 307.64,92.951993 307.64,94.36 C307.64,95.7840071 308.095996,96.9439955 309.008,97.84 Z M316.568,98.608 C315.447995,99.6960054 314.064009,100.24 312.416,100.24 C310.767992,100.24 309.380006,99.6960054 308.252,98.608 C307.123995,97.5199946 306.56,96.1040087 306.56,94.36 C306.56,92.6319914 307.123995,91.2320054 308.252,90.16 C309.380006,89.0879946 310.767992,88.552 312.416,88.552 C314.064009,88.552 315.451995,89.0879946 316.58,90.16 C317.708006,91.2320054 318.272,92.6319914 318.272,94.36 C318.272,96.1040087 317.704006,97.5199946 316.568,98.608 Z M322.976,100 L321.872,100 L321.872,88.792 L322.976,88.792 L322.976,91.696 C323.232002,90.7199951 323.671997,89.9520028 324.296,89.392 C324.920003,88.8319972 325.703996,88.552 326.648,88.552 C327.288004,88.552 327.839998,88.655999 328.304,88.864 L328.112,89.92 C327.679998,89.7439991 327.192003,89.656 326.648,89.656 C325.959997,89.656 325.368003,89.8399982 324.872,90.208 C324.375998,90.5760018 323.996002,91.0679969 323.732,91.684 C323.467999,92.3000031 323.276001,92.9359967 323.156,93.592 C323.036,94.2480033 322.976,94.9439963 322.976,95.68 L322.976,100 Z M333.464,93.664 L339.824,100 L338.312,100 L332.168,93.904 L332.168,100 L331.088,100 L331.088,82.408 L332.168,82.408 L332.168,93.424 L336.728,88.792 L338.288,88.792 L333.464,93.664 Z M345.248,88.552 C346.176005,88.552 346.955997,88.7959976 347.588,89.284 C348.220004,89.7720024 348.592,90.4639955 348.704,91.36 L347.624,91.36 C347.528,90.8319974 347.264003,90.4080016 346.832,90.088 C346.399998,89.7679984 345.872004,89.608 345.248,89.608 C344.607997,89.608 344.052003,89.7599985 343.58,90.064 C343.107998,90.3680015 342.840001,90.7599976 342.776,91.24 C342.616,92.4240059 343.263993,93.1919982 344.72,93.544 L346.328,93.928 C348.16801,94.3760022 349.088,95.4079919 349.088,97.024 C349.088,97.9840048 348.724004,98.759997 347.996,99.352 C347.267997,99.944003 346.320006,100.24 345.152,100.24 C344.175996,100.24 343.308004,99.9640028 342.548,99.412 C341.787997,98.8599972 341.344001,98.1040048 341.216,97.144 L342.224,97.144 C342.688003,98.5040068 343.687993,99.184 345.224,99.184 C346.072005,99.184 346.747998,98.988002 347.252,98.596 C347.756003,98.203998 348.008,97.6800033 348.008,97.024 C348.008,95.9679947 347.368007,95.2880015 346.088,94.984 L344.456,94.6 C343.575996,94.391999 342.868003,94.0360025 342.332,93.532 C341.795998,93.0279975 341.584,92.2160056 341.696,91.096 C341.808001,90.3439962 342.199997,89.7320024 342.872,89.26 C343.544004,88.7879976 344.335996,88.552 345.248,88.552 Z M369.224,100 L369.224,97.576 C368.775998,98.3920041 368.120005,99.0399976 367.256,99.52 C366.391996,100.000002 365.464005,100.24 364.472,100.24 C362.855992,100.24 361.488006,99.6800056 360.368,98.56 C359.247995,97.4399944 358.688,96.0480083 358.688,94.384 C358.688,92.7199917 359.247995,91.3320056 360.368,90.22 C361.488006,89.1079944 362.855992,88.552 364.472,88.552 C365.480006,88.552 366.411996,88.7879976 367.268,89.26 C368.124005,89.7320024 368.775998,90.3759959 369.224,91.192 L369.224,88.792 L370.328,88.792 L370.328,100 L369.224,100 Z M361.136,91.024 C360.239996,91.9200045 359.792,93.0399933 359.792,94.384 C359.792,95.7280067 360.247996,96.8559954 361.16,97.768 C362.072005,98.6800046 363.175994,99.136 364.472,99.136 C365.784007,99.136 366.899996,98.7000044 367.82,97.828 C368.740005,96.9559956 369.208,95.8480067 369.224,94.504 C369.224,93.095993 368.764005,91.9360046 367.844,91.024 C366.923996,90.1119954 365.800007,89.656 364.472,89.656 C363.159994,89.656 362.048005,90.1119954 361.136,91.024 Z M374.720001,100 L374.720001,88.792 L375.824001,88.792 L375.824001,91 C376.128002,90.1679958 376.651997,89.552002 377.396001,89.152 C378.140004,88.751998 378.935996,88.552 379.784001,88.552 C381.128007,88.552 382.211996,88.9919956 383.036001,89.872 C383.860005,90.7520044 384.264001,91.9359926 384.248001,93.424 L384.248001,100 L383.168001,100 L383.168001,93.424 C383.168001,92.2559942 382.856004,91.3320034 382.232001,90.652 C381.607997,89.9719966 380.792006,89.632 379.784001,89.632 C378.679995,89.632 377.748004,89.9639967 376.988001,90.628 C376.227997,91.2920033 375.840001,92.319993 375.824001,93.712 L375.824001,100 L374.720001,100 Z M398.240001,100 L398.240001,97.576 C397.791998,98.3920041 397.136005,99.0399976 396.272001,99.52 C395.407996,100.000002 394.480006,100.24 393.488001,100.24 C391.871992,100.24 390.504006,99.6800056 389.384001,98.56 C388.263995,97.4399944 387.704001,96.0480083 387.704001,94.384 C387.704001,92.7199917 388.263995,91.3320056 389.384001,90.22 C390.504006,89.1079944 391.871992,88.552 393.488001,88.552 C394.496006,88.552 395.427996,88.7879976 396.284001,89.26 C397.140005,89.7320024 397.791998,90.3759959 398.240001,91.192 L398.240001,82.408 L399.344001,82.408 L399.344001,100 L398.240001,100 Z M390.152001,91.024 C389.255996,91.9200045 388.808001,93.0399933 388.808001,94.384 C388.808001,95.7280067 389.263996,96.8559954 390.176001,97.768 C391.088005,98.6800046 392.191994,99.136 393.488001,99.136 C394.800007,99.136 395.915996,98.7000044 396.836001,97.828 C397.756005,96.9559956 398.224,95.8480067 398.240001,94.504 C398.240001,93.095993 397.780005,91.9360046 396.860001,91.024 C395.939996,90.1119954 394.816007,89.656 393.488001,89.656 C392.175994,89.656 391.064005,90.1119954 390.152001,91.024 Z M414.656001,88.792 L414.656001,89.776 L412.040001,89.776 L412.040001,100 L410.960001,100 L410.960001,89.776 L408.920001,89.776 L408.920001,88.792 L410.960001,88.792 L410.960001,84.28 L412.040001,84.28 L412.040001,88.792 L414.656001,88.792 Z M419.048001,97.84 C419.976005,98.7200044 421.111994,99.16 422.456001,99.16 C423.800007,99.16 424.931996,98.7160044 425.852001,97.828 C426.772005,96.9399956 427.232001,95.7840071 427.232001,94.36 C427.232001,92.951993 426.772005,91.8120044 425.852001,90.94 C424.931996,90.0679956 423.800007,89.632 422.456001,89.632 C421.111994,89.632 419.980005,90.0679956 419.060001,90.94 C418.139996,91.8120044 417.680001,92.951993 417.680001,94.36 C417.680001,95.7840071 418.135996,96.9439955 419.048001,97.84 Z M426.608001,98.608 C425.487995,99.6960054 424.104009,100.24 422.456001,100.24 C420.807992,100.24 419.420006,99.6960054 418.292001,98.608 C417.163995,97.5199946 416.600001,96.1040087 416.600001,94.36 C416.600001,92.6319914 417.163995,91.2320054 418.292001,90.16 C419.420006,89.0879946 420.807992,88.552 422.456001,88.552 C424.104009,88.552 425.491995,89.0879946 426.620001,90.16 C427.748006,91.2320054 428.312001,92.6319914 428.312001,94.36 C428.312001,96.1040087 427.744006,97.5199946 426.608001,98.608 Z M433.568001,97.84 C434.496005,98.7200044 435.631994,99.16 436.976001,99.16 C438.320007,99.16 439.451996,98.7160044 440.372001,97.828 C441.292005,96.9399956 441.752001,95.7840071 441.752001,94.36 C441.752001,92.951993 441.292005,91.8120044 440.372001,90.94 C439.451996,90.0679956 438.320007,89.632 436.976001,89.632 C435.631994,89.632 434.500005,90.0679956 433.580001,90.94 C432.659996,91.8120044 432.200001,92.951993 432.200001,94.36 C432.200001,95.7840071 432.655996,96.9439955 433.568001,97.84 Z M441.128001,98.608 C440.007995,99.6960054 438.624009,100.24 436.976001,100.24 C435.327993,100.24 433.940006,99.6960054 432.812001,98.608 C431.683995,97.5199946 431.120001,96.1040087 431.120001,94.36 C431.120001,92.6319914 431.683995,91.2320054 432.812001,90.16 C433.940006,89.0879946 435.327993,88.552 436.976001,88.552 C438.624009,88.552 440.011995,89.0879946 441.140001,90.16 C442.268006,91.2320054 442.832001,92.6319914 442.832001,94.36 C442.832001,96.1040087 442.264006,97.5199946 441.128001,98.608 Z M447.512001,100 L446.432001,100 L446.432001,82.408 L447.512001,82.408 L447.512001,100 Z M455.000001,88.552 C455.928005,88.552 456.707998,88.7959976 457.340001,89.284 C457.972004,89.7720024 458.344,90.4639955 458.456001,91.36 L457.376001,91.36 C457.28,90.8319974 457.016003,90.4080016 456.584001,90.088 C456.151999,89.7679984 455.624004,89.608 455.000001,89.608 C454.359998,89.608 453.804003,89.7599985 453.332001,90.064 C452.859998,90.3680015 452.592001,90.7599976 452.528001,91.24 C452.368,92.4240059 453.015994,93.1919982 454.472001,93.544 L456.080001,93.928 C457.92001,94.3760022 458.840001,95.4079919 458.840001,97.024 C458.840001,97.9840048 458.476004,98.759997 457.748001,99.352 C457.019997,99.944003 456.072007,100.24 454.904001,100.24 C453.927996,100.24 453.060005,99.9640028 452.300001,99.412 C451.539997,98.8599972 451.096001,98.1040048 450.968001,97.144 L451.976001,97.144 C452.440003,98.5040068 453.439993,99.184 454.976001,99.184 C455.824005,99.184 456.499998,98.988002 457.004001,98.596 C457.508003,98.203998 457.760001,97.6800033 457.760001,97.024 C457.760001,95.9679947 457.120007,95.2880015 455.840001,94.984 L454.208001,94.6 C453.327996,94.391999 452.620004,94.0360025 452.084001,93.532 C451.547998,93.0279975 451.336,92.2160056 451.448001,91.096 C451.560001,90.3439962 451.951997,89.7320024 452.624001,89.26 C453.296004,88.7879976 454.087996,88.552 455.000001,88.552 Z" id="frameworks-and-tools"></path>
        </g>
    </g>
</svg>