<?xml version="1.0" encoding="UTF-8"?>
<svg width="41px" height="17px" viewBox="0 0 41 17" version="1.1" xmlns="http://www.w3.org/2000/svg" xmlns:xlink="http://www.w3.org/1999/xlink">
    <defs></defs>
    <g id="Desktop-HD" stroke="none" stroke-width="1" fill="none" fill-rule="evenodd" transform="translate(-582.000000, -807.000000)">
        <g id="Group" transform="translate(582.000000, 806.000000)" fill="#FDFEFF">
            <path d="M0,17.126 L0,1 L1.012,1 L1.012,8.876 C1.29066806,8.11332952 1.77099659,7.5486685 2.453,7.182 C3.13500341,6.8153315 3.86466278,6.632 4.642,6.632 C5.87400616,6.632 6.86766289,7.0353293 7.623,7.842 C8.37833711,8.6486707 8.74866674,9.73399318 8.734,11.098 L8.734,17.126 L7.744,17.126 L7.744,11.098 C7.744,10.027328 7.45800286,9.18033645 6.886,8.557 C6.31399714,7.93366355 5.56600462,7.622 4.642,7.622 C3.62999494,7.622 2.77567015,7.92633029 2.079,8.535 C1.38232985,9.14366971 1.02666674,10.0859936 1.012,11.362 L1.012,17.126 L0,17.126 Z M18.726,8.678 C17.992663,7.97399648 17.0686722,7.622 15.954,7.622 C14.8393278,7.622 13.8933372,7.97399648 13.116,8.678 C12.3386628,9.38200352 11.8986672,10.3206608 11.796,11.494 L19.98,11.494 C19.8773328,10.3059941 19.459337,9.36733678 18.726,8.678 Z M20.992,11.956 C20.992,12.1613344 20.9846667,12.3153328 20.97,12.418 L11.796,12.418 C11.8840004,13.5913392 12.3203294,14.5409964 13.105,15.267 C13.8896706,15.9930036 14.8393278,16.356 15.954,16.356 C16.7166705,16.356 17.4133302,16.1836684 18.044,15.839 C18.6746698,15.4943316 19.1733315,15.0140031 19.54,14.398 L20.486,14.728 C20.0459978,15.5493374 19.4263373,16.1909977 18.627,16.653 C17.8276627,17.1150023 16.9366716,17.346 15.954,17.346 C14.487326,17.346 13.2590049,16.8473383 12.269,15.85 C11.278995,14.8526617 10.784,13.5546747 10.784,11.956 C10.784,10.3719921 11.278995,9.08867158 12.269,8.106 C13.2590049,7.12332842 14.487326,6.632 15.954,6.632 C17.4353407,6.632 18.6453286,7.11966179 19.584,8.095 C20.5226714,9.07033821 20.992,10.3573253 20.992,11.956 Z M23.988,17.126 L22.998,17.126 L22.998,1 L23.988,1 L23.988,17.126 Z M27.864,17.126 L26.874,17.126 L26.874,1 L27.864,1 L27.864,17.126 Z M32.268,15.146 C33.1186709,15.9526707 34.1599938,16.356 35.392,16.356 C36.6240062,16.356 37.6616624,15.9490041 38.505,15.135 C39.3483375,14.3209959 39.77,13.2613399 39.77,11.956 C39.77,10.6653269 39.3483375,9.62033733 38.505,8.821 C37.6616624,8.02166267 36.6240062,7.622 35.392,7.622 C34.1599938,7.622 33.1223375,8.02166267 32.279,8.821 C31.4356624,9.62033733 31.014,10.6653269 31.014,11.956 C31.014,13.2613399 31.4319958,14.3246626 32.268,15.146 Z M39.198,15.85 C38.1713282,16.8473383 36.9026742,17.346 35.392,17.346 C33.8813258,17.346 32.6090052,16.8473383 31.575,15.85 C30.5409948,14.8526617 30.024,13.5546747 30.024,11.956 C30.024,10.3719921 30.5409948,9.08867158 31.575,8.106 C32.6090052,7.12332842 33.8813258,6.632 35.392,6.632 C36.9026742,6.632 38.1749948,7.12332842 39.209,8.106 C40.2430052,9.08867158 40.76,10.3719921 40.76,11.956 C40.76,13.5546747 40.2393385,14.8526617 39.198,15.85 Z" id="hello"></path>
        </g>
    </g>
</svg>