<?xml version="1.0" encoding="UTF-8"?>
<svg width="190px" height="25px" viewBox="0 0 210 29" version="1.1" xmlns="http://www.w3.org/2000/svg" xmlns:xlink="http://www.w3.org/1999/xlink">
    <defs>
        <path d="M636.014897,424.902926 L636.014897,449.640957 L634.934003,449.640957 L634.934003,437.828457 L619.080894,437.828457 L619.080894,449.640957 L618,449.640957 L618,424.902926 L619.080894,424.902926 L619.080894,436.823138 L634.934003,436.823138 L634.934003,424.902926 L636.014897,424.902926 Z M656.335701,441.203457 L656.335701,441.670213 L640.7348,441.670213 C640.83088,443.848415 641.581493,445.601722 642.986662,446.930186 C644.391831,448.25865 646.103229,448.922872 648.120908,448.922872 C649.442007,448.922872 650.654998,448.623673 651.759917,448.025266 C652.864836,447.426859 653.753562,446.589101 654.426122,445.511968 L655.362896,446.086436 C654.594257,447.307187 653.573423,448.264624 652.300364,448.958777 C651.027305,449.652929 649.634167,450 648.120908,450 C645.718909,450 643.707266,449.186178 642.085917,447.558511 C640.464568,445.930843 639.653906,443.812513 639.653906,441.203457 C639.653906,438.618338 640.464568,436.523944 642.085917,434.920213 C643.707266,433.316481 645.718909,432.514628 648.120908,432.514628 C650.522906,432.514628 652.492515,433.310497 654.029794,434.902261 C655.567073,436.494024 656.335701,438.594402 656.335701,441.203457 Z M653.129049,435.530585 C651.80795,434.238025 650.138586,433.591755 648.120908,433.591755 C646.103229,433.591755 644.397836,434.244009 643.004677,435.548537 C641.611518,436.853065 640.8549,438.570468 640.7348,440.700798 L655.254807,440.700798 C655.158727,438.546532 654.450148,436.823145 653.129049,435.530585 Z M659.290144,449.640957 L659.290144,423 L660.371038,423 L660.371038,449.640957 L659.290144,449.640957 Z M664.838732,449.640957 L664.838732,423 L665.919626,423 L665.919626,449.640957 L664.838732,449.640957 Z M684.186731,447.558511 C682.505333,449.186178 680.427635,450 677.953577,450 C675.479519,450 673.395817,449.186178 671.702408,447.558511 C670.008999,445.930843 669.162307,443.812513 669.162307,441.203457 C669.162307,438.618338 670.008999,436.523944 671.702408,434.920213 C673.395817,433.316481 675.479519,432.514628 677.953577,432.514628 C680.427635,432.514628 682.511337,433.316481 684.204746,434.920213 C685.898155,436.523944 686.744847,438.618338 686.744847,441.203457 C686.744847,443.812513 685.89215,445.930843 684.186731,447.558511 Z M677.953577,448.922872 C680.115375,448.922872 681.940867,448.210778 683.430106,446.786569 C684.919345,445.36236 685.663953,443.501341 685.663953,441.203457 C685.663953,438.92951 684.919345,437.092427 683.430106,435.692154 C681.940867,434.291881 680.115375,433.591755 677.953577,433.591755 C675.767759,433.591755 673.936262,434.291881 672.459033,435.692154 C670.981805,437.092427 670.243201,438.92951 670.243201,441.203457 C670.243201,443.501341 670.981805,445.36236 672.459033,446.786569 C673.936262,448.210778 675.767759,448.922872 677.953577,448.922872 Z M689.62723,448.994681 C689.62723,448.683509 689.735319,448.432182 689.951498,448.240691 C690.167678,448.049201 690.431894,447.953457 690.744154,447.953457 C691.080434,447.953457 691.356659,448.049201 691.572839,448.240691 C691.789019,448.432182 691.897107,448.683509 691.897107,448.994681 C691.897107,449.281916 691.789019,449.521276 691.572839,449.712766 C691.356659,449.904256 691.080434,450 690.744154,450 C690.431894,450 690.167678,449.904256 689.951498,449.712766 C689.735319,449.521276 689.62723,449.281916 689.62723,448.994681 Z M705.840638,424.902926 L705.840638,449.640957 L704.759744,449.640957 L704.759744,424.902926 L705.840638,424.902926 Z M710.920838,432.083777 L710.092153,431.760638 C711.533352,429.773926 712.217911,427.488045 712.145851,424.902926 L713.226745,424.902926 C713.274785,427.440172 712.506157,429.833765 710.920838,432.083777 Z M730.052659,449.640957 L730.052659,439.767287 C730.052659,437.87632 729.506213,436.374341 728.413303,435.261303 C727.320394,434.148266 725.933261,433.591755 724.251862,433.591755 C722.498403,433.591755 721.039211,434.118346 719.874242,435.171543 C718.709273,436.224739 718.090768,437.852383 718.018708,440.054521 L718.018708,449.640957 L716.937814,449.640957 L716.937814,432.87367 L718.018708,432.87367 L718.018708,436.571809 C718.451068,435.183504 719.243715,434.160243 720.396674,433.501995 C721.549633,432.843747 722.834683,432.514628 724.251862,432.514628 C725.861201,432.514628 727.236324,432.933506 728.377274,433.771277 C729.518223,434.609047 730.292856,435.805843 730.701195,437.361702 C731.085515,435.614353 731.908187,434.369685 733.169236,433.62766 C734.430285,432.885635 735.829428,432.514628 737.366707,432.514628 C739.360366,432.514628 741.00571,433.172866 742.302789,434.489362 C743.599868,435.805858 744.248398,437.565149 744.248398,439.767287 L744.248398,449.640957 L743.167504,449.640957 L743.167504,439.767287 C743.167504,437.87632 742.621058,436.374341 741.528148,435.261303 C740.435239,434.148266 739.048106,433.591755 737.366707,433.591755 C735.613248,433.591755 734.154056,434.118346 732.989087,435.171543 C731.824118,436.224739 731.205613,437.852383 731.133553,440.054521 L731.133553,449.640957 L730.052659,449.640957 Z M760.101507,424.902926 L770.658237,446.37367 L781.178936,424.902926 L782.29586,424.902926 L785.466482,449.640957 L784.385588,449.640957 L781.467175,426.590426 L771.234713,447.307181 L770.04573,447.307181 L759.777239,426.518617 L756.822796,449.640957 L755.777932,449.640957 L758.948554,424.902926 L760.101507,424.902926 Z M804.165945,449.640957 L804.165945,445.476064 C803.421325,446.840432 802.364462,447.935501 800.995323,448.761303 C799.626184,449.587105 798.112948,450 796.455569,450 C794.029551,450 791.963863,449.14429 790.258445,447.432846 C788.553026,445.721401 787.700329,443.656927 787.700329,441.239362 C787.700329,438.845733 788.559031,436.793227 790.276459,435.081782 C791.993888,433.370337 794.053571,432.514628 796.455569,432.514628 C798.112948,432.514628 799.626184,432.927522 800.995323,433.753324 C802.364462,434.579126 803.421325,435.674195 804.165945,437.038564 L804.165945,432.87367 L805.246839,432.87367 L805.246839,449.640957 L804.165945,449.640957 Z M791.01507,435.853723 C789.525831,437.337773 788.781223,439.132968 788.781223,441.239362 C788.781223,443.345755 789.531836,445.152918 791.033085,446.660904 C792.534334,448.168891 794.341811,448.922872 796.455569,448.922872 C798.521288,448.922872 800.304744,448.204794 801.805993,446.768617 C803.307242,445.33244 804.093885,443.597085 804.165945,441.5625 L804.165945,441.239362 C804.165945,439.132968 803.409327,437.331789 801.896068,435.835771 C800.382809,434.339753 798.569327,433.591755 796.455569,433.591755 C794.341811,433.591755 792.528329,434.345737 791.01507,435.853723 Z M820.73965,432.87367 L815.371211,440.341755 L822.072752,449.640957 L820.70362,449.640957 L814.686645,441.31117 L808.633639,449.640957 L807.264507,449.640957 L814.002079,440.341755 L808.59761,432.87367 L809.966742,432.87367 L814.686645,439.408245 L819.370518,432.87367 L820.73965,432.87367 Z M823.730123,448.994681 C823.730123,448.683509 823.838211,448.432182 824.054391,448.240691 C824.270571,448.049201 824.534787,447.953457 824.847047,447.953457 C825.183326,447.953457 825.459552,448.049201 825.675732,448.240691 C825.891912,448.432182 826,448.683509 826,448.994681 C826,449.281916 825.891912,449.521276 825.675732,449.712766 C825.459552,449.904256 825.183326,450 824.847047,450 C824.534787,450 824.270571,449.904256 824.054391,449.712766 C823.838211,449.521276 823.730123,449.281916 823.730123,448.994681 Z" id="path-1"></path>
        <filter x="-0.7%" y="-5.6%" width="101.4%" height="111.1%" filterUnits="objectBoundingBox" id="filter-2">
            <feOffset dx="0" dy="0" in="SourceAlpha" result="shadowOffsetOuter1"></feOffset>
            <feGaussianBlur stdDeviation="0.5" in="shadowOffsetOuter1" result="shadowBlurOuter1"></feGaussianBlur>
            <feColorMatrix values="0 0 0 0 1   0 0 0 0 1   0 0 0 0 1  0 0 0 0.04 0" type="matrix" in="shadowBlurOuter1"></feColorMatrix>
        </filter>
    </defs>
    <g id="Page-1" stroke="none" stroke-width="1" fill="none" fill-rule="evenodd">
        <g id="Desktop-HD" transform="translate(-617.000000, -422.000000)">
            <g id="Hello.-I’m-Max.">
                <use fill="black" fill-opacity="1" filter="url(#filter-2)" xlink:href="#path-1"></use>
                <use fill="#F9FDFF" fill-rule="evenodd" xlink:href="#path-1"></use>
            </g>
        </g>
    </g>
</svg>