<?xml version="1.0" encoding="UTF-8"?>

<svg width="300px" height="25px" viewBox="0 0 330 29" version="1.1" xmlns="http://www.w3.org/2000/svg" xmlns:xlink="http://www.w3.org/1999/xlink">
    <!-- Generator: Sketch 48.1 (47250) - http://www.bohemiancoding.com/sketch -->
    <desc>Created with Sketch.</desc>
    <defs>
        <path d="M559.628474,474.643379 L557,474.643379 L557,473.489051 L559.628474,473.489051 L559.628474,471.574557 C559.628474,467.858167 561.110471,466 564.074509,466 L565.220971,466 L565.220971,467.23879 L564.074509,467.23879 C561.94935,467.23879 560.886786,468.684031 560.886786,471.574557 L560.886786,473.489051 L564.382097,473.489051 L564.382097,474.643379 L560.886786,474.643379 L560.886786,486.637122 L559.628474,486.637122 L559.628474,474.643379 Z M576.909292,473.489051 L576.909292,486.637122 L575.623018,486.637122 L575.623018,484.046924 C575.268824,485.022945 574.658316,485.745566 573.791475,486.214807 C572.924633,486.684048 571.99722,486.918665 571.009207,486.918665 C569.4433,486.918665 568.18034,486.4072 567.22029,485.384254 C566.26024,484.361309 565.780222,482.967683 565.780222,481.203337 L565.780222,473.489051 L567.066496,473.489051 L567.066496,481.203337 C567.066496,482.573521 567.430005,483.657452 568.157033,484.455162 C568.884062,485.252872 569.834777,485.651721 571.009207,485.651721 C572.295488,485.651721 573.381354,485.262256 574.266837,484.483316 C575.15232,483.704376 575.604376,482.498444 575.623018,480.865485 L575.623018,473.489051 L576.909292,473.489051 Z M581.467178,486.637122 L580.208866,486.637122 L580.208866,466 L581.467178,466 L581.467178,486.637122 Z M586.025064,486.637122 L584.766752,486.637122 L584.766752,466 L586.025064,466 L586.025064,486.637122 Z M599.083547,473.207508 C600.164769,473.207508 601.07354,473.493741 601.80989,474.066215 C602.546239,474.638689 602.979653,475.450464 603.110145,476.501564 L601.851833,476.501564 C601.739983,475.882166 601.432399,475.384778 600.929071,475.009385 C600.425744,474.633992 599.810575,474.446298 599.083547,474.446298 C598.337877,474.446298 597.690086,474.624607 597.140154,474.98123 C596.590222,475.337854 596.277978,475.797703 596.203411,476.360792 C596.016993,477.749746 596.771973,478.650676 598.468372,479.063608 L600.341859,479.514077 C602.48566,480.039627 603.557545,481.250251 603.557545,483.145985 C603.557545,484.272164 603.133452,485.182478 602.285252,485.876955 C601.437052,486.571432 600.332545,486.918665 598.971697,486.918665 C597.83455,486.918665 596.82325,486.594894 595.937767,485.947341 C595.052284,485.299788 594.534983,484.412936 594.385849,483.286757 L595.560274,483.286757 C596.100884,484.882177 597.265976,485.679875 599.055585,485.679875 C600.043597,485.679875 600.8312,485.44995 601.418415,484.990094 C602.00563,484.530238 602.299233,483.915541 602.299233,483.145985 C602.299233,481.907189 601.553574,481.109491 600.062234,480.752868 L598.160785,480.302398 C597.135489,480.058393 596.310603,479.640775 595.686105,479.049531 C595.061606,478.458287 594.814607,477.505742 594.945099,476.191867 C595.075591,475.309693 595.532307,474.591765 596.315261,474.03806 C597.098214,473.484356 598.020967,473.207508 599.083547,473.207508 Z M610.967605,473.489051 L610.967605,474.643379 L607.919694,474.643379 L607.919694,486.637122 L606.661382,486.637122 L606.661382,474.643379 L604.28457,474.643379 L604.28457,473.489051 L606.661382,473.489051 L606.661382,468.196038 L607.919694,468.196038 L607.919694,473.489051 L610.967605,473.489051 Z M623.690538,486.637122 L623.690538,483.793535 C623.168568,484.750787 622.404268,485.510946 621.397614,486.074035 C620.390959,486.637125 619.309754,486.918665 618.153965,486.918665 C616.271148,486.918665 614.677302,486.261738 613.372379,484.947862 C612.067457,483.633987 611.415005,482.001053 611.415005,480.049009 C611.415005,478.096966 612.067457,476.468724 613.372379,475.164234 C614.677302,473.859743 616.271148,473.207508 618.153965,473.207508 C619.328395,473.207508 620.414261,473.484356 621.411595,474.03806 C622.408928,474.591765 623.168568,475.347232 623.690538,476.304484 L623.690538,473.489051 L624.976812,473.489051 L624.976812,486.637122 L623.690538,486.637122 Z M614.267179,476.107404 C613.223241,477.158504 612.70128,478.472359 612.70128,480.049009 C612.70128,481.62566 613.232562,482.9489 614.295142,484.01877 C615.357721,485.088639 616.643983,485.623566 618.153965,485.623566 C619.682589,485.623566 620.982831,485.112101 622.054732,484.089155 C623.126633,483.06621 623.671896,481.766431 623.690538,480.189781 C623.690538,478.538052 623.154595,477.177273 622.082694,476.107404 C621.010794,475.037534 619.70123,474.502607 618.153965,474.502607 C616.625341,474.502607 615.329759,475.037534 614.267179,476.107404 Z M637.783632,484.384776 L638.622507,485.342023 C637.373509,486.393123 635.882191,486.918665 634.148509,486.918665 C632.24705,486.918665 630.639223,486.280507 629.324979,485.004171 C628.010736,483.727835 627.353624,482.066746 627.353624,480.020855 C627.353624,477.993733 628.010736,476.351414 629.324979,475.093848 C630.639223,473.836282 632.24705,473.207508 634.148509,473.207508 C635.807624,473.207508 637.289622,473.723665 638.594544,474.755996 L637.783632,475.713243 C636.721052,474.887379 635.509356,474.474453 634.148509,474.474453 C632.601243,474.474453 631.29168,474.985918 630.219779,476.008863 C629.147878,477.031809 628.611936,478.369126 628.611936,480.020855 C628.611936,481.691354 629.147878,483.04744 630.219779,484.089155 C631.29168,485.130871 632.601243,485.651721 634.148509,485.651721 C635.527998,485.651721 636.739694,485.22941 637.783632,484.384776 Z M643.59983,479.20438 L651.009889,486.637122 L649.248253,486.637122 L642.089856,479.485923 L642.089856,486.637122 L640.831544,486.637122 L640.831544,466 L642.089856,466 L642.089856,478.922836 L647.402728,473.489051 L649.22029,473.489051 L643.59983,479.20438 Z M659.258824,473.489051 L659.258824,487.453597 C659.258824,491.151218 657.776827,493 654.812789,493 L653.666327,493 L653.666327,491.76121 L654.812789,491.76121 C656.937948,491.76121 658.000512,490.325353 658.000512,487.453597 L658.000512,473.489051 L659.258824,473.489051 Z M657.832737,469.378519 C657.627678,469.172053 657.52515,468.918667 657.52515,468.618352 C657.52515,468.318038 657.632339,468.069344 657.846719,467.872263 C658.061099,467.675181 658.32674,467.576642 658.64365,467.576642 C658.960559,467.576642 659.22154,467.675181 659.426599,467.872263 C659.631659,468.069344 659.734187,468.318038 659.734187,468.618352 C659.734187,468.918667 659.631659,469.167361 659.426599,469.364442 C659.22154,469.561523 658.960559,469.660063 658.64365,469.660063 C658.32674,469.660063 658.056438,469.566216 657.832737,469.378519 Z M673.911169,486.637122 L673.911169,483.793535 C673.3892,484.750787 672.624899,485.510946 671.618245,486.074035 C670.61159,486.637125 669.530385,486.918665 668.374596,486.918665 C666.491779,486.918665 664.897933,486.261738 663.593011,484.947862 C662.288088,483.633987 661.635636,482.001053 661.635636,480.049009 C661.635636,478.096966 662.288088,476.468724 663.593011,475.164234 C664.897933,473.859743 666.491779,473.207508 668.374596,473.207508 C669.549026,473.207508 670.634892,473.484356 671.632226,474.03806 C672.62956,474.591765 673.3892,475.347232 673.911169,476.304484 L673.911169,473.489051 L675.197443,473.489051 L675.197443,486.637122 L673.911169,486.637122 Z M664.48781,476.107404 C663.443872,477.158504 662.921911,478.472359 662.921911,480.049009 C662.921911,481.62566 663.453193,482.9489 664.515773,484.01877 C665.578352,485.088639 666.864614,485.623566 668.374596,485.623566 C669.90322,485.623566 671.203462,485.112101 672.275363,484.089155 C673.347264,483.06621 673.892527,481.766431 673.911169,480.189781 C673.911169,478.538052 673.375226,477.177273 672.303326,476.107404 C671.231425,475.037534 669.921861,474.502607 668.374596,474.502607 C666.845972,474.502607 665.55039,475.037534 664.48781,476.107404 Z M683.13879,485.201251 L688.032226,473.489051 L689.402387,473.489051 L683.893777,486.637122 L682.411765,486.637122 L676.931118,473.489051 L678.30128,473.489051 L683.13879,485.201251 Z M702.097358,486.637122 L702.097358,483.793535 C701.575389,484.750787 700.811088,485.510946 699.804434,486.074035 C698.797779,486.637125 697.716574,486.918665 696.560785,486.918665 C694.677968,486.918665 693.084122,486.261738 691.779199,484.947862 C690.474277,483.633987 689.821825,482.001053 689.821825,480.049009 C689.821825,478.096966 690.474277,476.468724 691.779199,475.164234 C693.084122,473.859743 694.677968,473.207508 696.560785,473.207508 C697.735215,473.207508 698.821081,473.484356 699.818415,474.03806 C700.815749,474.591765 701.575389,475.347232 702.097358,476.304484 L702.097358,473.489051 L703.383632,473.489051 L703.383632,486.637122 L702.097358,486.637122 Z M692.673999,476.107404 C691.630061,477.158504 691.1081,478.472359 691.1081,480.049009 C691.1081,481.62566 691.639382,482.9489 692.701962,484.01877 C693.764541,485.088639 695.050803,485.623566 696.560785,485.623566 C698.089409,485.623566 699.389651,485.112101 700.461552,484.089155 C701.533453,483.06621 702.078716,481.766431 702.097358,480.189781 C702.097358,478.538052 701.561415,477.177273 700.489515,476.107404 C699.417614,475.037534 698.10805,474.502607 696.560785,474.502607 C695.032161,474.502607 693.736579,475.037534 692.673999,476.107404 Z M710.290367,473.207508 C711.371589,473.207508 712.28036,473.493741 713.01671,474.066215 C713.753059,474.638689 714.186473,475.450464 714.316965,476.501564 L713.058653,476.501564 C712.946803,475.882166 712.639219,475.384778 712.135891,475.009385 C711.632564,474.633992 711.017395,474.446298 710.290367,474.446298 C709.544697,474.446298 708.896906,474.624607 708.346974,474.98123 C707.797042,475.337854 707.484798,475.797703 707.410231,476.360792 C707.223813,477.749746 707.978793,478.650676 709.675192,479.063608 L711.548679,479.514077 C713.692481,480.039627 714.764365,481.250251 714.764365,483.145985 C714.764365,484.272164 714.340272,485.182478 713.492072,485.876955 C712.643872,486.571432 711.539365,486.918665 710.178517,486.918665 C709.04137,486.918665 708.03007,486.594894 707.144587,485.947341 C706.259104,485.299788 705.741803,484.412936 705.592669,483.286757 L706.767094,483.286757 C707.307704,484.882177 708.472796,485.679875 710.262405,485.679875 C711.250417,485.679875 712.03802,485.44995 712.625235,484.990094 C713.21245,484.530238 713.506053,483.915541 713.506053,483.145985 C713.506053,481.907189 712.760394,481.109491 711.269054,480.752868 L709.367605,480.302398 C708.342309,480.058393 707.517423,479.640775 706.892925,479.049531 C706.268426,478.458287 706.021427,477.505742 706.151919,476.191867 C706.282411,475.309693 706.739127,474.591765 707.522081,474.03806 C708.305034,473.484356 709.227787,473.207508 710.290367,473.207508 Z M726.592498,484.384776 L727.431373,485.342023 C726.182375,486.393123 724.691058,486.918665 722.957375,486.918665 C721.055916,486.918665 719.448089,486.280507 718.133845,485.004171 C716.819602,483.727835 716.16249,482.066746 716.16249,480.020855 C716.16249,477.993733 716.819602,476.351414 718.133845,475.093848 C719.448089,473.836282 721.055916,473.207508 722.957375,473.207508 C724.616491,473.207508 726.098488,473.723665 727.40341,474.755996 L726.592498,475.713243 C725.529918,474.887379 724.318223,474.474453 722.957375,474.474453 C721.410109,474.474453 720.100546,474.985918 719.028645,476.008863 C717.956744,477.031809 717.420802,478.369126 717.420802,480.020855 C717.420802,481.691354 717.956744,483.04744 719.028645,484.089155 C720.100546,485.130871 721.410109,485.651721 722.957375,485.651721 C724.336864,485.651721 725.54856,485.22941 726.592498,484.384776 Z M730.926684,486.637122 L729.64041,486.637122 L729.64041,473.489051 L730.926684,473.489051 L730.926684,476.895725 C731.224952,475.750776 731.737593,474.849847 732.464621,474.192909 C733.191649,473.535972 734.105082,473.207508 735.204945,473.207508 C735.950615,473.207508 736.593746,473.329509 737.134357,473.573514 L736.910657,474.812304 C736.407329,474.605838 735.838765,474.502607 735.204945,474.502607 C734.40335,474.502607 733.713615,474.718455 733.135721,475.150156 C732.557827,475.581858 732.115092,476.159016 731.807503,476.881648 C731.499914,477.604279 731.276216,478.350361 731.136403,479.119917 C730.99659,479.889472 730.926684,480.705939 730.926684,481.569343 L730.926684,486.637122 Z M739.818756,486.637122 L738.560444,486.637122 L738.560444,473.489051 L739.818756,473.489051 L739.818756,486.637122 Z M738.364707,469.378519 C738.159647,469.172053 738.057119,468.918667 738.057119,468.618352 C738.057119,468.318038 738.164308,468.069344 738.378688,467.872263 C738.593068,467.675181 738.858709,467.576642 739.175619,467.576642 C739.492529,467.576642 739.753509,467.675181 739.958568,467.872263 C740.163628,468.069344 740.266156,468.318038 740.266156,468.618352 C740.266156,468.918667 740.163628,469.167361 739.958568,469.364442 C739.753509,469.561523 739.492529,469.660063 739.175619,469.660063 C738.858709,469.660063 738.588408,469.566216 738.364707,469.378519 Z M744.404605,473.489051 L744.404605,476.332638 C744.926574,475.375386 745.690874,474.615227 746.697529,474.052138 C747.704183,473.489048 748.785389,473.207508 749.941177,473.207508 C751.823994,473.207508 753.41784,473.864436 754.722763,475.178311 C756.027685,476.492186 756.680137,478.134505 756.680137,480.105318 C756.680137,482.057361 756.027685,483.680911 754.722763,484.976017 C753.41784,486.271122 751.823994,486.918665 749.941177,486.918665 C748.766747,486.918665 747.680881,486.646509 746.683547,486.10219 C745.686214,485.55787 744.926574,484.807096 744.404605,483.849844 L744.404605,493 L743.11833,493 L743.11833,473.489051 L744.404605,473.489051 Z M753.800001,484.046924 C754.86258,482.995824 755.393862,481.681968 755.393862,480.105318 C755.393862,478.528668 754.86258,477.200735 753.800001,476.121481 C752.737421,475.042226 751.451159,474.502607 749.941177,474.502607 C748.412553,474.502607 747.112311,475.014072 746.04041,476.037018 C744.968509,477.059963 744.423246,478.369127 744.404605,479.964546 C744.404605,481.597506 744.945207,482.9489 746.026429,484.01877 C747.10765,485.088639 748.412553,485.623566 749.941177,485.623566 C751.469801,485.623566 752.756062,485.098024 753.800001,484.046924 Z M763.950384,473.489051 L763.950384,474.643379 L760.902473,474.643379 L760.902473,486.637122 L759.644161,486.637122 L759.644161,474.643379 L757.26735,474.643379 L757.26735,473.489051 L759.644161,473.489051 L759.644161,468.196038 L760.902473,468.196038 L760.902473,473.489051 L763.950384,473.489051 Z M782.573402,486.637122 L782.573402,483.793535 C782.051433,484.750787 781.287133,485.510946 780.280478,486.074035 C779.273824,486.637125 778.192618,486.918665 777.03683,486.918665 C775.154013,486.918665 773.560167,486.261738 772.255244,484.947862 C770.950321,483.633987 770.29787,482.001053 770.29787,480.049009 C770.29787,478.096966 770.950321,476.468724 772.255244,475.164234 C773.560167,473.859743 775.154013,473.207508 777.03683,473.207508 C778.21126,473.207508 779.297126,473.484356 780.294459,474.03806 C781.291793,474.591765 782.051433,475.347232 782.573402,476.304484 L782.573402,466 L783.859677,466 L783.859677,486.637122 L782.573402,486.637122 Z M773.150044,476.107404 C772.106106,477.158504 771.584144,478.472359 771.584144,480.049009 C771.584144,481.62566 772.115426,482.9489 773.178006,484.01877 C774.240586,485.088639 775.526848,485.623566 777.03683,485.623566 C778.565453,485.623566 779.865696,485.112101 780.937597,484.089155 C782.009497,483.06621 782.55476,481.766431 782.573402,480.189781 C782.573402,478.538052 782.03746,477.177273 780.965559,476.107404 C779.893658,475.037534 778.584095,474.502607 777.03683,474.502607 C775.508206,474.502607 774.212624,475.037534 773.150044,476.107404 Z M796.358909,475.82586 C795.426822,474.924917 794.252409,474.474453 792.835636,474.474453 C791.418863,474.474453 790.216488,474.924917 789.228475,475.82586 C788.240462,476.726803 787.681218,477.928043 787.550726,479.429614 L797.952771,479.429614 C797.822279,477.909273 797.290997,476.708034 796.358909,475.82586 Z M799.239046,480.020855 C799.239046,480.28363 799.229725,480.480708 799.211083,480.612096 L787.550726,480.612096 C787.662576,482.113668 788.21716,483.328984 789.214494,484.258081 C790.211827,485.187179 791.418863,485.651721 792.835636,485.651721 C793.805007,485.651721 794.690477,485.431181 795.492072,484.990094 C796.293668,484.549007 796.927478,483.934311 797.393521,483.145985 L798.595908,483.5683 C798.036656,484.6194 797.249054,485.44056 796.233078,486.031804 C795.217103,486.623048 794.084633,486.918665 792.835636,486.918665 C790.971461,486.918665 789.410237,486.280507 788.151919,485.004171 C786.893601,483.727835 786.264451,482.066746 786.264451,480.020855 C786.264451,477.993733 786.893601,476.351414 788.151919,475.093848 C789.410237,473.836282 790.971461,473.207508 792.835636,473.207508 C794.718453,473.207508 796.256374,473.831589 797.449446,475.079771 C798.642518,476.327952 799.239046,477.974964 799.239046,480.020855 Z M805.782268,485.201251 L810.675704,473.489051 L812.045866,473.489051 L806.537255,486.637122 L805.055244,486.637122 L799.574596,473.489051 L800.944758,473.489051 L805.782268,485.201251 Z M822.587724,475.82586 C821.655637,474.924917 820.481224,474.474453 819.064451,474.474453 C817.647677,474.474453 816.445303,474.924917 815.45729,475.82586 C814.469277,476.726803 813.910033,477.928043 813.77954,479.429614 L824.181586,479.429614 C824.051094,477.909273 823.519812,476.708034 822.587724,475.82586 Z M825.46786,480.020855 C825.46786,480.28363 825.45854,480.480708 825.439898,480.612096 L813.77954,480.612096 C813.891391,482.113668 814.445975,483.328984 815.443308,484.258081 C816.440642,485.187179 817.647677,485.651721 819.064451,485.651721 C820.033822,485.651721 820.919292,485.431181 821.720887,484.990094 C822.522482,484.549007 823.156292,483.934311 823.622336,483.145985 L824.824723,483.5683 C824.265471,484.6194 823.477868,485.44056 822.461893,486.031804 C821.445917,486.623048 820.313448,486.918665 819.064451,486.918665 C817.200275,486.918665 815.639052,486.280507 814.380734,485.004171 C813.122416,483.727835 812.493266,482.066746 812.493266,480.020855 C812.493266,477.993733 813.122416,476.351414 814.380734,475.093848 C815.639052,473.836282 817.200275,473.207508 819.064451,473.207508 C820.947268,473.207508 822.485189,473.831589 823.678261,475.079771 C824.871333,476.327952 825.46786,477.974964 825.46786,480.020855 Z M828.907247,486.637122 L827.648935,486.637122 L827.648935,466 L828.907247,466 L828.907247,486.637122 Z M834.136233,484.103233 C835.217454,485.135563 836.540999,485.651721 838.106906,485.651721 C839.672813,485.651721 840.991697,485.130871 842.063598,484.089155 C843.135499,483.04744 843.671441,481.691354 843.671441,480.020855 C843.671441,478.369126 843.135499,477.031809 842.063598,476.008863 C840.991697,474.985918 839.672813,474.474453 838.106906,474.474453 C836.540999,474.474453 835.222115,474.985918 834.150214,476.008863 C833.078313,477.031809 832.542371,478.369126 832.542371,480.020855 C832.542371,481.691354 833.073653,483.052132 834.136233,484.103233 Z M842.944416,485.004171 C841.639494,486.280507 840.027006,486.918665 838.106906,486.918665 C836.186806,486.918665 834.569658,486.280507 833.255414,485.004171 C831.941171,483.727835 831.284059,482.066746 831.284059,480.020855 C831.284059,477.993733 831.941171,476.351414 833.255414,475.093848 C834.569658,473.836282 836.186806,473.207508 838.106906,473.207508 C840.027006,473.207508 841.644154,473.836282 842.958398,475.093848 C844.272641,476.351414 844.929753,477.993733 844.929753,480.020855 C844.929753,482.066746 844.267981,483.727835 842.944416,485.004171 Z M848.59284,473.489051 L848.59284,476.332638 C849.114809,475.375386 849.879109,474.615227 850.885764,474.052138 C851.892418,473.489048 852.973624,473.207508 854.129412,473.207508 C856.012229,473.207508 857.606075,473.864436 858.910998,475.178311 C860.21592,476.492186 860.868372,478.134505 860.868372,480.105318 C860.868372,482.057361 860.21592,483.680911 858.910998,484.976017 C857.606075,486.271122 856.012229,486.918665 854.129412,486.918665 C852.954982,486.918665 851.869116,486.646509 850.871782,486.10219 C849.874449,485.55787 849.114809,484.807096 848.59284,483.849844 L848.59284,493 L847.306565,493 L847.306565,473.489051 L848.59284,473.489051 Z M857.988236,484.046924 C859.050815,482.995824 859.582097,481.681968 859.582097,480.105318 C859.582097,478.528668 859.050815,477.200735 857.988236,476.121481 C856.925656,475.042226 855.639394,474.502607 854.129412,474.502607 C852.600789,474.502607 851.300546,475.014072 850.228645,476.037018 C849.156744,477.059963 848.611481,478.369127 848.59284,479.964546 C848.59284,481.597506 849.133442,482.9489 850.214664,484.01877 C851.295885,485.088639 852.600789,485.623566 854.129412,485.623566 C855.658036,485.623566 856.944297,485.098024 857.988236,484.046924 Z M872.444842,475.82586 C871.512755,474.924917 870.338342,474.474453 868.921569,474.474453 C867.504796,474.474453 866.302421,474.924917 865.314408,475.82586 C864.326395,476.726803 863.767151,477.928043 863.636659,479.429614 L874.038704,479.429614 C873.908212,477.909273 873.37693,476.708034 872.444842,475.82586 Z M875.324979,480.020855 C875.324979,480.28363 875.315658,480.480708 875.297016,480.612096 L863.636659,480.612096 C863.748509,482.113668 864.303093,483.328984 865.300427,484.258081 C866.29776,485.187179 867.504796,485.651721 868.921569,485.651721 C869.89094,485.651721 870.77641,485.431181 871.578005,484.990094 C872.379601,484.549007 873.013411,483.934311 873.479454,483.145985 L874.681841,483.5683 C874.122589,484.6194 873.334987,485.44056 872.319011,486.031804 C871.303036,486.623048 870.170566,486.918665 868.921569,486.918665 C867.057394,486.918665 865.49617,486.280507 864.237852,485.004171 C862.979534,483.727835 862.350384,482.066746 862.350384,480.020855 C862.350384,477.993733 862.979534,476.351414 864.237852,475.093848 C865.49617,473.836282 867.057394,473.207508 868.921569,473.207508 C870.804386,473.207508 872.342307,473.831589 873.535379,475.079771 C874.728452,476.327952 875.324979,477.974964 875.324979,480.020855 Z M878.792328,486.637122 L877.506053,486.637122 L877.506053,473.489051 L878.792328,473.489051 L878.792328,476.895725 C879.090596,475.750776 879.603236,474.849847 880.330264,474.192909 C881.057293,473.535972 881.970725,473.207508 883.070588,473.207508 C883.816258,473.207508 884.459389,473.329509 885,473.573514 L884.7763,474.812304 C884.272973,474.605838 883.704408,474.502607 883.070588,474.502607 C882.268993,474.502607 881.579259,474.718455 881.001364,475.150156 C880.42347,475.581858 879.980735,476.159016 879.673146,476.881648 C879.365557,477.604279 879.141859,478.350361 879.002046,479.119917 C878.862233,479.889472 878.792328,480.705939 878.792328,481.569343 L878.792328,486.637122 Z" id="path-1"></path>
        <filter x="-0.5%" y="-5.6%" width="100.9%" height="111.1%" filterUnits="objectBoundingBox" id="filter-2">
            <feOffset dx="0" dy="0" in="SourceAlpha" result="shadowOffsetOuter1"></feOffset>
            <feGaussianBlur stdDeviation="0.5" in="shadowOffsetOuter1" result="shadowBlurOuter1"></feGaussianBlur>
            <feColorMatrix values="0 0 0 0 0.533333333   0 0 0 0 0.549019608   0 0 0 0 0.556862745  0 0 0 0.03 0" type="matrix" in="shadowBlurOuter1"></feColorMatrix>
        </filter>
    </defs>
    <g id="Page-1" stroke="none" stroke-width="1" fill="none" fill-rule="evenodd">
        <g id="Desktop-HD" transform="translate(-556.000000, -465.000000)">
            <g id="full-stack-javascrip">
                <use fill="black" fill-opacity="1" filter="url(#filter-2)" xlink:href="#path-1"></use>
                <use fill="#888C8E" fill-rule="evenodd" xlink:href="#path-1"></use>
            </g>
        </g>
    </g>
</svg>