<?xml version="1.0" encoding="UTF-8"?>
<svg width="47px" height="18px" viewBox="0 0 47 18" version="1.1" xmlns="http://www.w3.org/2000/svg" xmlns:xlink="http://www.w3.org/1999/xlink">
    <!-- Generator: Sketch 48.1 (47250) - http://www.bohemiancoding.com/sketch -->
    <title>work</title>
    <desc>Created with Sketch.</desc>
    <defs></defs>
    <g id="Desktop-HD" stroke="none" stroke-width="1" fill="none" fill-rule="evenodd" transform="translate(-689.000000, -799.000000)">
        <path d="M705.7332,805.433276 L706.820468,805.433276 L702.856471,816.011486 L701.905112,816.011486 L698.258234,806.565847 L694.724614,816.011486 L693.773254,816.011486 L689.696,805.433276 L690.805919,805.433276 L694.226283,814.448538 L697.601343,805.433276 L698.937777,805.433276 L702.35814,814.425887 L705.7332,805.433276 Z M709.629244,813.972859 C710.505103,814.803415 711.577259,815.218686 712.845744,815.218686 C714.11423,815.218686 715.182611,814.799639 716.050919,813.961533 C716.919228,813.123426 717.353375,812.032394 717.353375,810.688404 C717.353375,809.359514 716.919228,808.283583 716.050919,807.460577 C715.182611,806.637572 714.11423,806.226075 712.845744,806.226075 C711.577259,806.226075 710.508878,806.637572 709.640569,807.460577 C708.772261,808.283583 708.338113,809.359514 708.338113,810.688404 C708.338113,812.032394 708.768486,813.127202 709.629244,813.972859 Z M716.764439,814.697704 C715.707367,815.724573 714.401149,816.238 712.845744,816.238 C711.290339,816.238 709.980346,815.724573 708.915724,814.697704 C707.851102,813.670835 707.318799,812.334415 707.318799,810.688404 C707.318799,809.057494 707.851102,807.736175 708.915724,806.724406 C709.980346,805.712638 711.290339,805.206762 712.845744,805.206762 C714.401149,805.206762 715.711143,805.712638 716.775764,806.724406 C717.840386,807.736175 718.372689,809.057494 718.372689,810.688404 C718.372689,812.334415 717.836611,813.670835 716.764439,814.697704 Z M721.340024,816.011486 L720.298059,816.011486 L720.298059,805.433276 L721.340024,805.433276 L721.340024,808.174097 C721.58164,807.252935 721.996912,806.528097 722.585852,805.999561 C723.174792,805.471026 723.91473,805.206762 724.80569,805.206762 C725.409731,805.206762 725.930708,805.304917 726.368638,805.50123 L726.187427,806.497892 C725.779699,806.331781 725.319125,806.248727 724.80569,806.248727 C724.156347,806.248727 723.597617,806.422386 723.129486,806.769709 C722.661354,807.117033 722.302711,807.581382 722.053544,808.162771 C721.804377,808.74416 721.623167,809.344417 721.50991,809.963558 C721.396652,810.5827 721.340024,811.239585 721.340024,811.934231 L721.340024,816.011486 Z M729.76635,810.031513 L735.768974,816.011486 L734.341935,816.011486 L728.543174,810.258027 L728.543174,816.011486 L727.52386,816.011486 L727.52386,799.408 L728.543174,799.408 L728.543174,809.804999 L732.846942,805.433276 L734.319284,805.433276 L729.76635,810.031513 Z" id="work" fill="#FFFFFF"></path>
    </g>
</svg>