<?xml version="1.0" encoding="UTF-8"?>
<svg width="30px" height="29px" viewBox="0 0 30 29" version="1.1" xmlns="http://www.w3.org/2000/svg" xmlns:xlink="http://www.w3.org/1999/xlink">
    <!-- Generator: Sketch 48.2 (47327) - http://www.bohemiancoding.com/sketch -->
    <desc>Created with Sketch.</desc>
    <defs></defs>
    <g id="Page-1" stroke="none" stroke-width="1" fill="none" fill-rule="evenodd">
        <g id="email" fill="#FFFFFF" fill-rule="nonzero">
            <path d="M28.8309859,8.66549296 L16.0676056,0.340140845 C15.3549296,-0.113380282 14.4802817,-0.113380282 13.7676056,0.340140845 L1.03661972,8.66549296 C0.388732394,9.08661972 0,9.83169014 0,10.6091549 L0,26.45 C0,27.7133803 1.03661972,28.75 2.3,28.75 L27.5676056,28.75 C28.8309859,28.75 29.8676056,27.7133803 29.8676056,26.45 L29.8676056,10.5767606 C29.8676056,9.79929577 29.4788732,9.08661972 28.8309859,8.66549296 Z M26.3690141,12.7471831 L15.5816901,20.9429577 C15.3873239,21.1049296 15.1605634,21.1697183 14.9338028,21.1697183 C14.7070423,21.1697183 14.4802817,21.1049296 14.2859155,20.9429577 L3.49859155,12.7471831 C3.01267606,12.3908451 2.91549296,11.7105634 3.30422535,11.2246479 C3.66056338,10.7387324 4.34084507,10.6415493 4.82676056,11.0302817 L14.9338028,18.7077465 L25.0408451,10.9978873 C25.5267606,10.6415493 26.2070423,10.7387324 26.5633803,11.1922535 C26.9197183,11.7105634 26.8225352,12.3908451 26.3690141,12.7471831 Z" id="Shape"></path>
        </g>
    </g>
</svg>