<?xml version="1.0" encoding="UTF-8"?>
<svg width="29px" height="28px" viewBox="0 0 29 28" version="1.1" xmlns="http://www.w3.org/2000/svg" xmlns:xlink="http://www.w3.org/1999/xlink">
    <!-- Generator: Sketch 48.1 (47250) - http://www.bohemiancoding.com/sketch -->
    <title>github</title>
    <desc>Created with Sketch.</desc>
    <defs></defs>
    <g id="Desktop-HD-Copy-4" stroke="none" stroke-width="1" fill="none" fill-rule="evenodd" transform="translate(-705.000000, -695.000000)" opacity="1">
        <g id="Group-5" transform="translate(561.000000, 695.000000)" fill="#F9FDFF">
            <path d="M158.352979,0 C150.42747,0 144,6.4265887 144,14.3547415 C144,20.6967351 148.112559,26.0764586 153.816564,27.9745626 C154.534741,28.1067425 154.796458,27.6634991 154.796458,27.2828209 C154.796458,26.9417966 154.784121,26.0394483 154.777071,24.841898 C150.784356,25.7089984 149.941929,22.9173581 149.941929,22.9173581 C149.28896,21.2589404 148.347839,20.8174594 148.347839,20.8174594 C147.044545,19.9274478 148.446533,19.9450718 148.446533,19.9450718 C149.887295,20.0464098 150.645126,21.4246059 150.645126,21.4246059 C151.925509,23.6179117 154.00514,22.9843292 154.822894,22.616869 C154.953311,21.689847 155.324296,21.0571457 155.734054,20.6984975 C152.546755,20.3363244 149.195553,19.1044074 149.195553,13.6039595 C149.195553,12.0371866 149.755115,10.7550411 150.673325,9.752236 C150.525283,9.38918176 150.032692,7.92903402 150.814317,5.95338451 C150.814317,5.95338451 152.018916,5.56741909 154.76121,7.42498785 C155.905888,7.10599359 157.13428,6.94737767 158.354742,6.94120927 C159.574322,6.94737767 160.801833,7.10599359 161.948274,7.42498785 C164.688804,5.56741909 165.891642,5.95338451 165.891642,5.95338451 C166.675028,7.92903402 166.182438,9.38918176 166.035277,9.752236 C166.95525,10.7550411 167.510405,12.0371866 167.510405,13.6039595 C167.510405,19.1185066 164.153916,20.3319184 160.956924,20.6870419 C161.471545,21.1302853 161.93065,22.0061977 161.93065,23.3447399 C161.93065,25.2639926 161.913026,26.8122603 161.913026,27.2828209 C161.913026,27.6670239 162.172098,28.1137921 162.899969,27.9736814 C168.599568,26.0711714 172.708602,20.6949727 172.708602,14.3547415 C172.708602,6.4265887 166.281132,0 158.352979,0" id="github"></path>
        </g>
    </g>
</svg>