<?xml version="1.0" encoding="UTF-8"?>
<svg width="28px" height="28px" viewBox="0 0 28 28" version="1.1" xmlns="http://www.w3.org/2000/svg" xmlns:xlink="http://www.w3.org/1999/xlink">
    <!-- Generator: Sketch 48.1 (47250) - http://www.bohemiancoding.com/sketch -->
    <title>linkedin</title>
    <desc>Created with Sketch.</desc>
    <defs></defs>
    <g id="Desktop-HD-Copy-4" stroke="none" stroke-width="1" fill="none" fill-rule="evenodd" transform="translate(-561.000000, -695.000000)" opacity="1">
        <g id="Group-5" transform="translate(561.000000, 695.000000)" fill="#F9FDFF">
            <path d="M28,28 L22.1983157,28 L22.1983157,18.9043546 C22.1983157,16.7357698 22.1613692,13.9455677 19.1839174,13.9455677 C16.1640858,13.9455677 15.7033415,16.3090202 15.7033415,18.7497667 L15.7033415,28 L9.90817713,28 L9.90817713,9.2970451 L15.4697093,9.2970451 L15.4697093,11.8542768 L15.5501222,11.8542768 C16.323825,10.3835148 18.2167889,8.83328149 21.0388481,8.83328149 C26.9144254,8.83328149 28,12.7055988 28,17.7427683 L28,28 Z M3.3664765,6.74199067 C1.50285249,6.74199067 -1.77635684e-15,5.23203733 -1.77635684e-15,3.37045101 C-1.77635684e-15,1.50995334 1.50285249,-1.77635684e-15 3.3664765,-1.77635684e-15 C5.22249389,-1.77635684e-15 6.72860636,1.50995334 6.72860636,3.37045101 C6.72860636,5.23203733 5.22249389,6.74199067 3.3664765,6.74199067 Z M0.460744363,28 L6.26894866,28 L6.26894866,9.2970451 L0.460744363,9.2970451 L0.460744363,28 Z" id="linkedin"></path>
        </g>
    </g>
</svg>