<?xml version="1.0" encoding="UTF-8"?>
<svg width="35px" height="28px" viewBox="0 0 35 28" version="1.1" xmlns="http://www.w3.org/2000/svg" xmlns:xlink="http://www.w3.org/1999/xlink">
    <!-- Generator: Sketch 48.1 (47250) - http://www.bohemiancoding.com/sketch -->
    <title>medium</title>
    <desc>Created with Sketch.</desc>
    <defs></defs>
    <g id="Desktop-HD-Copy-4" stroke="none" stroke-width="1" fill="none" fill-rule="evenodd" transform="translate(-848.000000, -695.000000)" opacity="1">
        <g id="Group-5" transform="translate(561.000000, 695.000000)" fill="#FFFFFF" fill-rule="nonzero">
            <path d="M291.150327,5.71193415 C291.193812,5.27898463 291.029969,4.85106219 290.70915,4.55967077 L287.441176,0.592592592 L287.441176,0 L297.588235,0 L305.431373,17.3333332 L312.326798,0 L322,0 L322,0.592592592 L319.205882,3.29218107 C318.964999,3.477209 318.845508,3.78131552 318.895425,4.08230453 L318.895425,23.9176956 C318.845508,24.2186845 318.964999,24.5227909 319.205882,24.707819 L321.934641,27.4074075 L321.934641,28 L308.20915,28 L308.20915,27.4074075 L311.035948,24.6419753 C311.313725,24.3621398 311.313725,24.2798355 311.313725,23.851852 L311.313725,7.81893005 L303.454248,27.9341564 L302.392157,27.9341564 L293.24183,7.81893005 L293.24183,21.3004115 C293.165538,21.8672109 293.352345,22.4378538 293.748366,22.8477367 L297.424837,27.3415638 L297.424837,27.9341564 L287,27.9341564 L287,27.3415638 L290.676471,22.8477367 C291.069608,22.4371743 291.245522,21.862746 291.150327,21.3004115 L291.150327,5.71193415 Z" id="medium"></path>
        </g>
    </g>
</svg>