<?xml version="1.0" encoding="UTF-8"?>
<svg width="33px" height="28px" viewBox="0 0 33 28" version="1.1" xmlns="http://www.w3.org/2000/svg" xmlns:xlink="http://www.w3.org/1999/xlink">
    <!-- Generator: Sketch 48.1 (47250) - http://www.bohemiancoding.com/sketch -->
    <title>telegram</title>
    <desc>Created with Sketch.</desc>
    <defs></defs>
    <g id="Desktop-HD-Copy-4" stroke="none" stroke-width="1" fill="none" fill-rule="evenodd" transform="translate(-775.000000, -695.000000)" opacity="1">
        <g id="Group-5" transform="translate(561.000000, 695.000000)" fill-rule="nonzero">
            <g id="telegram" transform="translate(214.000000, 0.000000)">
                <path d="M12.6166008,26.173913 C11.6216518,26.173913 11.7907184,25.7977007 11.447569,24.8490069 L8.52173913,15.2060888 L31.0434783,1.82608696" id="Shape" fill="#D4DEE2"></path>
                <path d="M12.173913,26.173913 C12.9209486,26.173913 13.2510138,25.8190379 13.6679842,25.397947 L17.6521739,21.3737868 L12.6823953,18.2608696" id="Shape" fill="#B9C6CB"></path>
                <path d="M12.8768296,18.4782132 L25.0581374,27.6186035 C26.4481818,28.3975666 27.4514269,27.9942577 27.7976722,26.3078814 L32.7560892,2.57673783 C33.2637445,0.509616393 31.9802487,-0.427933007 30.6504559,0.185229622 L1.53471211,11.5876293 C-0.452710079,12.3972403 -0.441123227,13.5233587 1.17244666,14.0251349 L8.64420295,16.3936444 L25.9421135,5.31000337 C26.7587095,4.80707596 27.5081773,5.07746052 26.8930414,5.63193422" id="Shape" fill="#F9FDFF"></path>
            </g>
        </g>
    </g>
</svg>