<?xml version="1.0" encoding="UTF-8"?>
<svg width="35px" height="28px" viewBox="0 0 35 28" version="1.1" xmlns="http://www.w3.org/2000/svg" xmlns:xlink="http://www.w3.org/1999/xlink">
    <!-- Generator: Sketch 48.1 (47250) - http://www.bohemiancoding.com/sketch -->
    <title>twitter</title>
    <desc>Created with Sketch.</desc>
    <defs></defs>
    <g id="Desktop-HD-Copy-4" stroke="none" stroke-width="1" fill="none" fill-rule="evenodd" transform="translate(-630.000000, -695.000000)" opacity="1">
        <g id="Group-5" transform="translate(561.000000, 695.000000)" fill="#F9FDFF" fill-rule="nonzero">
            <path d="M79.8349568,28 C92.8366228,28 99.9467283,17.2287105 99.9467283,7.88822848 C99.9467283,7.58228585 99.9404968,7.27773055 99.9267738,6.97455102 C101.306944,5.97680091 102.506528,4.73168848 103.452692,3.31429185 C102.186169,3.87725035 100.823225,4.25622475 99.393458,4.42711006 C100.852822,3.55201216 101.973212,2.16771508 102.501788,0.517476945 C101.13607,1.32711564 99.6236405,1.91556647 98.0132883,2.23326679 C96.7234111,0.859340065 94.8870385,0 92.853664,0 C88.9501582,0 85.7847162,3.16555769 85.7847162,7.06756045 C85.7847162,7.62224117 85.8467302,8.16177678 85.9680066,8.67929997 C80.0932097,8.383693 74.8838724,5.57096996 71.3974929,1.2940392 C70.7904402,2.33863508 70.4404033,3.55204684 70.4404033,4.8467797 C70.4404033,7.29913023 71.6883135,9.46407064 73.5859602,10.7305943 C72.4262616,10.694764 71.3368547,10.3764186 70.3846786,9.84653651 C70.3836381,9.87619316 70.3836381,9.90510643 70.3836381,9.93680248 C70.3836381,13.3600581 72.8201498,16.2182049 76.0544964,16.8658604 C75.4605309,17.0277858 74.8356046,17.11461 74.1906082,17.11461 C73.7358389,17.11461 73.2927695,17.0698499 72.8621168,16.9871368 C73.7620134,19.7956863 76.371503,21.8394659 79.465266,21.8965779 C77.0459803,23.7928373 73.9983463,24.9222458 70.6860777,24.9222458 C70.1162288,24.9222458 69.5532818,24.8898329 69,24.8243991 C72.1283308,26.8295645 75.8429274,27.9995526 79.8353383,27.9995526" id="twitter"></path>
        </g>
    </g>
</svg>